<svg width="137" height="143" viewBox="0 0 137 143" fill="none" xmlns="http://www.w3.org/2000/svg">
<g clip-path="url(#clip0_1_180)">
<path d="M43.4401 91.5268C42.878 91.0233 42.3158 90.5198 41.6256 89.7884C41.6151 86.5622 40.9254 85.3207 38.8844 84.7345C38.8287 84.3975 38.8163 84.2611 38.7772 83.9667C38.4971 81.8959 37.1546 81.1235 35.6226 80.3559C35.6247 79.3017 35.6247 78.4433 35.6247 77.585C35.447 77.5829 35.2693 77.5808 35.0916 77.5787C34.8918 78.1165 34.692 78.6543 34.3676 79.5273C34.129 78.3937 33.956 77.572 33.7866 76.5265C33.3115 67.5169 34.625 59.0126 37.4252 50.731C37.5915 50.2389 37.4086 49.6182 37.4083 48.9236C37.5633 48.571 37.6982 48.3519 37.9203 48.1063C38.0491 48.0359 38.1327 47.9644 38.1255 47.9526C38.0667 47.8551 37.9911 47.7688 37.973 47.5252C38.475 46.4625 38.9244 45.5536 39.3739 44.6448C39.4564 44.9619 39.5389 45.279 39.6214 45.5961C43.6012 42.6509 47.8174 40.845 52.6821 41.7116C51.9357 41.0554 51.1466 40.72 50.3743 40.3465C47.6819 39.0442 45.2805 37.4797 45.261 33.7419C46.3504 32.2449 47.3792 30.8984 48.4073 29.5527C48.4067 29.5533 48.4049 29.5545 48.5435 29.5521C48.8958 29.3913 49.1096 29.2328 49.3217 29.0755C49.32 29.0767 49.3171 29.0798 49.4219 29.032C49.611 28.8551 49.6953 28.726 49.7783 28.5983C49.7769 28.5997 49.7776 28.599 49.9384 28.5867C54.2941 25.9487 58.4496 23.2508 62.697 20.721C65.8149 18.8639 69.1578 17.5347 72.5049 20.0298C74.2185 21.3071 75.8523 21.1813 77.4889 20.4314C80.2253 19.1776 82.9647 18.6584 85.8778 19.5273C85.8778 19.5273 85.8499 19.5354 85.8719 19.6889C87.8674 21.1669 89.8409 22.4913 91.8145 23.8157C91.8145 23.8157 91.7865 23.8257 91.8011 23.983C93.0336 25.1435 94.2516 26.1467 95.4696 27.1499C95.4696 27.1499 95.4489 27.1715 95.487 27.2433C95.6548 27.2616 95.7845 27.2082 95.9141 27.1548C96.2367 27.6867 96.5592 28.2185 96.9103 29.0252C97.0122 29.4481 97.128 29.534 97.2756 29.5581C97.2651 29.5585 97.2659 29.5366 97.3074 29.6535C97.4797 29.8579 97.6104 29.9453 97.7321 30.0323C97.7232 30.032 97.7287 30.0142 97.7233 30.2051C97.8144 30.7726 97.8747 31.1644 98.0133 31.5234C99.4666 35.2894 98.9918 38.2627 96.1466 40.9399C94.7239 42.2787 92.9512 43.2122 91.2165 44.3809C90.8669 44.5601 90.6376 44.6875 90.2789 44.9476C89.6405 49.1198 89.6405 49.1199 85.6249 49.0934C85.5502 49.0929 85.4755 49.0907 85.3354 48.9319C84.8706 47.8121 84.4714 46.8497 84.0721 45.8873C83.8539 45.9436 83.6358 45.9998 83.4176 46.056C83.164 47.864 82.9105 49.672 82.5522 51.5518C82.5263 51.9013 82.6051 52.1791 82.6777 52.6129C82.6618 52.9769 82.6521 53.1849 82.4742 53.4104C81.4792 54.4179 80.6522 55.408 79.3967 56.9111C80.1557 54.3535 80.7283 52.4237 81.301 50.494C81.2314 50.4836 81.1617 50.4731 81.0921 50.4627C79.0339 54.9425 76.9757 59.4223 74.9041 63.8922C74.8907 63.8822 74.9222 63.8912 74.8396 63.924C74.7232 64.0064 74.6513 64.0866 74.6615 64.1004C74.7298 64.1921 74.8155 64.2696 74.8257 64.4952C73.5932 65.5272 72.4307 66.4156 71.0746 67.452C70.5768 66.1472 70.2245 65.2237 69.8677 64.1045C69.3939 62.6079 68.9246 61.307 68.4554 60.0061C68.3198 60.0409 68.1843 60.0756 68.0488 60.1103C68.0488 60.7316 68.0488 61.3529 67.8871 61.9464C66.7087 59.6607 65.6919 57.4027 64.5781 54.9289C64.2032 56.0133 63.8537 57.0243 63.3326 58.5316C61.5332 54.8364 61.9079 51.623 62.7279 48.1639C63.6024 48.495 64.2577 48.7432 64.913 48.9913C65.0201 48.7727 65.1272 48.554 65.2343 48.3354C64.3469 47.7911 63.4594 47.2468 62.5707 46.533C62.5436 45.9872 62.5178 45.6109 62.5329 45.8315C60.2319 45.5593 58.1535 45.3134 56.0751 45.0676C55.1092 45.2389 54.0862 46.0239 53.1657 46.9233C53.0191 47.0666 53.3332 47.7236 53.3098 48.2475C53.1219 48.7895 53.0585 49.227 52.9872 49.7942C52.8447 50.129 52.7102 50.3341 52.4097 50.5554C51.7311 51.4078 51.094 52.1894 50.7306 53.0913C49.8645 55.2408 49.1277 57.4472 48.3387 59.6306C48.1368 59.5544 47.9349 59.4782 47.733 59.4019C49.1758 54.3783 50.6187 49.3547 52.1556 44.2724C52.2423 44.0459 52.2349 43.8781 52.2274 43.7103C52.1711 43.9163 52.1147 44.1223 51.8972 44.3559C51.5664 44.5285 51.3142 44.6371 51.239 44.8235C47.7976 53.3549 46.0436 62.2133 46.6128 71.4978C46.6425 71.9817 47.1431 72.4342 47.4479 73.0861C47.9424 74.7448 48.4133 76.2189 48.8277 77.7988C48.6487 78.0005 48.5261 78.0964 48.2791 78.1016C47.1909 76.8121 46.2273 75.6133 45.2445 74.2265C45.0729 73.1966 44.9203 72.3547 44.8825 71.4027C43.3277 64.5727 42.7113 57.8092 44.3191 50.976C44.8498 48.7209 45.4893 46.4937 46.079 44.2538C45.8844 44.2234 45.6897 44.193 45.495 44.1626C41.9784 52.8356 42.6553 61.9297 43.4155 71.2197C43.999 74.1594 44.5642 76.9098 45.1294 79.6602C45.0142 79.6996 44.899 79.7391 44.7839 79.7785C44.2354 78.9428 43.6869 78.1072 43.1385 77.2715C42.938 77.3331 42.7376 77.3947 42.5371 77.4563C42.5371 78.6692 42.5371 79.8821 42.5536 81.2808C43.2302 84.8798 43.8904 88.293 44.562 91.7655C44.1658 91.6812 43.8029 91.604 43.4401 91.5268ZM62.6434 44.0152C62.7679 43.9607 62.8925 43.9062 63.0489 43.5231C63.1679 42.9703 63.2868 42.4174 63.4057 41.8646C63.2224 41.8303 63.0391 41.7961 62.8557 41.7618C62.7588 42.4587 62.6618 43.1556 62.6434 44.0152ZM65.7597 25.7397C65.7597 25.7397 65.7599 25.744 66.098 25.7047C67.1338 25.2946 68.1696 24.8845 69.9163 24.1928C68.802 23.5971 68.0504 22.837 67.5173 22.9778C65.9664 23.3876 64.503 24.1581 62.7156 24.8103C62.3611 25.116 62.0065 25.4217 61.3778 25.7553C61.16 25.9093 60.9422 26.0633 60.4857 26.33C60.2649 26.6039 60.0441 26.8778 59.5499 27.3015C58.3739 28.8027 57.1979 30.3038 56.0218 31.805C56.2688 32.0278 56.5157 32.2506 56.7626 32.4734C57.6323 31.5008 58.5019 30.5281 59.692 29.5191C61.2584 28.4172 62.8248 27.3153 64.7 26.2139C65.0547 26.0558 65.4094 25.8977 65.7597 25.7397ZM85.2853 24.5866C85.1231 24.595 84.961 24.6034 84.7988 24.6118C84.9972 24.6711 85.1956 24.7303 85.4225 25.1159C85.6193 26.045 85.8161 26.9741 86.0802 28.2206C87.0091 28.7533 88.2599 29.4705 89.5106 30.1876C89.6484 29.9776 89.7862 29.7675 89.9239 29.5575C88.9064 27.4998 87.5571 25.7573 85.2853 24.5866ZM83.5923 23.9728C82.2315 23.6853 81.0562 23.7785 80.4071 24.9512C80.5111 25.1679 80.6151 25.3846 80.7191 25.6013C81.6362 25.1486 82.5532 24.6959 83.5923 23.9728Z" fill="#FEC7D8"/>
<path d="M43.4534 91.7132C43.8029 91.604 44.1658 91.6812 44.562 91.7655C43.8904 88.293 43.2302 84.8798 42.7246 81.2603C44.2355 80.8331 44.948 83.3931 46.7012 82.1239C46.9736 86.8656 48.9555 90.6444 52.5028 93.0835C57.2243 96.3301 62.2757 99.0602 67.2378 101.913C67.979 102.339 69.0835 102.532 69.8878 102.311C75.9426 100.641 82.0378 99.0688 87.9655 96.9857C90.9283 95.9445 93.2045 93.5432 94.3374 90.1647C96.6179 90.8724 98.166 89.8162 99.2479 88.1416C99.6937 87.4516 99.4547 86.2794 99.5601 85.1694C100.089 84.5471 100.585 84.0819 101.3 83.4108C101.323 87.9628 97.4447 98.6805 93.9446 103.906C93.7364 103.91 93.6532 103.915 93.57 103.919C93.57 103.374 93.57 102.828 93.57 102.188C91.9925 103.106 90.5446 104.043 89.0082 104.779C88.6095 104.969 87.9341 104.531 87.4684 104.151C87.521 103.789 87.491 103.657 87.461 103.526C87.3481 103.618 87.2352 103.71 87.1222 103.802C85.5315 106.174 82.7699 104.846 80.7012 105.708C80.6261 105.983 80.5509 106.258 80.4758 106.533C82.8954 107.956 85.3926 109.255 87.7131 110.837C90.0825 112.451 92.2785 114.343 95.0543 116.507C90.2375 119.946 85.4337 123.563 80.4424 126.872C77.3761 128.905 74.0146 130.45 70.8014 132.244C68.8542 133.332 66.8552 134.383 66.2983 136.95C66.2427 137.207 65.9323 137.423 65.7036 137.609C65.6065 137.687 65.415 137.64 65.7694 137.616C63.5488 134.409 61.3812 131.518 59.4722 128.452C57.66 125.541 56.1009 122.457 54.464 119.43C53.4215 117.502 52.3468 115.582 51.4651 113.573C50.9109 112.311 50.6872 110.89 50.4113 109.266C50.5703 108.83 50.6331 108.667 50.8679 108.533C52.594 107.92 54.1483 107.278 55.8617 106.63C56.7627 105.94 57.5046 105.256 58.2465 104.572C57.5933 103.811 56.9402 103.05 56.3045 102.309C55.4793 103.091 54.9372 103.605 54.2796 103.998C53.2825 102.809 52.4008 101.74 51.1486 100.221C51.1924 101.213 51.2083 101.573 51.1711 101.986C51.1181 102.04 51.0142 102.15 50.8496 102.132C49.7788 101.751 48.8724 101.389 47.957 101.037C47.9479 101.047 47.9749 101.043 48.0253 100.885C47.577 100.208 47.0783 99.6906 46.5633 98.9997C45.841 98.4193 45.135 98.0121 44.429 97.6049C44.1082 95.7032 43.7874 93.8014 43.4534 91.7132ZM69.4443 127.984C69.5384 127.969 69.6324 127.954 69.7265 127.938C69.6571 127.84 69.5877 127.743 69.4877 127.301C68.8704 125.171 67.1248 124.707 65.3882 124.583C63.5266 124.45 62.4871 125.242 61.8403 127.107C64.9251 123.984 67.1601 125.747 69.4443 127.984ZM59.6713 117.651C59.6623 118.158 59.6534 118.664 59.471 119.445C59.6335 120.832 59.1118 122.604 61.5856 122.854C64.5193 121.475 67.2747 121.606 69.9071 123.724C71.2545 124.808 72.4704 124.824 73.3788 122.925C74.3236 120.949 75.6401 119.161 76.5192 117.159C77.4362 115.071 79.2707 112.967 77.2165 110.181C77.0497 109.84 76.8829 109.498 76.7047 108.746C76.674 107.791 76.6434 106.836 76.7345 105.514C76.8779 104.575 77.0213 103.635 77.234 102.242C75.5171 102.841 74.3136 103.251 73.1169 103.682C69.4843 104.989 65.9431 107.574 62.2297 104.301C61.5799 105.899 61.2786 107.414 60.4561 108.498C58.8274 110.644 58.2914 114.76 59.6713 117.651Z" fill="#FE78A1"/>
<path d="M35.6204 80.5517C37.1546 81.1235 38.4971 81.8959 38.6476 84.0967C38.4801 84.8611 38.4153 85.3375 38.3549 85.8065C38.3592 85.7991 38.3666 85.7835 38.2159 85.8731C38.0095 86.5492 37.9536 87.1357 37.9011 87.7152C37.9044 87.7082 37.9138 87.696 37.9138 87.696C37.5135 88.309 37.0142 88.8756 36.7278 89.542C33.0463 98.109 27.7247 105.093 19.5708 109.506C18.0069 110.352 17.2472 110.011 16.4466 108.612C15.2093 106.45 14.6107 104.369 15.9923 101.94C17.7726 98.8105 19.3456 95.5516 20.9832 92.3346C21.3673 91.5801 21.652 90.7705 22.0795 89.8085C22.1765 89.6307 22.3726 89.6179 22.3726 89.6179C23.5243 91.8166 24.6761 94.0152 25.9616 96.4691C26.6132 95.9207 27.2972 95.5456 27.7123 94.962C29.9095 91.8732 32.1398 88.7996 34.1293 85.5669C34.7093 84.6246 34.5354 83.1768 34.7566 81.6422C35.0776 81.0664 35.349 80.809 35.6204 80.5517ZM21.972 96.5848C20.5019 99.6789 19.0319 102.773 17.5618 105.867C17.7878 105.978 18.0138 106.089 18.2398 106.199C20.238 102.367 22.2362 98.5337 24.2344 94.7008C24.0589 94.5661 23.8835 94.4315 23.7081 94.2968C23.1866 94.959 22.6652 95.6211 21.972 96.5848Z" fill="#FE79A2"/>
<path d="M29.6619 44.1543C29.6996 44.042 29.7676 43.9557 30.1224 43.875C30.9032 43.3677 31.4276 42.8807 31.952 42.3938C31.952 42.3938 31.9696 42.4171 32.1364 42.4199C33.7154 42.1067 35.1277 41.7908 36.5366 41.4723C36.5332 41.4697 36.5272 41.4635 36.5748 41.5733C36.7471 41.7732 36.8717 41.8633 36.9932 41.9502C36.99 41.947 36.9825 41.9419 37.0759 42.0766C37.4169 42.7872 37.6645 43.3632 37.9117 44.1198C37.7395 44.7973 37.5425 45.2865 37.4007 45.7926C36.9532 47.3901 36.5263 48.994 36.0891 50.7962C35.4753 53.974 35.0788 57.0223 34.1989 59.9101C33.0511 63.6773 31.5203 67.3174 30.1508 70.8094C31.5338 64.3465 32.9203 58.0864 34.3068 51.8263C33.6113 53.2878 33.0895 54.8712 32.4252 56.3866C31.7345 57.9621 30.9062 59.4719 30.1375 60.8047C30.3013 58.6067 30.4658 56.6143 30.6302 54.6219C30.4125 54.5842 30.1949 54.5465 29.9772 54.5088C28.8462 56.3095 27.7152 58.1102 26.5905 59.9009C25.9304 59.6339 25.323 59.3881 24.7155 59.1424C23.7913 57.3472 22.867 55.552 22.0777 53.5626C23.0763 52.7654 24.1227 52.3238 24.7677 51.5277C26.4444 49.4584 27.9543 47.2408 29.5009 45.0593C29.6581 44.8376 29.6131 44.4597 29.6619 44.1543Z" fill="#FEC7D8"/>
<path d="M33.3767 28.6365C34.148 27.5242 34.9192 26.412 35.963 25.2355C36.3335 25.034 36.4316 24.8966 36.5297 24.7592C36.5297 24.7592 36.5301 24.7877 36.6978 24.7848C39.3626 24.3078 41.8502 23.5518 44.3601 23.4597C46.0049 23.3994 47.682 24.2996 49.3446 24.7696C49.3446 24.7696 49.3251 24.7885 49.3691 24.8894C49.542 25.0782 49.6708 25.166 49.7997 25.2539C49.7997 25.2539 49.7767 25.2634 49.824 25.3657C49.9996 25.5555 50.128 25.643 50.2564 25.7306C50.2564 25.7306 50.2308 25.7309 50.2307 25.9096C50.0796 26.9252 49.9286 27.7621 49.7776 28.599C49.7776 28.599 49.7769 28.5997 49.6727 28.6452C49.4847 28.8204 49.4009 28.9501 49.317 29.0798C49.317 29.0798 49.32 29.0767 49.1834 29.0801C48.8329 29.2404 48.6189 29.3975 48.4049 29.5545C48.4049 29.5545 48.4067 29.5533 48.237 29.5514C47.7267 29.558 47.3861 29.5666 46.8572 29.5677C45.2701 30.1942 43.8712 30.828 42.3404 31.3325C42.0698 30.1036 41.9311 29.0041 41.7924 27.9047C41.0412 29.318 40.6197 30.731 40.5465 32.1634C40.4452 34.1456 40.6061 36.1424 40.65 38.3147C40.6487 38.8602 40.6521 39.2239 40.6489 39.5762C40.6424 39.5649 40.6677 39.5676 40.558 39.6126C40.3636 39.7921 40.2789 39.9266 40.1918 40.049C40.1893 40.0369 40.2106 40.0476 40.0667 40.111C38.9427 40.7636 37.9626 41.3528 36.9825 41.9419C36.9825 41.9419 36.99 41.947 36.9462 41.84C36.7773 41.6432 36.6522 41.5534 36.5272 41.4635C36.5272 41.4635 36.5332 41.4697 36.4718 41.3302C35.8499 40.7992 35.2893 40.4076 34.7213 39.8325C34.2587 36.9253 33.7632 34.2078 33.3711 31.4741C33.2384 30.5493 33.3673 29.5836 33.3767 28.6365ZM41.5729 25.6256C41.6287 25.8324 41.6845 26.0391 41.7403 26.2458C41.8408 26.197 41.9412 26.1482 42.0417 26.0993C41.8977 25.8585 41.7538 25.6178 41.5729 25.6256Z" fill="#FEC7D8"/>
<path d="M38.9278 84.935C40.9254 85.3207 41.6151 86.5622 41.4642 89.7464C38.7701 95.1487 36.3394 100.513 33.3726 105.533C31.16 109.276 27.7644 111.923 23.8096 113.673C23.081 113.995 22.4721 114.613 21.6259 115.226C20.665 114.04 19.6645 112.804 18.4713 111.331C28.3329 106.445 35.0721 98.9727 37.9416 87.8823C37.9138 87.696 37.9044 87.7082 38.0504 87.6257C38.2531 86.9567 38.3098 86.3701 38.3666 85.7835C38.3666 85.7835 38.3592 85.7991 38.4955 85.7812C38.7304 85.4872 38.8291 85.2111 38.9278 84.935Z" fill="#FE79A2"/>
<path d="M113.733 47.1904C115.359 48.8402 116.985 50.49 118.594 52.33C118.638 52.6475 118.7 52.7748 118.762 52.902C118.762 52.902 118.737 52.9131 118.784 53.0128C118.959 53.2022 119.087 53.2919 119.215 53.3816C119.215 53.3816 119.189 53.383 119.189 53.5633C120.07 57.2369 121.671 60.5944 121.031 64.3747C121.031 64.3747 121.024 64.3464 120.875 64.3626C120.371 64.8559 120.016 65.3329 119.661 65.81C119.661 65.81 119.644 65.7863 119.485 65.7847C118.637 66.034 117.947 66.285 117.37 66.4946C116.653 64.5467 115.953 62.645 115.169 60.5163C114.429 62.9137 113.839 64.8242 113.25 66.5603C113.101 65.863 112.952 65.3403 112.803 64.6007C112.836 59.3385 111.701 54.5771 109.591 49.9086C109.436 49.5432 109.29 49.3208 109.144 49.0975C109.143 49.0967 109.142 49.0954 109.151 48.9173C110.146 46.4916 111.793 46.3708 113.733 47.1904Z" fill="#FEC9DA"/>
<path d="M94.9615 126.272C86.733 130.913 78.4581 135.439 69.2037 137.518C68.7695 137.616 68.3211 137.645 67.5779 137.191C68.4928 136.534 69.3485 135.754 70.3326 135.242C74.9532 132.841 79.75 130.769 84.2141 128.091C89.0561 125.185 93.6001 121.738 98.7323 118.213C99.4347 118.82 100.697 119.911 102.177 121.19C100.286 122.543 98.8527 123.568 97.1789 124.773C96.2794 125.393 95.6204 125.833 94.9615 126.272Z" fill="#FE79A2"/>
<path d="M49.9384 28.5867C49.9286 27.7621 50.0797 26.9252 50.2411 25.9018C51.2031 25.6097 52.292 25.7803 53.0827 25.3518C56.9189 23.2727 60.6406 20.9639 64.4731 18.8771C66.6071 17.7151 68.9305 17.2732 71.289 18.2234C73.0657 18.9392 73.6689 18.0139 73.3551 16.4419C72.66 12.9604 73.5841 9.87304 75.3316 6.86188C74.4444 10.7712 73.4206 14.6898 74.7445 18.7461C76.0202 14.8119 77.2805 10.9251 78.5408 7.03832C78.6598 7.6061 78.9963 8.2393 78.8608 8.73058C78.2003 11.1244 77.1446 13.4317 76.7412 15.8623C76.2604 18.7596 77.1766 19.4355 79.9308 18.6769C81.9437 18.1225 83.9007 17.6989 85.795 19.3763C82.9647 18.6584 80.2254 19.1776 77.4889 20.4314C75.8523 21.1813 74.2185 21.3071 72.5049 20.0298C69.1578 17.5347 65.8149 18.8639 62.697 20.721C58.4496 23.2508 54.2941 25.9487 49.9384 28.5867Z" fill="#FEA9C3"/>
<path d="M114.692 31.8622C115.114 32.7365 115.536 33.6108 115.831 34.7856C115.35 37.6989 114.995 40.3118 114.64 42.9247C114.64 42.9247 114.622 42.9051 114.526 42.9525C114.347 43.1329 114.262 43.2658 114.178 43.3988C114.178 43.3988 114.169 43.3744 114.059 43.454C113.873 43.8076 113.797 44.0818 113.721 44.3559C113.721 44.3559 113.715 44.3276 113.563 44.3433C113.096 44.5472 112.752 44.6978 112.469 44.9294C109.407 47.4368 109.015 47.3583 107.316 43.6736C108.379 41.2311 109.438 38.9689 110.622 36.6511C110.976 36.3126 111.203 36.0297 111.429 35.7484C111.427 35.75 111.423 35.7537 111.587 35.7365C113.05 34.7659 115.204 34.5147 114.605 31.948C114.635 31.9203 114.692 31.8622 114.692 31.8622Z" fill="#FEC9DA"/>
<path d="M59.2682 131.644C60.8757 133.432 62.376 135.094 64.0795 136.98C62.2887 137.552 60.9853 137.525 59.8633 136.088C57.2772 132.775 54.5005 129.613 52.0764 126.178C50.0876 123.36 49.5113 120.041 50.1113 116.462C53.1939 121.59 56.1775 126.553 59.2682 131.644Z" fill="#FE79A2"/>
<path d="M110.497 36.7068C109.438 38.9689 108.379 41.2311 107.179 43.6787C106.948 43.869 106.856 43.8739 106.654 43.7701C104.481 39.9153 102.418 36.169 100.544 32.4181C102.977 33.1772 105.22 33.9409 107.76 34.8055C107.76 32.5872 107.811 30.6353 107.72 28.6906C107.7 28.262 107.126 27.4724 106.889 27.5047C104.716 27.8013 102.503 28.0639 100.445 28.7831C100.002 28.938 100.136 30.8929 99.8793 31.9317C99.079 31.2346 98.4039 30.6244 97.7287 30.0142C97.7287 30.0142 97.7232 30.032 97.6885 29.9174C97.5245 29.7141 97.3952 29.6254 97.2659 29.5366C97.2659 29.5366 97.2651 29.5585 97.2512 29.429C97.195 29.2236 97.1528 29.1477 97.1106 29.0719C98.6964 28.372 100.259 27.6068 101.873 26.9857C105.501 25.5889 108.857 26.1343 111.724 28.8687C110.756 28.7229 109.939 28.417 108.899 28.0277C108.66 31.1297 108.444 33.9366 108.238 36.6168C109.098 36.2912 109.811 36.0211 110.515 35.9102C110.504 36.2818 110.5 36.4943 110.497 36.7068ZM104.209 36.9034C104.965 38.168 105.721 39.4327 106.477 40.6973C107.093 39.4785 107.425 38.5963 107.227 37.873C107.015 37.1041 106.406 36.3158 105.758 35.8792C105.469 35.6843 104.661 36.3282 104.209 36.9034Z" fill="#FEB1C9"/>
<path d="M30.1543 71.0121C31.5203 67.3173 33.0511 63.6773 34.1989 59.9101C35.0788 57.0223 35.4753 53.974 36.2101 50.7136C36.6851 49.9725 37.0366 49.5149 37.3882 49.0573C37.4086 49.6182 37.5915 50.2389 37.4252 50.731C34.625 59.0126 33.3115 67.5169 33.6404 76.5115C33.1382 76.4042 32.7856 76.0883 32.5612 75.6519C32.5078 73.8352 32.3263 72.139 32.1448 70.4428C31.9106 70.4628 31.6764 70.4828 31.4423 70.5028C31.3103 71.1547 31.1783 71.8067 30.8773 72.4578C30.4824 72.467 30.2565 72.477 30.0305 72.487C29.9033 72.2614 29.776 72.0359 29.7483 71.6166C29.95 71.2859 30.0521 71.149 30.1543 71.0121Z" fill="#FEB6CC"/>
<path d="M110.524 35.7511C109.811 36.0211 109.098 36.2912 108.238 36.6168C108.444 33.9366 108.66 31.1296 108.899 28.0277C109.939 28.417 110.756 28.7229 111.749 29.0345C111.925 29.0403 111.913 29.0605 111.985 29.1871C112.346 29.3852 112.635 29.4567 112.923 29.5282C113.357 30.0421 113.79 30.5561 114.207 31.2539C114.191 31.4378 114.147 31.4795 114.014 31.404C113.436 30.9915 112.991 30.6544 112.7 30.4348C112.252 32.3008 111.838 34.0272 111.423 35.7537C111.423 35.7537 111.427 35.7499 111.278 35.7424C110.927 35.7402 110.725 35.7457 110.524 35.7511Z" fill="#FEC9DA"/>
<path d="M78.4348 6.91868C77.2805 10.9251 76.0202 14.8119 74.7445 18.7461C73.4206 14.6899 74.4444 10.7713 75.4566 6.75723C76.3355 6.70329 77.3321 6.75115 78.4348 6.91868Z" fill="#FEC7D8"/>
<path d="M113.202 72.4489C113.054 75.672 113.005 78.9061 112.68 82.1095C112.609 82.8051 111.548 83.391 110.74 84.2399C110.089 87.1151 109.345 90.4029 108.346 93.8082C107.99 93.9193 107.887 93.9129 107.802 93.7205C108.59 89.2156 109.36 84.8967 110.016 81.2164C110.824 80.2377 111.692 79.6509 111.859 78.8954C112.325 76.7853 112.501 74.6055 112.894 72.4526C112.997 72.452 113.202 72.4489 113.202 72.4489Z" fill="#FEAFC7"/>
<path d="M22.3772 89.434C22.3726 89.618 22.1765 89.6307 22.0785 89.6285C21.2664 87.6734 20.6236 85.688 19.8222 83.775C18.4799 80.5706 16.9875 77.4345 15.6513 74.2273C14.6129 71.7351 13.7163 69.1784 12.7717 66.4513C12.7868 66.2523 12.8012 66.2261 12.8012 66.2261C13.1011 66.6588 13.4573 67.0608 13.692 67.5291C15.4435 71.0253 17.2238 74.5078 18.8806 78.0528C19.5672 79.5221 20.0171 81.1195 20.4968 82.6847C21.1635 84.8603 21.757 87.0604 22.3772 89.434Z" fill="#FEC0D3"/>
<path d="M113.221 72.2451C113.202 72.4489 112.997 72.452 112.894 72.2377C112.646 70.2615 112.501 68.4996 112.505 66.7363C112.852 66.7349 113.05 66.7349 113.248 66.7348C113.839 64.8243 114.429 62.9137 115.169 60.5163C115.953 62.645 116.653 64.5467 117.37 66.4946C117.947 66.285 118.637 66.0341 119.499 65.7894C118.541 66.736 117.713 68.9934 115.813 66.7202C115.712 66.5991 114.434 67.1151 114.286 67.5504C113.794 68.9941 113.568 70.5367 113.221 72.2451Z" fill="#FEA9C3"/>
<path d="M30.1508 70.8094C30.0521 71.149 29.95 71.2859 29.7342 71.4821C29.3483 70.6926 29.0761 69.8439 28.9357 68.8103C29.263 68.4584 29.4583 68.2912 29.6896 67.9408C29.8661 65.5071 30.0067 63.2567 30.1455 61.0092C30.1437 61.0122 30.1381 61.0104 30.1381 61.0104C30.9062 59.4719 31.7345 57.9622 32.4252 56.3867C33.0895 54.8712 33.6113 53.2878 34.3067 51.8263C32.9203 58.0864 31.5338 64.3465 30.1508 70.8094Z" fill="#FEA9C3"/>
<path d="M33.3822 130.367C32.9187 126.227 32.4812 122.274 32.0437 118.321C32.249 118.272 32.4544 118.222 32.6597 118.173C32.8406 118.449 33.1331 118.704 33.1855 119.004C33.8162 122.618 34.4342 126.235 34.9862 129.863C35.0537 130.306 34.7175 130.816 34.5683 131.296C34.1815 131.049 33.7948 130.801 33.3822 130.367Z" fill="#FED0DE"/>
<path d="M24.751 59.2902C25.323 59.3881 25.9304 59.6339 26.5905 59.9009C27.7152 58.1102 28.8462 56.3095 29.9772 54.5088C30.1949 54.5465 30.4125 54.5842 30.6302 54.6219C30.4658 56.6143 30.3013 58.6067 30.1375 60.8047C30.1381 61.0104 30.1437 61.0122 30.0266 60.9382C29.314 60.5234 28.7185 60.1825 28.2091 59.8909C27.7531 60.5068 27.3681 61.027 26.8203 61.5349C26.4398 61.5216 26.2221 61.5206 26.0044 61.5196C25.5985 60.8257 25.1925 60.1318 24.751 59.2902Z" fill="#FEA3C0"/>
<path d="M121.183 64.2821C121.671 60.5944 120.07 57.2369 119.196 53.5519C120.735 55.9481 122.266 58.5362 123.777 61.3072C123.21 61.0009 122.663 60.5118 122.213 60.1088C121.927 61.4413 121.631 62.8154 121.183 64.2821Z" fill="#FEA9C3"/>
<path d="M29.518 44.2301C29.6131 44.4597 29.6581 44.8376 29.5009 45.0593C27.9543 47.2408 26.4444 49.4584 24.7677 51.5277C24.1227 52.3238 23.0763 52.7654 22.048 53.3945C21.7343 53.039 21.5853 52.6576 21.4501 52.1166C21.4637 51.9571 21.4586 51.9225 21.4586 51.9225C23.2445 50.1547 25.02 48.3752 26.821 46.6245C27.6461 45.8225 28.5215 45.077 29.518 44.2301Z" fill="#FEA3C0"/>
<path d="M32.4331 75.7723C32.7856 76.0883 33.1382 76.4042 33.6369 76.7353C33.956 77.572 34.129 78.3937 34.3676 79.5273C34.692 78.6543 34.8918 78.1165 35.0916 77.5787C35.2693 77.5808 35.447 77.5829 35.6247 77.585C35.6247 78.4433 35.6247 79.3017 35.6226 80.3559C35.349 80.809 35.0776 81.0664 34.7212 81.4413C33.1241 78.6491 31.612 75.7393 30.0652 72.6582C30.2565 72.477 30.4824 72.467 30.8957 72.6236C31.5331 73.7843 31.9831 74.7783 32.4331 75.7723Z" fill="#FEA9C3"/>
<path d="M49.2713 24.6216C47.682 24.2996 46.0049 23.3994 44.3602 23.4597C41.8502 23.5518 39.3626 24.3078 36.6861 24.7775C38.8579 21.777 45.9272 21.4196 49.2713 24.6216Z" fill="#FEA9C3"/>
<path d="M12.7729 66.2563C11.4912 62.4463 10.2235 58.6322 8.95569 54.8181C9.33369 54.6984 9.71169 54.5788 10.0897 54.4591C10.9952 58.2503 11.9008 62.0415 12.8037 66.0294C12.8012 66.2261 12.7868 66.2522 12.7729 66.2563Z" fill="#FED0DE"/>
<path d="M106.765 43.8787C106.856 43.8739 106.948 43.869 107.176 43.8591C109.015 47.3583 109.407 47.4368 112.469 44.9294C112.752 44.6978 113.096 44.5472 113.575 44.3506C113.731 45.1557 113.723 45.9693 113.724 46.9866C111.793 46.3708 110.146 46.4916 109.026 48.9167C108.808 49.0906 108.725 49.0871 108.61 48.9731C108.504 48.7135 108.388 48.6273 108.229 48.6141C108.229 48.6241 108.247 48.617 108.248 48.4363C107.754 46.7967 107.259 45.3377 106.765 43.8787Z" fill="#FEAFC7"/>
<path d="M95.1042 126.406C95.6204 125.833 96.2794 125.393 97.0749 124.892C97.0193 126.92 97.9593 129.242 96.5203 131.076C96.2545 131.061 95.9887 131.045 95.723 131.03C95.5643 129.534 95.4056 128.037 95.1042 126.406Z" fill="#FEC9DA"/>
<path d="M16.7895 41.7213C18.242 44.7837 19.622 47.7013 21.0019 50.619C20.7569 50.7399 20.5119 50.8609 20.2668 50.9818C18.7294 47.7143 17.192 44.4467 15.6546 41.1792C15.8467 41.0749 16.0387 40.9705 16.2307 40.8662C16.3928 41.103 16.5548 41.3398 16.7895 41.7213Z" fill="#FED0DE"/>
<path d="M33.3012 28.8022C33.3673 29.5835 33.2384 30.5493 33.3711 31.4741C33.7632 34.2077 34.2587 36.9253 34.6126 39.8428C34.5114 40.0366 34.2941 40.0489 34.2941 40.0489C32.1867 36.5392 31.7943 32.8494 33.3012 28.8022Z" fill="#FEB1C9"/>
<path d="M107.784 93.9065C107.887 93.9129 107.99 93.9193 108.247 93.9453C107.666 96.8652 106.93 99.7655 106.195 102.666C105.997 102.622 105.8 102.579 105.602 102.535C105.809 100.375 106.016 98.216 106.46 95.928C107.055 95.4823 107.412 95.1651 107.77 94.6911C107.776 94.325 107.78 94.1157 107.784 93.9065Z" fill="#FEA9C3"/>
<path d="M93.445 104.012C93.6532 103.915 93.7364 103.91 93.9673 104.062C94.7266 104.166 95.3876 104.251 95.9394 104.034C97.0248 103.607 98.0496 103.012 99.107 102.494C99.1146 102.502 99.1298 102.518 99.1298 102.518C97.0438 104.055 94.9578 105.593 92.8719 107.131C92.6661 106.922 92.4603 106.713 92.2545 106.504C92.6096 105.705 92.9648 104.905 93.445 104.012Z" fill="#FEB1C9"/>
<path d="M104.161 97.274C102.585 98.9999 101.008 100.726 99.2807 102.485C99.1298 102.518 99.1146 102.502 99.1172 102.329C100.787 100.518 102.455 98.8802 104.132 97.2504C104.142 97.2583 104.161 97.274 104.161 97.274Z" fill="#FEB1C9"/>
<path d="M26.0297 61.6913C26.2221 61.5206 26.4398 61.5216 26.8281 61.7055C27.8837 63.967 28.7687 66.0456 29.6537 68.1241C29.4584 68.2912 29.263 68.4584 28.9331 68.6353C27.8841 66.3844 26.9695 64.1237 26.0297 61.6913Z" fill="#FED0DE"/>
<path d="M114.786 42.8394C114.995 40.3118 115.35 37.6989 115.836 34.9555C116.676 37.6181 116.223 40.2458 114.786 42.8394Z" fill="#FEAFC7"/>
<path d="M91.7471 23.6711C89.8409 22.4913 87.8674 21.1669 85.8809 19.6771C87.8052 20.85 89.7425 22.1882 91.7471 23.6711Z" fill="#FEA9C3"/>
<path d="M50.696 108.504C50.6332 108.667 50.5703 108.83 50.4088 109.076C49.5079 106.919 48.7057 104.68 47.9178 102.234C47.9322 102.027 47.9948 101.971 48.1283 102.056C49.0732 104.262 49.8846 106.383 50.696 108.504Z" fill="#FEC0D3"/>
<path d="M46.1219 122.863C46.3243 121.58 46.5263 120.488 46.7283 119.396C47.0113 119.454 47.2942 119.513 47.5772 119.571C47.2933 121.215 47.0095 122.86 46.7257 124.504C46.5444 124.479 46.3631 124.453 46.1818 124.428C46.1617 123.969 46.1417 123.511 46.1219 122.863Z" fill="#FEF4F7"/>
<path d="M34.2246 40.1901C34.2941 40.0489 34.5114 40.0366 34.6201 40.0263C35.2893 40.4076 35.8499 40.7992 36.4752 41.3329C35.1277 41.7908 33.7154 42.1067 32.1229 42.415C32.6802 41.7153 33.4177 41.0233 34.2246 40.1901Z" fill="#FEA3C0"/>
<path d="M95.4648 26.9841C94.2516 26.1467 93.0336 25.1435 91.811 23.9716C93.0243 24.808 94.2421 25.8132 95.4648 26.9841Z" fill="#FEA9C3"/>
<path d="M44.3976 97.7844C45.135 98.0121 45.841 98.4193 46.5739 99.149C46.6061 99.671 46.6115 99.8705 46.5922 100.093C46.5674 100.116 46.52 100.165 46.52 100.165C45.802 99.4314 45.0841 98.6976 44.3976 97.7844Z" fill="#FEC0D3"/>
<path d="M106.293 94.911C106.125 94.9248 105.958 94.9387 105.647 94.8151C105.496 94.5748 105.488 94.4719 105.485 94.1934C105.854 93.5594 106.218 93.1012 106.582 92.6429C106.822 93.3816 107.062 94.1202 107.133 94.8602C106.741 94.8781 106.517 94.8945 106.293 94.911Z" fill="#FEA9C3"/>
<path d="M105.481 94.3691C105.488 94.472 105.496 94.5748 105.522 94.8321C105.168 95.6952 104.795 96.4037 104.291 97.1932C104.161 97.274 104.142 97.2583 104.13 97.079C104.572 96.0561 105.027 95.2126 105.481 94.3691Z" fill="#FEB1C9"/>
<path d="M31.8025 42.4164C31.4276 42.8807 30.9032 43.3677 30.1991 43.8459C30.5639 43.3712 31.1085 42.9051 31.8025 42.4164Z" fill="#FEA3C0"/>
<path d="M119.812 65.7857C120.016 65.3329 120.371 64.8559 120.886 64.3719C120.685 64.8305 120.324 65.2959 119.812 65.7857Z" fill="#FEA9C3"/>
<path d="M106.313 95.0572C106.517 94.8945 106.741 94.8781 107.25 94.8589C107.613 94.8535 107.691 94.8507 107.769 94.848C107.412 95.1652 107.055 95.4823 106.532 95.7967C106.355 95.5971 106.345 95.4003 106.313 95.0572Z" fill="#FEAFC7"/>
<path d="M47.9021 102.057C47.5745 101.715 47.277 101.344 46.9964 100.786C47.0134 100.598 47.0683 100.544 47.1841 100.603C47.5249 100.789 47.7499 100.916 47.9749 101.043C47.9749 101.043 47.9479 101.047 47.9534 101.195C47.9708 101.552 47.9828 101.762 47.9948 101.971C47.9948 101.971 47.9322 102.027 47.9021 102.057Z" fill="#FEC0D3"/>
<path d="M112.824 29.4105C112.635 29.4567 112.346 29.3852 111.975 29.1821C112.17 29.1313 112.448 29.212 112.824 29.4105Z" fill="#FEB1C9"/>
<path d="M113.836 44.2742C113.797 44.0817 113.873 43.8076 114.07 43.4596C114.111 43.6546 114.031 43.9235 113.836 44.2742Z" fill="#FEAFC7"/>
<path d="M119.173 53.2644C119.087 53.2919 118.959 53.2022 118.785 52.999C118.87 52.9727 119.001 53.0599 119.173 53.2644Z" fill="#FEA9C3"/>
<path d="M46.9856 100.625C46.8211 100.588 46.71 100.493 46.5722 100.265C46.52 100.165 46.5674 100.116 46.6896 100.146C46.9324 100.272 47.0179 100.395 47.0683 100.544C47.0683 100.544 47.0134 100.598 46.9856 100.625Z" fill="#FEC0D3"/>
<path d="M36.4148 24.8079C36.4316 24.8966 36.3335 25.0339 36.1156 25.2157C36.0971 25.1256 36.1984 24.9911 36.4148 24.8079Z" fill="#FEA9C3"/>
<path d="M114.292 43.3627C114.262 43.2658 114.347 43.1329 114.54 42.9542C114.567 43.0478 114.487 43.1873 114.292 43.3627Z" fill="#FEAFC7"/>
<path d="M118.765 52.7838C118.7 52.7748 118.639 52.6475 118.656 52.4762C118.734 52.4321 118.769 52.6657 118.765 52.7838Z" fill="#FEA9C3"/>
<path d="M114.213 31.4173C114.376 31.4507 114.49 31.5415 114.634 31.7658C114.692 31.8622 114.635 31.9203 114.511 31.8898C114.271 31.757 114.191 31.6304 114.147 31.4795C114.147 31.4795 114.19 31.4378 114.213 31.4173Z" fill="#FEC9DA"/>
<path d="M123.78 61.5671C123.82 61.5653 123.883 61.6406 123.947 61.7158C123.899 61.692 123.852 61.6681 123.78 61.5671Z" fill="#FEA9C3"/>
<path d="M97.0652 29.0722C97.1528 29.1477 97.195 29.2235 97.2617 29.4285C97.128 29.534 97.0122 29.4481 96.9338 29.1857C96.9288 29.0712 97.0197 29.0725 97.0652 29.0722Z" fill="#FEFCFD"/>
<path d="M21.4471 51.9545C21.3759 51.8713 21.3213 51.7907 21.2666 51.7102C21.3162 51.7311 21.3657 51.752 21.437 51.8477C21.4586 51.9225 21.4637 51.9571 21.4471 51.9545Z" fill="#FED0DE"/>
<path d="M95.7998 27.1321C95.7845 27.2082 95.6548 27.2616 95.49 27.2283C95.5317 27.1308 95.6086 27.1201 95.7998 27.1321Z" fill="#FEA9C3"/>
<path d="M50.2176 25.6131C50.128 25.643 49.9996 25.5554 49.8284 25.3536C49.9166 25.3248 50.0478 25.4102 50.2176 25.6131Z" fill="#FEA9C3"/>
<path d="M49.7604 25.1366C49.6708 25.166 49.542 25.0781 49.3702 24.8755C49.4586 24.8469 49.5899 24.9331 49.7604 25.1366Z" fill="#FEA9C3"/>
<path d="M94.177 90.1817C93.2045 93.5431 90.9283 95.9445 87.9655 96.9857C82.0379 99.0688 75.9427 100.641 69.8878 102.311C69.0836 102.532 67.979 102.339 67.2378 101.913C62.2758 99.0601 57.2243 96.3301 52.5028 93.0835C48.9555 90.6444 46.9736 86.8655 46.6944 81.9372C46.1313 79.2143 45.6974 76.8144 45.2636 74.4145C46.2273 75.6133 47.1909 76.8121 48.2823 78.2628C48.574 78.8201 48.671 79.2908 48.9151 79.3987C49.5482 79.6785 50.2461 79.7985 51.135 80.0416C51.6023 80.0046 52.3909 79.9419 53.3553 79.8654C53.3696 79.5559 53.4015 78.866 53.4968 78.1495C53.5159 78.1386 53.4717 78.1542 53.2573 78.1665C52.4923 77.7144 51.8975 77.2656 51.4024 76.8921C50.5143 77.1745 49.6992 77.4337 48.8842 77.6929C48.4133 76.2189 47.9424 74.7448 47.4632 72.8718C47.7424 70.7438 48.0297 69.0148 48.3436 67.4476C48.566 68.038 48.7618 68.4667 48.9504 68.8798C49.5396 67.2498 50.0759 65.7661 50.7665 64.2459C51.9225 63.6271 52.9242 63.0448 53.9368 62.6355C53.5209 63.547 53.0202 64.2504 52.6807 65.0302C51.4503 67.8561 50.7501 70.6871 53.0544 73.5301C53.9631 74.2401 54.8161 74.8001 55.7606 75.4665C56.1129 75.6378 56.3738 75.7026 56.822 75.779C58.2947 75.3256 59.5801 74.8606 60.9357 74.3628C61.0989 74.2724 61.1551 74.1882 61.3251 74.0071C64.447 71.168 64.3672 67.828 63.341 64.2781C63.827 63.6556 64.2955 63.0449 64.3513 62.3956C64.4744 60.9632 64.3896 59.5112 64.3896 57.487C65.8144 60.1948 66.9169 62.2899 68.0485 64.5389C68.4018 65.1567 68.7258 65.6206 69.0842 66.1337C69.4082 65.38 69.6402 64.8401 69.8723 64.3003C70.2246 65.2237 70.5768 66.1472 71.0746 67.452C72.4307 66.4156 73.5932 65.5272 74.8442 64.3809C74.9326 64.1229 74.9222 63.8912 74.9222 63.8912C74.9222 63.8912 74.8907 63.8822 75.0608 63.8756C76.8578 62.0718 78.4849 60.2746 80.313 58.2553C80.2139 59.2855 80.1502 59.948 80.0865 60.6105C80.3141 60.6556 80.5417 60.7007 80.7694 60.7458C81.3937 58.2948 82.018 55.8439 82.6424 53.3929C82.6521 53.1849 82.6618 52.9769 82.7857 52.5318C82.9953 52.0391 83.0908 51.7836 83.3156 51.4569C84.066 51.1394 84.687 50.893 85.3363 50.8239C86.406 54.1896 87.4474 57.378 88.5039 60.718C88.7759 60.9118 89.2458 61.0276 89.2592 60.9855C89.9734 58.7345 90.6491 56.4702 91.4762 54.2797C91.9829 54.989 92.3423 55.6258 92.6973 56.4752C92.8561 58.9874 93.0192 61.2869 92.9986 63.5549C89.4488 62.2446 86.1302 61.5695 82.9314 64.3685C82.2021 64.6773 81.6251 64.9741 81.0234 65.2835C81.5086 65.9106 81.8702 66.3779 82.1463 66.986C80.0211 71.2135 80.216 74.3653 82.6784 76.9523C84.3132 79.5516 86.5157 78.4779 88.7657 78.1936C91.2425 78.2308 92.2333 76.6181 92.5429 74.6501C92.9637 71.9748 92.9377 69.2652 91.4631 66.8982C95.2498 68.2026 94.2723 71.6074 95.1688 74.4436C95.5639 72.9854 95.959 71.5272 96.5264 70.103C96.8272 70.7354 97.1065 71.3477 97.0574 71.9297C96.8692 74.1609 96.5754 76.3823 96.1988 78.7206C95.8563 79.719 95.6361 80.6042 95.4296 81.4996C95.4433 81.5097 95.4149 81.4914 95.2739 81.5639C94.7638 82.436 94.3948 83.2356 94.0258 84.0352C94.3543 84.2896 94.6827 84.544 95.0112 84.7985C95.3251 84.1896 95.639 83.5806 96.092 82.9671C96.4165 82.9644 96.6018 82.9663 96.7767 83.1441C96.4653 84.4845 96.1644 85.6491 95.8391 86.883C95.8146 86.9524 95.8038 87.0999 95.6547 87.1396C95.0176 87.8231 94.5294 88.4668 94.0488 89.1242C94.0564 89.1379 94.0486 89.1099 93.9623 89.151C93.9424 89.3285 94.0089 89.4649 94.1001 89.7465C94.1423 89.9884 94.1597 90.085 94.177 90.1817ZM63.9158 92.8639C64.3235 95.4305 66.0781 96.6563 68.2568 97.0382C71.3091 97.5732 74.4967 97.8439 76.0801 94.2022C76.458 92.4519 77.0076 90.714 77.1254 88.9449C77.1696 88.281 76.3336 87.1239 75.6865 86.9177C73.527 86.2295 71.2826 85.5731 69.0489 85.4808C67.3265 85.4096 64.8702 84.8077 64.049 87.0259C63.4532 88.6353 63.9105 90.6694 63.9158 92.8639ZM55.0122 80.1664C57.0142 80.244 55.9125 79.1429 56.0178 78.5001C55.7714 78.4075 55.5249 78.315 55.2785 78.2224C55.0974 78.8173 54.9162 79.4122 55.0122 80.1664Z" fill="#FEFCFD"/>
<path d="M96.7872 82.9682C96.6018 82.9663 96.4164 82.9644 95.9619 82.8677C95.6002 82.3457 95.5075 81.9185 95.4149 81.4914C95.4149 81.4914 95.4433 81.5097 95.5812 81.4292C95.9321 80.6049 96.1452 79.8611 96.4871 79.0025C98.1946 74.5163 97.7631 70.0434 97.579 65.1523C96.83 66.2901 96.3772 66.978 95.8944 67.5043C95.5506 66.5433 95.2367 65.7439 94.9436 64.7412C94.9717 63.9991 94.9792 63.4603 95.1421 62.8331C95.6511 60.5666 96.1269 58.3992 96.3054 56.2055C96.392 55.1421 97.6169 53.773 95.8829 52.7401C94.6807 51.8866 93.4954 51.202 92.2666 50.374C91.9298 50.031 91.6365 49.8315 91.2734 49.4548C90.9385 47.79 90.6734 46.3024 90.4083 44.8148C90.6376 44.6875 90.8669 44.5601 91.4261 44.3822C92.9687 44.3212 94.2445 44.5639 95.382 44.2538C99.0178 43.2627 102.046 44.7351 105.032 46.5189C106.128 47.1736 107.177 47.9151 108.247 48.617C108.247 48.617 108.229 48.6241 108.267 48.7196C108.387 48.9456 108.499 49.035 108.642 49.0836C108.725 49.0871 108.808 49.0906 109.017 49.0947C109.142 49.0954 109.143 49.0967 109.142 49.2554C109.143 49.6246 109.145 49.8351 109.126 50.2278C109.07 51.1659 108.961 51.9272 109.012 52.6769C109.341 57.5779 109.848 62.4715 110.005 67.3776C110.101 70.3836 109.676 73.4078 109.485 76.4238C111.072 70.7415 111.374 64.9985 110.642 59.1787C110.524 58.2344 110.846 57.2298 110.988 56.4414C111.458 59.6773 111.904 62.7249 112.347 65.9334C112.348 66.3088 112.352 66.5232 112.356 66.7377C112.501 68.4996 112.646 70.2615 112.791 72.2383C112.501 74.6054 112.325 76.7853 111.859 78.8954C111.692 79.6509 110.824 80.2377 110.016 81.2164C109.36 84.8967 108.59 89.2156 107.802 93.7205C107.78 94.1157 107.776 94.325 107.77 94.6911C107.691 94.8507 107.613 94.8534 107.418 94.8575C107.062 94.1202 106.822 93.3816 106.582 92.6429C106.218 93.1012 105.854 93.5594 105.485 94.1934C105.027 95.2126 104.572 96.0561 104.12 97.0711C102.455 98.8802 100.787 100.518 99.1096 102.321C98.0496 103.012 97.0248 103.607 95.9394 104.034C95.3876 104.251 94.7266 104.166 94.0923 104.062C97.4447 98.6805 101.323 87.9627 101.3 83.4108C100.585 84.0819 100.089 84.5471 99.4136 85.1811C98.7308 85.8074 98.2275 86.2649 97.5612 86.7505C96.8668 86.8858 96.3353 86.9928 95.8038 87.0999C95.8038 87.0999 95.8146 86.9524 95.9788 86.7921C97.4231 83.732 98.7032 80.8323 99.9832 77.9327C99.6685 77.7888 99.3538 77.6448 99.039 77.5009C98.2884 79.3234 97.5378 81.1458 96.7872 82.9682Z" fill="#FEC9DA"/>
<path d="M108.248 48.4363C107.177 47.9151 106.128 47.1736 105.032 46.5189C102.046 44.7351 99.0178 43.2627 95.382 44.2538C94.2445 44.5639 92.9687 44.3212 91.5465 44.3303C92.9512 43.2122 94.7239 42.2787 96.1466 40.9399C98.9918 38.2627 99.4666 35.2894 98.0133 31.5234C97.8747 31.1644 97.8144 30.7726 97.7233 30.2051C98.4039 30.6244 99.079 31.2346 99.9154 32.0178C100.145 32.3005 100.238 32.3778 100.356 32.4227C102.418 36.169 104.481 39.9153 106.654 43.7701C107.259 45.3377 107.754 46.7967 108.248 48.4363Z" fill="#FEFCFD"/>
<path d="M37.4084 48.9236C37.0366 49.5149 36.6851 49.9725 36.2125 50.5127C36.5263 48.994 36.9532 47.3901 37.4007 45.7925C37.5425 45.2865 37.7395 44.7973 38.0686 44.0774C38.8875 42.5855 39.549 41.3166 40.2106 40.0476C40.2106 40.0476 40.1893 40.0369 40.3088 40.0162C40.508 39.8528 40.5879 39.7102 40.6677 39.5676C40.6677 39.5676 40.6424 39.5648 40.7709 39.4974C41.133 38.9913 41.3666 38.5528 41.6638 38.0194C41.8357 37.7235 41.944 37.5223 42.1772 37.2238C42.6709 36.5142 43.0396 35.9018 43.4012 35.2798C43.3941 35.2701 43.3894 35.294 43.5111 35.2512C43.7452 35.0736 43.8577 34.9388 44.047 34.7629C44.2166 34.6434 44.275 34.5433 44.4105 34.3507C44.7481 34.1508 44.9742 34.0216 45.2003 33.8924C45.2805 37.4797 47.6819 39.0442 50.3744 40.3465C51.1466 40.72 51.9358 41.0554 52.6821 41.7116C47.8174 40.845 43.6013 42.6509 39.6214 45.5961C39.5389 45.279 39.4564 44.9619 39.3739 44.6448C38.9245 45.5536 38.475 46.4625 37.9526 47.6389C37.8797 47.9065 37.833 48.1329 37.833 48.1329C37.6982 48.3519 37.5634 48.5709 37.4084 48.9236Z" fill="#FEF9FB"/>
<path d="M68.0193 64.385C66.9169 62.2899 65.8144 60.1948 64.3896 57.487C64.3896 59.5112 64.4744 60.9632 64.3513 62.3956C64.2955 63.0449 63.827 63.6556 63.258 64.2069C62.9871 63.4286 63.0039 62.7272 63.0191 61.8322C62.1563 58.3997 61.2952 55.1609 60.434 51.9221C60.1286 51.919 59.8232 51.916 59.5178 51.9129C58.7165 53.3664 57.9153 54.8198 56.9857 56.1638C57.5416 54.0528 58.226 52.0512 58.9351 50.1155C58.9989 50.2049 59.0379 50.2285 59.0768 50.252C59.0211 50.1847 58.9654 50.1175 58.9098 49.8585C59.059 48.6856 59.208 47.7046 59.5317 46.7212C60.3245 46.9141 60.9343 47.2054 61.5641 47.2646C61.8813 47.2944 62.2349 46.9033 62.572 46.7026C63.4594 47.2468 64.3469 47.7911 65.2343 48.3354C65.1272 48.554 65.0201 48.7727 64.913 48.9913C64.2577 48.7432 63.6024 48.495 62.7279 48.1639C61.9079 51.623 61.5332 54.8364 63.3326 58.5316C63.8537 57.0243 64.2032 56.0133 64.5781 54.9289C65.6919 57.4027 66.7087 59.6607 67.9011 62.1053C68.0576 62.9895 68.0384 63.6872 68.0193 64.385Z" fill="#FEB6CC"/>
<path d="M52.5757 50.5393C52.7102 50.3341 52.8447 50.129 53.1093 49.7036C53.4679 49.0427 53.6964 48.6022 54.0396 48.1029C54.3642 47.894 54.5741 47.7437 54.9541 47.6493C55.306 48.0161 55.6542 48.333 55.6442 48.6371C55.5349 51.9515 55.3697 55.264 55.0421 58.5901C53.0168 59.5663 51.1691 60.5294 49.207 61.3838C50.2536 57.6965 51.4146 54.1179 52.5757 50.5393Z" fill="#FEFCFD"/>
<path d="M52.4097 50.5554C51.4146 54.1179 50.2536 57.6965 49.1332 61.5483C48.8882 63.643 48.6027 65.4644 48.3171 67.2859C48.0297 69.0148 47.7424 70.7438 47.4397 72.687C47.1431 72.4342 46.6425 71.9817 46.6128 71.4978C46.0436 62.2133 47.7976 53.3549 51.239 44.8235C51.3142 44.6371 51.5664 44.5285 51.898 44.3568C52.06 44.33 52.0615 44.3311 52.0615 44.3311C50.6187 49.3547 49.1758 54.3783 47.733 59.4019C47.9349 59.4782 48.1368 59.5544 48.3387 59.6306C49.1277 57.4472 49.8645 55.2408 50.7306 53.0913C51.094 52.1894 51.7311 51.4078 52.4097 50.5554Z" fill="#FEB6CC"/>
<path d="M82.4742 53.4105C82.018 55.8439 81.3937 58.2949 80.7693 60.7458C80.5417 60.7007 80.3141 60.6556 80.0865 60.6105C80.1502 59.948 80.2139 59.2856 80.313 58.2553C78.4849 60.2746 76.8578 62.0718 75.0742 63.8856C76.9757 59.4223 79.0339 54.9425 81.0921 50.4627C81.1617 50.4731 81.2314 50.4836 81.301 50.494C80.7283 52.4238 80.1557 54.3535 79.3967 56.9111C80.6522 55.408 81.4792 54.418 82.4742 53.4105Z" fill="#FEB6CC"/>
<path d="M90.2789 44.9476C90.6734 46.3024 90.9385 47.79 91.274 49.6434C91.3392 51.4086 91.334 52.8079 91.3289 54.2072C90.6491 56.4702 89.9734 58.7345 89.2592 60.9855C89.2458 61.0276 88.7759 60.9118 88.6567 60.6019C89.0822 58.5672 89.3229 56.7904 89.6675 55.0357C90.4705 50.9465 90.0151 50.3277 85.8173 49.9416C85.6445 49.5733 85.5226 49.3313 85.4008 49.0893C85.4755 49.0907 85.5502 49.0929 85.6249 49.0934C89.6405 49.1199 89.6405 49.1199 90.2789 44.9476Z" fill="#FEB1C9"/>
<path d="M43.3972 71.0304C42.6553 61.9298 41.9784 52.8356 45.495 44.1627C45.6897 44.193 45.8844 44.2234 46.079 44.2538C45.4893 46.4937 44.8498 48.7209 44.3191 50.976C42.7113 57.8092 43.3277 64.5727 44.7884 71.276C44.1854 71.1831 43.7913 71.1067 43.3972 71.0304Z" fill="#FEAFC7"/>
<path d="M43.4155 71.2198C43.7913 71.1067 44.1854 71.1831 44.6736 71.3861C44.9203 72.3548 45.0729 73.1966 45.2445 74.2265C45.6974 76.8144 46.1313 79.2143 46.572 81.8008C44.948 83.3931 44.2355 80.8331 42.7081 81.0745C42.5371 79.8821 42.5371 78.6692 42.5371 77.4563C42.7376 77.3947 42.938 77.3331 43.1385 77.2715C43.6869 78.1072 44.2354 78.9428 44.7839 79.7785C44.899 79.7391 45.0142 79.6996 45.1294 79.6602C44.5642 76.9098 43.999 74.1595 43.4155 71.2198Z" fill="#FEA3C0"/>
<path d="M54.784 47.5934C54.5741 47.7437 54.3642 47.894 53.9169 48.0962C53.5978 48.1465 53.5161 48.1448 53.4343 48.1431C53.3332 47.7236 53.0191 47.0666 53.1657 46.9233C54.0862 46.024 55.1092 45.239 56.0751 45.0676C58.1535 45.3134 60.2319 45.5593 62.5329 45.8315C62.5178 45.6109 62.5436 45.9872 62.5707 46.533C62.2349 46.9033 61.8813 47.2944 61.5641 47.2646C60.9343 47.2054 60.3245 46.9142 59.3811 46.6492C57.6318 46.9175 56.2079 47.2555 54.784 47.5934Z" fill="#FEAFC7"/>
<path d="M64.3912 26.2134C62.8248 27.3153 61.2584 28.4172 59.5475 29.362C59.5431 28.5205 59.6832 27.8361 59.8234 27.1517C60.0441 26.8778 60.2649 26.6039 60.7441 26.2642C61.219 26.0414 61.4355 25.8844 61.652 25.7275C62.0065 25.4217 62.3611 25.116 63.0496 24.7989C64.1756 25.1063 64.9678 25.4252 65.7599 25.744C65.7599 25.744 65.7597 25.7397 65.6071 25.7399C65.1001 25.8978 64.7456 26.0556 64.3912 26.2134Z" fill="#FEC0D3"/>
<path d="M53.4334 78.1761C53.4015 78.866 53.3696 79.5559 53.3553 79.8654C52.3909 79.9419 51.6023 80.0046 51.135 80.0416C50.2461 79.7985 49.5482 79.6785 48.9151 79.3987C48.671 79.2908 48.574 78.8201 48.4068 78.3535C48.5261 78.0964 48.6487 78.0005 48.8277 77.7988C49.6992 77.4337 50.5143 77.1745 51.4024 76.8921C51.8975 77.2656 52.4923 77.7144 53.2586 78.1683C53.43 78.1733 53.4334 78.1761 53.4334 78.1761Z" fill="#FEF4F7"/>
<path d="M85.3983 24.7842C87.5571 25.7573 88.9064 27.4998 89.9239 29.5575C89.7862 29.7676 89.6484 29.9776 89.5106 30.1877C88.2599 29.4705 87.0091 28.7533 86.0802 28.2206C85.8161 26.9741 85.6193 26.045 85.4096 24.9513C85.3966 24.7867 85.3983 24.7842 85.3983 24.7842Z" fill="#FEAFC7"/>
<path d="M85.3354 48.9319C85.5226 49.3313 85.6444 49.5733 85.7491 50.0608C85.5906 50.4198 85.4493 50.5332 85.308 50.6466C84.687 50.893 84.066 51.1394 83.1834 51.4402C82.8335 51.4898 82.7452 51.4849 82.6569 51.48C82.9105 49.672 83.164 47.864 83.4176 46.056C83.6358 45.9998 83.8539 45.9436 84.0721 45.8873C84.4714 46.8497 84.8706 47.8121 85.3354 48.9319Z" fill="#FEA3C0"/>
<path d="M65.9289 25.7244C64.9678 25.4252 64.1756 25.1063 63.1944 24.7872C64.503 24.1581 65.9664 23.3876 67.5173 22.9778C68.0504 22.837 68.802 23.5971 69.9163 24.1929C68.1696 24.8845 67.1338 25.2946 65.9289 25.7244Z" fill="#FEAFC7"/>
<path d="M68.0485 64.5389C68.0385 63.6872 68.0576 62.9895 68.0628 62.133C68.0488 61.3529 68.0488 60.7316 68.0488 60.1103C68.1843 60.0756 68.3198 60.0409 68.4554 60.0061C68.9247 61.307 69.3939 62.6079 69.8677 64.1045C69.6402 64.8401 69.4082 65.38 69.0842 66.1337C68.7258 65.6206 68.4018 65.1567 68.0485 64.5389Z" fill="#FEA9C3"/>
<path d="M59.6866 27.2266C59.6832 27.8361 59.5431 28.5205 59.3872 29.3802C58.5019 30.5281 57.6323 31.5008 56.7626 32.4734C56.5157 32.2506 56.2688 32.0278 56.0219 31.805C57.1979 30.3038 58.3739 28.8027 59.6866 27.2266Z" fill="#FEAFC7"/>
<path d="M45.261 33.7419C44.9742 34.0216 44.748 34.1509 44.4069 34.1727C44.5981 33.3558 44.9043 32.6462 45.3469 31.8684C46.0041 31.0584 46.5248 30.3168 47.0455 29.5751C47.3861 29.5666 47.7267 29.558 48.2376 29.5508C47.3792 30.8984 46.3504 32.2449 45.261 33.7419Z" fill="#FEA3C0"/>
<path d="M83.5313 24.108C82.5532 24.6959 81.6362 25.1486 80.7191 25.6013C80.6151 25.3846 80.5111 25.1679 80.4071 24.9512C81.0562 23.7785 82.2315 23.6853 83.5313 24.108Z" fill="#FEAFC7"/>
<path d="M62.5649 43.8524C62.6618 43.1556 62.7588 42.4587 62.8557 41.7618C63.0391 41.7961 63.2224 41.8303 63.4057 41.8646C63.2868 42.4174 63.1679 42.9703 62.92 43.688C62.791 43.8529 62.5649 43.8524 62.5649 43.8524Z" fill="#FEAFC7"/>
<path d="M53.3098 48.2476C53.5161 48.1448 53.5978 48.1465 53.8022 48.1549C53.6964 48.6022 53.4679 49.0428 53.1172 49.574C53.0585 49.227 53.1219 48.7895 53.3098 48.2476Z" fill="#FEB6CC"/>
<path d="M82.5522 51.5518C82.7452 51.4849 82.8335 51.4898 83.054 51.5113C83.0908 51.7836 82.9953 52.0391 82.7919 52.3757C82.6051 52.1791 82.5263 51.9013 82.5522 51.5518Z" fill="#FEB6CC"/>
<path d="M64.5456 26.2137C64.7456 26.0556 65.1001 25.8979 65.6093 25.7398C65.4094 25.8977 65.0547 26.0558 64.5456 26.2137Z" fill="#FEAFC7"/>
<path d="M38.8844 84.7345C38.8291 85.2111 38.7304 85.4872 38.4912 85.7886C38.4153 85.3375 38.4801 84.861 38.6744 84.2546C38.8163 84.2611 38.8287 84.3975 38.8844 84.7345Z" fill="#FFFEFF"/>
<path d="M61.5149 25.7414C61.4355 25.8844 61.219 26.0414 60.8634 26.2078C60.9422 26.0633 61.16 25.9093 61.5149 25.7414Z" fill="#FEAFC7"/>
<path d="M52.0592 44.3291C52.1147 44.1223 52.1711 43.9163 52.2274 43.7103C52.2349 43.8781 52.2423 44.0459 52.1556 44.2724C52.0615 44.3311 52.06 44.33 52.0592 44.3291Z" fill="#FEB6CC"/>
<path d="M85.3953 24.7881C85.1956 24.7303 84.9972 24.6711 84.7988 24.6119C84.961 24.6034 85.1231 24.595 85.3418 24.6854C85.3983 24.7842 85.3966 24.7867 85.3953 24.7881Z" fill="#FEAFC7"/>
<path d="M48.5435 29.5522C48.6189 29.3975 48.8329 29.2405 49.1851 29.0789C49.1096 29.2328 48.8958 29.3913 48.5435 29.5522Z" fill="#FEA3C0"/>
<path d="M46.3742 43.1243C46.3592 43.0985 46.3891 43.1501 46.3742 43.1243V43.1243Z" fill="#FEAFC7"/>
<path d="M37.9203 48.1063C37.833 48.1329 37.8797 47.9065 37.9001 47.7927C37.9911 47.7688 38.0667 47.8551 38.1255 47.9525C38.1327 47.9644 38.0491 48.0359 37.9203 48.1063Z" fill="#FEB6CC"/>
<path d="M62.6041 43.9338C62.5649 43.8524 62.791 43.8529 62.904 43.8523C62.8925 43.9062 62.7679 43.9607 62.6041 43.9338Z" fill="#FEB6CC"/>
<path d="M97.3074 29.6535C97.3952 29.6254 97.5245 29.7141 97.6975 29.9178C97.6104 29.9453 97.4797 29.8579 97.3074 29.6535Z" fill="#FEFCFD"/>
<path d="M74.8396 63.924C74.9222 63.8912 74.9326 64.1229 74.9141 64.2373C74.8155 64.2696 74.7298 64.1921 74.6615 64.1004C74.6513 64.0867 74.7232 64.0064 74.8396 63.924Z" fill="#FEB6CC"/>
<path d="M49.4219 29.032C49.4009 28.9501 49.4847 28.8204 49.6741 28.6438C49.6953 28.726 49.611 28.8551 49.4219 29.032Z" fill="#FEA3C0"/>
<path d="M59.6444 119.17C59.6534 118.664 59.6624 118.158 59.8137 117.388C61.3117 115.562 62.4369 113.633 64.0709 112.514C67.5239 110.148 71.2308 108.181 74.8674 106.116C75.3477 105.843 76.0261 105.95 76.6128 105.881C76.6434 106.836 76.674 107.791 76.5919 109.051C76.4005 109.931 76.3219 110.506 76.2075 111.344C76.7089 110.931 76.9822 110.705 77.2554 110.48C79.2707 112.967 77.4362 115.071 76.5192 117.159C75.6401 119.161 74.3236 120.949 73.3788 122.925C72.4704 124.824 71.2545 124.808 69.9071 123.724C67.2747 121.606 64.5193 121.475 61.3805 122.703C60.665 121.425 60.1547 120.298 59.6444 119.17Z" fill="#FEFCFD"/>
<path d="M76.6736 105.698C76.0261 105.95 75.3477 105.843 74.8674 106.116C71.2308 108.181 67.5239 110.148 64.0709 112.514C62.4369 113.633 61.3117 115.562 59.7991 117.198C58.2914 114.76 58.8274 110.644 60.4561 108.498C61.2786 107.414 61.5799 105.899 62.2297 104.301C65.9431 107.574 69.4843 104.989 73.1169 103.682C74.3136 103.251 75.5171 102.841 77.234 102.242C77.0213 103.635 76.8779 104.575 76.6736 105.698Z" fill="#FEC7D8"/>
<path d="M48.1283 102.056C47.9828 101.762 47.9708 101.552 47.9624 101.184C48.8724 101.389 49.7788 101.751 50.9103 102.2C51.2349 102.26 51.3343 102.233 51.4336 102.206C51.3638 102.115 51.294 102.024 51.2242 101.933C51.2083 101.573 51.1924 101.213 51.1486 100.221C52.4008 101.74 53.2825 102.809 54.3548 104.111C54.9311 105.108 55.3168 105.872 55.7026 106.637C54.1483 107.278 52.594 107.92 50.8679 108.533C49.8846 106.383 49.0732 104.262 48.1283 102.056Z" fill="#FEF9FB"/>
<path d="M97.7241 86.7224C98.2275 86.2649 98.7308 85.8074 99.3807 85.3382C99.4547 86.2794 99.6937 87.4516 99.2479 88.1416C98.166 89.8162 96.6179 90.8724 94.3374 90.1647C94.1597 90.085 94.1423 89.9884 94.0963 89.6235C94.0612 89.2735 94.0549 89.1917 94.0486 89.1099C94.0486 89.1099 94.0564 89.1379 94.2231 89.1324C95.5013 88.3253 96.6127 87.5239 97.7241 86.7224Z" fill="#FEC0D3"/>
<path d="M55.8617 106.63C55.3168 105.872 54.9311 105.108 54.4702 104.231C54.9372 103.605 55.4793 103.091 56.3045 102.309C56.9402 103.05 57.5933 103.811 58.2465 104.572C57.5046 105.256 56.7628 105.94 55.8617 106.63Z" fill="#FEF4F7"/>
<path d="M69.3467 127.824C67.1601 125.747 64.9251 123.984 61.8403 127.107C62.4871 125.242 63.5266 124.45 65.3882 124.583C67.1248 124.707 68.8704 125.171 69.4593 127.517C69.431 127.733 69.3467 127.824 69.3467 127.824Z" fill="#FED0DE"/>
<path d="M59.5577 119.308C60.1547 120.298 60.665 121.425 61.2101 122.718C59.1119 122.604 59.6335 120.832 59.5577 119.308Z" fill="#FEC7D8"/>
<path d="M77.236 110.33C76.9822 110.705 76.7089 110.931 76.2075 111.344C76.3219 110.506 76.4005 109.931 76.5976 109.257C76.8829 109.498 77.0497 109.84 77.236 110.33Z" fill="#FEC7D8"/>
<path d="M47.1841 100.603C47.0179 100.395 46.9325 100.272 46.7144 100.123C46.6115 99.8705 46.6061 99.671 46.5902 99.3222C47.0783 99.6906 47.577 100.208 48.0253 100.885C47.7499 100.916 47.5249 100.789 47.1841 100.603Z" fill="#FEF9FB"/>
<path d="M69.4747 127.689C69.5877 127.742 69.6571 127.84 69.7265 127.938C69.6325 127.954 69.5384 127.969 69.3955 127.904C69.3467 127.824 69.431 127.733 69.4747 127.689Z" fill="#FED0DE"/>
<path d="M87.1859 103.87C87.2352 103.71 87.3481 103.618 87.4611 103.526C87.491 103.657 87.521 103.789 87.4646 103.996C87.3782 104.073 87.2496 103.938 87.1859 103.87Z" fill="#FFFEFF"/>
<path d="M22.0579 96.434C22.6652 95.6211 23.1866 94.959 23.7081 94.2968C23.8835 94.4315 24.0589 94.5661 24.2344 94.7008C22.2362 98.5336 20.238 102.367 18.2398 106.199C18.0138 106.089 17.7878 105.978 17.5618 105.867C19.0319 102.773 20.502 99.6789 22.0579 96.434Z" fill="#FED0DE"/>
<path d="M38.216 85.8731C38.3098 86.3701 38.2531 86.9567 38.0471 87.6328C37.9536 87.1357 38.0095 86.5492 38.216 85.8731Z" fill="#FFFEFF"/>
<path d="M40.0667 40.1111C39.549 41.3166 38.8875 42.5855 38.069 43.8968C37.6645 43.3632 37.4169 42.7873 37.0759 42.0766C37.9626 41.3528 38.9427 40.7636 40.0667 40.1111Z" fill="#FEA3C0"/>
<path d="M36.5748 41.5733C36.6522 41.5534 36.7773 41.6432 36.9494 41.8432C36.8717 41.8633 36.747 41.7732 36.5748 41.5733Z" fill="#FEA3C0"/>
<path d="M42.0523 37.3211C41.944 37.5223 41.8357 37.7235 41.5057 38.025C41.0743 38.1279 40.8645 38.1304 40.6547 38.1329C40.6061 36.1424 40.4453 34.1456 40.5465 32.1634C40.6197 30.731 41.0412 29.318 41.7924 27.9047C41.9311 29.0041 42.0698 30.1036 42.339 31.3313C42.4696 31.4596 42.4683 31.4561 42.4457 31.6473C42.2866 33.1405 42.1502 34.4425 42.0139 35.9404C42.0267 36.5313 42.0395 36.9262 42.0523 37.3211Z" fill="#FEB1C9"/>
<path d="M46.8573 29.5677C46.5248 30.3168 46.0041 31.0584 45.168 31.8679C44.0578 31.7759 43.2631 31.616 42.4683 31.456C42.4683 31.456 42.4696 31.4596 42.471 31.4607C43.8712 30.828 45.2701 30.1942 46.8573 29.5677Z" fill="#FEAFC7"/>
<path d="M41.5914 25.5013C41.7538 25.6178 41.8977 25.8585 42.0417 26.0993C41.9412 26.1481 41.8408 26.197 41.7403 26.2458C41.6845 26.0391 41.6287 25.8324 41.5914 25.5013Z" fill="#FEB1C9"/>
<path d="M40.65 38.3147C40.8645 38.1304 41.0743 38.1279 41.4422 38.1198C41.3666 38.5528 41.133 38.9914 40.7774 39.5088C40.6521 39.2239 40.6487 38.8602 40.65 38.3147Z" fill="#FEA3C0"/>
<path d="M40.558 39.6126C40.5878 39.7102 40.508 39.8529 40.3112 40.0283C40.2789 39.9266 40.3636 39.7921 40.558 39.6126Z" fill="#FEA3C0"/>
<path d="M112.35 65.7725C111.904 62.7249 111.458 59.6773 110.982 56.2993C110.811 55.7436 110.67 55.5183 110.523 55.1311C110.365 54.5969 110.212 54.2247 110.055 53.661C109.902 52.3295 109.753 51.1894 109.602 50.0495C109.6 50.0497 109.599 50.0515 109.599 50.0515C111.701 54.5771 112.836 59.3385 112.792 64.7425C112.637 65.3249 112.494 65.5487 112.35 65.7725Z" fill="#FEA9C3"/>
<path d="M112.347 65.9334C112.494 65.5487 112.637 65.3249 112.791 64.9593C112.952 65.3403 113.101 65.863 113.25 66.5603C113.05 66.7348 112.852 66.7349 112.505 66.7363C112.352 66.5232 112.348 66.3088 112.347 65.9334Z" fill="#FEAFC7"/>
<path d="M109.147 50.0456C109.145 49.8351 109.143 49.6246 109.143 49.2562C109.29 49.3208 109.436 49.5432 109.591 49.9086C109.599 50.0515 109.6 50.0497 109.488 50.0494C109.375 50.049 109.147 50.0456 109.147 50.0456Z" fill="#FEAFC7"/>
<path d="M114.014 31.404C114.191 31.6304 114.271 31.757 114.481 31.9175C115.204 34.5147 113.05 34.7659 111.587 35.7365C111.838 34.0273 112.252 32.3008 112.7 30.4348C112.991 30.6544 113.436 30.9915 114.014 31.404Z" fill="#FEF4F7"/>
<path d="M110.515 35.9102C110.725 35.7457 110.927 35.7403 111.28 35.7408C111.203 36.0297 110.976 36.3126 110.622 36.6511C110.5 36.4943 110.504 36.2818 110.515 35.9102Z" fill="#FEF4F7"/>
<path d="M100.544 32.4181C100.238 32.3778 100.145 32.3005 100.041 32.1047C100.136 30.8929 100.002 28.938 100.445 28.7832C102.503 28.0639 104.716 27.8013 106.889 27.5047C107.126 27.4724 107.7 28.262 107.72 28.6907C107.811 30.6353 107.76 32.5872 107.76 34.8055C105.22 33.9409 102.977 33.1772 100.544 32.4181Z" fill="#FEC9DA"/>
<path d="M104.149 36.7474C104.661 36.3282 105.469 35.6843 105.758 35.8792C106.406 36.3158 107.015 37.1041 107.227 37.873C107.425 38.5963 107.093 39.4785 106.477 40.6973C105.721 39.4327 104.965 38.168 104.149 36.7474Z" fill="#FEC7D8"/>
<path d="M32.5612 75.6519C31.9831 74.7783 31.5331 73.7843 31.0647 72.6244C31.1783 71.8067 31.3103 71.1547 31.4423 70.5028C31.6764 70.4828 31.9106 70.4628 32.1448 70.4428C32.3263 72.139 32.5078 73.8352 32.5612 75.6519Z" fill="#FEC7D8"/>
<path d="M29.6896 67.9408C28.7687 66.0455 27.8837 63.967 26.9909 61.7178C27.3681 61.027 27.7531 60.5068 28.2091 59.8908C28.7185 60.1825 29.314 60.5234 30.0284 60.9353C30.0067 63.2567 29.8661 65.5071 29.6896 67.9408Z" fill="#FEF4F7"/>
<path d="M108.61 48.9731C108.499 49.0351 108.387 48.9456 108.266 48.7096C108.388 48.6273 108.504 48.7135 108.61 48.9731Z" fill="#FEFCFD"/>
<path d="M75.8126 94.4183C74.4967 97.8439 71.3091 97.5732 68.2568 97.0382C66.0781 96.6563 64.3235 95.4305 64.0433 92.5563C64.4773 90.1575 64.078 87.5618 67.1318 87.326C68.6369 87.2098 70.1902 87.0882 71.6631 87.3408C75.1349 87.9363 76.3572 89.8687 75.8266 93.4698C75.781 93.7793 75.8154 94.1018 75.8126 94.4183Z" fill="#FEC7D8"/>
<path d="M63.0207 62.0259C63.0039 62.7272 62.9871 63.4286 63.0532 64.2012C64.3672 67.828 64.447 71.168 61.3279 73.7818C61.2058 72.7567 61.2315 71.8868 61.3731 70.8964C61.7033 67.9726 59.4609 66.0698 56.6518 66.6713C53.7466 67.2934 52.7403 68.6359 53.3952 71.2179C53.3915 72.0743 53.3848 72.7329 53.2834 73.3818C53.1888 73.3719 52.9987 73.3801 52.9987 73.3801C50.7501 70.6871 51.4503 67.8561 52.6806 65.0302C53.0202 64.2504 53.5209 63.547 53.9261 62.6275C53.9045 62.4464 53.8911 62.4702 54.0406 62.5149C54.3957 62.5322 54.6012 62.5046 54.8012 62.4606C54.7956 62.4441 54.7643 62.4565 54.7765 62.6511C55.2552 63.7913 55.6684 65.4833 56.1998 65.5248C57.2614 65.6077 58.497 64.9579 59.4598 64.2934C60.64 63.479 60.031 62.4112 59.5426 61.4903C60.0614 61.4938 60.4074 61.4971 60.7471 61.4964C60.7408 61.4925 60.7286 61.4841 60.7774 61.6093C61.0496 61.8609 61.2731 61.9873 61.4965 62.1138C61.5483 61.9052 61.6 61.6967 61.7087 61.4271C61.7657 61.3661 61.8796 61.2441 61.992 61.3221C62.4099 61.6087 62.7153 61.8173 63.0207 62.0259Z" fill="#FE7FA6"/>
<path d="M94.9229 64.9445C95.2368 65.7439 95.5506 66.5433 95.886 67.6913C96.0564 68.7162 96.2053 69.3926 96.3542 70.069C95.9591 71.5272 95.5639 72.9854 95.1688 74.4436C94.2723 71.6074 95.2498 68.2026 91.3926 66.8287C89.9569 66.3124 88.801 65.8456 87.5021 65.2794C85.9341 64.9055 84.5089 64.631 83.0837 64.3564C86.1302 61.5695 89.4488 62.2446 93.0659 63.6744C93.8523 64.1986 94.3876 64.5715 94.9229 64.9445Z" fill="#FE7FA6"/>
<path d="M87.645 65.3788C88.8009 65.8456 89.9569 66.3124 91.1833 66.8486C92.9377 69.2652 92.9637 71.9748 92.5429 74.6501C92.2333 76.6181 91.2425 78.2308 88.8288 78.0391C90.171 76.58 90.6655 74.9226 90.3686 72.8023C89.6757 71.0525 88.6744 69.9166 86.8218 69.8192C86.787 69.1394 86.7698 68.6427 86.8219 67.9971C87.1424 67.0251 87.3937 66.2019 87.645 65.3788Z" fill="#FE79A2"/>
<path d="M94.9436 64.7412C94.3876 64.5716 93.8523 64.1986 93.2497 63.7061C93.0192 61.287 92.8561 58.9874 92.7447 56.3145C92.6344 54.1333 92.4723 52.3253 92.3102 50.5174C93.4954 51.202 94.6807 51.8866 95.883 52.9497C95.5957 56.526 95.2912 59.7237 94.9867 62.9215C94.9792 63.4603 94.9717 63.9991 94.9436 64.7412Z" fill="#FEC0D3"/>
<path d="M75.9464 94.3102C75.8154 94.1018 75.781 93.7794 75.8266 93.4698C76.3572 89.8687 75.1349 87.9363 71.6631 87.3409C70.1902 87.0883 68.6369 87.2098 67.1318 87.326C64.078 87.5618 64.4773 90.1575 64.0345 92.3814C63.9105 90.6694 63.4532 88.6353 64.049 87.0259C64.8702 84.8077 67.3265 85.4097 69.0489 85.4808C71.2826 85.5732 73.527 86.2296 75.6865 86.9177C76.3336 87.1239 77.1696 88.281 77.1254 88.9449C77.0075 90.714 76.458 92.4519 75.9464 94.3102Z" fill="#FEB1C9"/>
<path d="M48.3436 67.4476C48.6027 65.4644 48.8882 63.643 49.2475 61.657C51.1691 60.5294 53.0168 59.5664 55.1564 58.6369C55.529 58.6837 55.6096 58.6968 55.7714 58.8124C56.2493 58.8354 56.646 58.7559 57.2101 58.7042C58.8783 59.5694 60.3789 60.4068 61.8796 61.2442C61.8796 61.2442 61.7657 61.3661 61.5548 61.4231C61.1389 61.4814 60.9337 61.4828 60.7286 61.4842C60.7286 61.4842 60.7408 61.4925 60.6426 61.345C58.2066 61.0491 55.7987 60.497 53.5602 60.9205C52.4204 61.1361 51.5851 63.1057 50.6122 64.2825C50.0759 65.7661 49.5396 67.2498 48.9504 68.8798C48.7618 68.4667 48.566 68.038 48.3436 67.4476Z" fill="#FE7FA6"/>
<path d="M85.3363 50.8239C85.4493 50.5332 85.5906 50.4198 85.8001 50.1871C90.0151 50.3277 90.4705 50.9465 89.6675 55.0357C89.3229 56.7904 89.0822 58.5672 88.6416 60.4502C87.4474 57.378 86.406 54.1896 85.3363 50.8239Z" fill="#FEC7D8"/>
<path d="M90.3627 72.9733C90.6656 74.9226 90.171 76.58 88.6491 78.0388C86.5157 78.4779 84.3132 79.5516 82.6739 76.7381C82.6382 75.3668 82.6274 74.3752 82.7338 73.3517C83.2144 73.3602 83.5778 73.4004 83.9828 73.6071C84.774 74.4141 85.8436 75.7497 86.2133 75.5643C87.315 75.0121 88.1419 73.8625 89.2375 72.9414C89.7202 72.9487 90.0414 72.961 90.3627 72.9733Z" fill="#FEC7D8"/>
<path d="M53.3781 73.3916C53.3848 72.7329 53.3915 72.0743 53.5389 71.1585C54.213 70.6247 54.7464 70.3479 55.2937 70.241C56.2859 71.1903 57.2644 71.9697 58.2429 72.7492C58.7681 72.0151 59.2934 71.281 59.9695 70.5615C60.4993 70.7231 60.8782 70.87 61.2572 71.0169C61.2315 71.8868 61.2058 72.7568 61.1774 73.852C61.1551 74.1882 61.0989 74.2724 60.7484 74.3504C59.6262 74.3858 58.7213 74.2447 57.9119 74.473C57.4111 74.6142 57.0555 75.3168 56.6347 75.7674C56.3738 75.7026 56.1129 75.6378 55.8566 75.3737C55.0334 74.5801 54.2058 73.9859 53.3781 73.3916Z" fill="#FEC7D8"/>
<path d="M87.5021 65.2794C87.3937 66.2019 87.1424 67.0251 86.6964 68.0689C86.1235 68.5958 85.7453 68.9021 85.1964 69.1859C84.0943 68.3907 83.1631 67.6179 82.2318 66.8452C81.8702 66.3779 81.5086 65.9105 81.0234 65.2835C81.6251 64.9741 82.2021 64.6773 82.9314 64.3685C84.5089 64.631 85.934 64.9055 87.5021 65.2794Z" fill="#FEF4F7"/>
<path d="M82.1463 66.9861C83.1631 67.6179 84.0943 68.3907 85.2062 69.2835C85.3868 69.4035 85.4056 69.5994 85.3144 69.7314C83.8515 70.631 82.3266 71.2751 82.6167 73.3835C82.6274 74.3752 82.6382 75.3668 82.6536 76.5726C80.216 74.3653 80.0211 71.2135 82.1463 66.9861Z" fill="#FE7FA6"/>
<path d="M96.5264 70.103C96.2053 69.3926 96.0564 68.7162 95.916 67.8528C96.3772 66.978 96.83 66.2901 97.579 65.1523C97.7631 70.0434 98.1946 74.5163 96.4832 78.8746C96.3407 78.7769 96.3309 78.6922 96.321 78.6074C96.5754 76.3823 96.8691 74.1609 97.0574 71.9297C97.1065 71.3477 96.8272 70.7354 96.5264 70.103Z" fill="#FEA9C3"/>
<path d="M50.7665 64.246C51.5851 63.1057 52.4204 61.1361 53.5602 60.9205C55.7987 60.497 58.2066 61.0491 60.6489 61.349C60.4074 61.4971 60.0614 61.4938 59.3517 61.4942C57.58 61.8174 56.1722 62.1369 54.7643 62.4565C54.7643 62.4565 54.7956 62.4441 54.7375 62.3451C54.4166 62.3208 54.1538 62.3955 53.8911 62.4702C53.8911 62.4702 53.9046 62.4464 53.9153 62.4544C52.9242 63.0448 51.9225 63.6271 50.7665 64.246Z" fill="#FEC7D8"/>
<path d="M96.7766 83.1441C97.5378 81.1458 98.2884 79.3234 99.039 77.5009C99.3538 77.6449 99.6685 77.7888 99.9832 77.9327C98.7032 80.8324 97.4231 83.732 96.0033 86.7227C96.1644 85.6491 96.4653 84.4846 96.7766 83.1441Z" fill="#FEA3C0"/>
<path d="M92.2666 50.374C92.4723 52.3253 92.6344 54.1332 92.7491 56.1019C92.3423 55.6258 91.9829 54.989 91.4762 54.2797C91.334 52.8079 91.3392 51.4086 91.3438 49.8206C91.6365 49.8314 91.9298 50.031 92.2666 50.374Z" fill="#FE7FA6"/>
<path d="M97.5612 86.7505C96.6127 87.5239 95.5013 88.3253 94.2156 89.1187C94.5294 88.4668 95.0176 87.8231 95.6547 87.1396C96.3353 86.9928 96.8668 86.8858 97.5612 86.7505Z" fill="#FEAFC7"/>
<path d="M56.822 75.779C57.0555 75.3168 57.411 74.6142 57.9119 74.4729C58.7213 74.2447 59.6262 74.3858 60.6781 74.3833C59.5801 74.8606 58.2947 75.3256 56.822 75.779Z" fill="#FEB6CC"/>
<path d="M54.8736 80.0868C54.9162 79.4122 55.0973 78.8173 55.2785 78.2224C55.5249 78.315 55.7713 78.4076 56.0177 78.5001C55.9124 79.1429 57.0141 80.244 54.8736 80.0868Z" fill="#FEF4F7"/>
<path d="M95.2739 81.5639C95.5075 81.9185 95.6002 82.3457 95.8229 82.8723C95.639 83.5806 95.3251 84.1896 95.0112 84.7985C94.6827 84.544 94.3543 84.2896 94.0258 84.0352C94.3948 83.2356 94.7638 82.436 95.2739 81.5639Z" fill="#FEC0D3"/>
<path d="M53.2834 73.3818C54.2058 73.9859 55.0334 74.5801 55.7651 75.2672C54.8161 74.8001 53.9631 74.2401 53.0544 73.5301C52.9987 73.3801 53.1888 73.372 53.2834 73.3818Z" fill="#FEB6CC"/>
<path d="M96.1988 78.7206C96.3309 78.6922 96.3407 78.7769 96.3544 78.9895C96.1452 79.8611 95.9321 80.6049 95.5675 81.4191C95.6361 80.6042 95.8563 79.719 96.1988 78.7206Z" fill="#FEC0D3"/>
<path d="M53.4287 78.1703C53.4713 78.1538 53.5152 78.139 53.4963 78.1493C53.4334 78.1746 53.43 78.172 53.4287 78.1703Z" fill="#FEF4F7"/>
<path d="M93.8272 85.0424C93.7961 85.0628 93.8583 85.022 93.8272 85.0424V85.0424Z" fill="#FEC0D3"/>
<path d="M93.9623 89.151C94.0542 89.1917 94.0605 89.2735 94.0706 89.4783C94.0085 89.4649 93.9426 89.3285 93.9623 89.151Z" fill="#FEAFC7"/>
<path d="M109.126 50.2278C109.147 50.0456 109.375 50.049 109.489 50.0492C109.753 51.1894 109.902 52.3295 110.056 53.8244C110.216 54.5505 110.372 54.9217 110.528 55.293C110.67 55.5183 110.811 55.7436 110.958 56.1111C110.846 57.2298 110.524 58.2344 110.642 59.1787C111.374 64.9985 111.072 70.7415 109.485 76.4238C109.676 73.4078 110.101 70.3836 110.005 67.3776C109.848 62.4715 109.341 57.5779 109.012 52.6769C108.961 51.9272 109.07 51.1659 109.126 50.2278Z" fill="#FEC0D3"/>
<path d="M95.1421 62.8331C95.2912 59.7237 95.5957 56.5259 95.9001 53.1187C97.6169 53.773 96.392 55.1421 96.3054 56.2055C96.1269 58.3992 95.6511 60.5666 95.1421 62.8331Z" fill="#FEB1C9"/>
<path d="M42.4457 31.6473C43.2631 31.616 44.0578 31.7759 45.0315 31.9362C44.9043 32.6462 44.5981 33.3558 44.2955 34.2433C44.275 34.5433 44.2166 34.6435 43.9169 34.7975C43.6032 35.0136 43.4963 35.1538 43.3894 35.294C43.3894 35.294 43.3941 35.2701 43.2526 35.2804C42.7453 35.4419 42.3796 35.5932 42.0138 35.7445C42.1502 34.4425 42.2866 33.1405 42.4457 31.6473Z" fill="#FEC7D8"/>
<path d="M42.0139 35.9404C42.3796 35.5932 42.7453 35.4419 43.2597 35.29C43.0396 35.9018 42.6709 36.5142 42.1772 37.2238C42.0395 36.9262 42.0267 36.5313 42.0139 35.9404Z" fill="#FEA3C0"/>
<path d="M43.5111 35.2512C43.4963 35.1538 43.6032 35.0136 43.8401 34.8387C43.8577 34.9388 43.7452 35.0736 43.5111 35.2512Z" fill="#FEA3C0"/>
<path d="M61.992 61.3221C60.3789 60.4068 58.8783 59.5694 57.2107 58.5204C57.0433 57.9428 57.0427 57.577 57.0599 57.0552C57.0897 56.6906 57.1018 56.482 57.114 56.2733C57.9153 54.8198 58.7165 53.3664 59.5178 51.9129C59.8232 51.916 60.1286 51.919 60.434 51.9221C61.2952 55.1609 62.1563 58.3997 63.0191 61.8322C62.7153 61.8173 62.4099 61.6087 61.992 61.3221Z" fill="#FEF9FB"/>
<path d="M56.9857 56.1638C57.1018 56.482 57.0897 56.6906 56.9141 57.0746C56.3972 57.7366 56.0437 58.2232 55.6902 58.7099C55.6096 58.6968 55.529 58.6837 55.334 58.6238C55.3697 55.264 55.5349 51.9516 55.6442 48.6371C55.6542 48.333 55.306 48.0161 54.9541 47.6493C56.2079 47.2555 57.6318 46.9175 59.2063 46.6516C59.208 47.7046 59.059 48.6857 58.91 49.8584C58.91 50.05 58.9103 50.0497 58.9103 50.0497C58.226 52.0513 57.5416 54.0528 56.9857 56.1638Z" fill="#FEC0D3"/>
<path d="M59.6204 57.8309C59.6759 57.8983 59.7316 57.9655 59.7873 58.0328C59.7484 58.0093 59.7094 57.9857 59.6456 57.8963C59.6208 57.8305 59.6204 57.8309 59.6204 57.8309Z" fill="#FEC0D3"/>
<path d="M51.1711 101.986C51.294 102.024 51.3638 102.115 51.4336 102.206C51.3342 102.233 51.2349 102.26 51.0749 102.218C51.0142 102.15 51.1181 102.04 51.1711 101.986Z" fill="#FE78A1"/>
<path d="M110.523 55.1311C110.372 54.9217 110.216 54.5505 110.059 54.0159C110.212 54.2247 110.365 54.5969 110.523 55.1311Z" fill="#FEC9DA"/>
<path d="M61.3731 70.8965C60.8782 70.87 60.4993 70.7231 59.7987 70.5857C58.0779 70.4205 56.6789 70.2459 55.2798 70.0712C54.7464 70.3479 54.213 70.6247 53.5359 70.9608C52.7403 68.6359 53.7466 67.2934 56.6518 66.6713C59.4609 66.0698 61.7033 67.9726 61.3731 70.8965Z" fill="#FEA3C0"/>
<path d="M54.7765 62.6511C56.1722 62.1369 57.58 61.8174 59.1788 61.494C60.031 62.4112 60.64 63.479 59.4598 64.2935C58.497 64.9579 57.2615 65.6077 56.1998 65.5248C55.6684 65.4834 55.2552 63.7913 54.7765 62.6511Z" fill="#FEF4F7"/>
<path d="M60.7774 61.6093C60.9337 61.4828 61.1389 61.4814 61.4979 61.4841C61.6 61.6967 61.5483 61.9052 61.4965 62.1138C61.2731 61.9874 61.0496 61.8609 60.7774 61.6093Z" fill="#FEB6CC"/>
<path d="M54.0406 62.5149C54.1538 62.3955 54.4166 62.3208 54.743 62.3616C54.6012 62.5046 54.3957 62.5322 54.0406 62.5149Z" fill="#FEFCFD"/>
<path d="M90.3686 72.8024C90.0415 72.961 89.7202 72.9487 89.1483 72.8244C88.6077 72.8608 88.214 72.9295 88.0445 73.1702C86.8688 74.8402 85.8655 74.6062 85.0044 72.7957C85.6353 71.7912 86.2013 70.9303 86.785 70.0523C86.8027 70.0352 86.8393 70.0023 86.8393 70.0023C88.6744 69.9166 89.6757 71.0525 90.3686 72.8024Z" fill="#FEA3C0"/>
<path d="M85.4056 69.5994C85.4056 69.5994 85.3868 69.4035 85.377 69.3059C85.7453 68.9021 86.1235 68.5958 86.6272 68.2178C86.7698 68.6427 86.787 69.1394 86.8218 69.8192C86.8393 70.0023 86.8027 70.0352 86.6401 70.0406C86.1201 69.8972 85.7628 69.7483 85.4056 69.5994Z" fill="#FEA3C0"/>
<path d="M55.7714 58.8124C56.0437 58.2232 56.3972 57.7366 56.8965 57.2305C57.0427 57.577 57.0433 57.9429 57.0432 58.4925C56.646 58.7559 56.2493 58.8354 55.7714 58.8124Z" fill="#FEB6CC"/>
<path d="M85.3144 69.7314C85.7628 69.7483 86.1201 69.8972 86.6223 70.0577C86.2013 70.9303 85.6353 71.7912 84.8862 72.7486C84.4491 73.0435 84.1952 73.2421 83.9413 73.4406C83.5778 73.4004 83.2144 73.3601 82.7338 73.3517C82.3266 71.2751 83.8515 70.631 85.3144 69.7314Z" fill="#FEAFC7"/>
<path d="M83.9828 73.6071C84.1952 73.2421 84.4491 73.0436 84.8213 72.8921C85.8655 74.6062 86.8688 74.8402 88.0445 73.1703C88.214 72.9295 88.6076 72.8608 88.9868 72.8294C88.1419 73.8626 87.315 75.0121 86.2133 75.5643C85.8436 75.7497 84.774 74.4141 83.9828 73.6071Z" fill="#FE7FA6"/>
<path d="M55.2936 70.241C56.6789 70.2459 58.0779 70.4205 59.6478 70.571C59.2934 71.281 58.7681 72.0151 58.2429 72.7492C57.2644 71.9697 56.2859 71.1903 55.2936 70.241Z" fill="#FE7FA6"/>
</g>
<defs>
<clipPath id="clip0_1_180">
<rect width="137" height="143" fill="white"/>
</clipPath>
</defs>
</svg>
