<svg width="101" height="22" viewBox="0 0 101 22" fill="none" xmlns="http://www.w3.org/2000/svg">
<g clip-path="url(#clip0_5_4)">
<path d="M6.97579 14.0811C6.88552 14.0036 6.79525 13.9261 6.68441 13.8136C6.68273 13.3173 6.57198 13.1263 6.24422 13.0361C6.23527 12.9842 6.23329 12.9633 6.227 12.918C6.18203 12.5994 5.96644 12.4805 5.72042 12.3625C5.72077 12.2003 5.72077 12.0682 5.72077 11.9362C5.69223 11.9358 5.66369 11.9355 5.63516 11.9352C5.60307 12.0179 5.57098 12.1007 5.51889 12.235C5.48057 12.0606 5.4528 11.9342 5.4256 11.7733C5.34929 10.3872 5.56023 9.07887 6.00989 7.80477C6.0366 7.72907 6.00722 7.63357 6.00719 7.52672C6.03208 7.47246 6.05373 7.43877 6.0894 7.40098C6.11008 7.39015 6.1235 7.37915 6.12235 7.37732C6.11291 7.36233 6.10077 7.34905 6.09786 7.31157C6.17847 7.14808 6.25065 7.00826 6.32283 6.86844C6.33607 6.91722 6.34932 6.96601 6.36256 7.01479C7.00167 6.56169 7.67871 6.28386 8.45991 6.41718C8.34005 6.31623 8.21333 6.26463 8.08932 6.20717C7.65695 6.00681 7.27132 5.76611 7.26819 5.19106C7.44314 4.96075 7.60834 4.75361 7.77345 4.54657C7.77334 4.54667 7.77306 4.54686 7.79531 4.54649C7.85189 4.52175 7.88622 4.49737 7.92028 4.47317C7.92001 4.47335 7.91953 4.47382 7.93637 4.46647C7.96674 4.43925 7.98028 4.41939 7.9936 4.39974C7.99338 4.39996 7.9935 4.39985 8.01932 4.39797C8.71877 3.99211 9.38607 3.57705 10.0681 3.18786C10.5688 2.90215 11.1056 2.69765 11.6431 3.08151C11.9183 3.27803 12.1807 3.25867 12.4435 3.1433C12.8829 2.95041 13.3228 2.87054 13.7906 3.00421C13.7906 3.00421 13.7861 3.00545 13.7897 3.02907C14.1101 3.25645 14.427 3.46021 14.7439 3.66396C14.7439 3.66396 14.7395 3.6655 14.7418 3.6897C14.9397 3.86824 15.1353 4.02257 15.3309 4.17691C15.3309 4.17691 15.3276 4.18024 15.3337 4.19128C15.3606 4.1941 15.3815 4.18589 15.4023 4.17767C15.4541 4.25949 15.5059 4.34132 15.5622 4.46543C15.5786 4.53049 15.5972 4.5437 15.6209 4.5474C15.6192 4.54747 15.6193 4.54411 15.626 4.56209C15.6537 4.59353 15.6747 4.60698 15.6942 4.62037C15.6928 4.62031 15.6937 4.61758 15.6928 4.64695C15.7074 4.73425 15.7171 4.79454 15.7394 4.84976C15.9727 5.42915 15.8965 5.88658 15.4396 6.29846C15.2111 6.50442 14.9265 6.64804 14.6479 6.82784C14.5918 6.85541 14.5549 6.875 14.4973 6.91503C14.3948 7.55691 14.3948 7.55691 13.75 7.55284C13.738 7.55276 13.726 7.55242 13.7035 7.52799C13.6289 7.35572 13.5648 7.20766 13.5006 7.0596C13.4656 7.06825 13.4306 7.0769 13.3955 7.08555C13.3548 7.3637 13.3141 7.64186 13.2566 7.93105C13.2524 7.98482 13.2651 8.02755 13.2767 8.09429C13.2742 8.15031 13.2726 8.18231 13.244 8.217C13.0843 8.372 12.9515 8.52431 12.7498 8.75556C12.8717 8.36208 12.9637 8.0652 13.0556 7.76832C13.0445 7.76671 13.0333 7.7651 13.0221 7.76349C12.6916 8.4527 12.3611 9.1419 12.0284 9.82957C12.0262 9.82803 12.0313 9.82942 12.0181 9.83447C11.9993 9.84714 11.9878 9.85949 11.9894 9.86161C12.0004 9.87571 12.0142 9.88763 12.0158 9.92235C11.8179 10.0811 11.6312 10.2178 11.4134 10.3772C11.3335 10.1765 11.2769 10.0344 11.2196 9.86224C11.1436 9.63199 11.0682 9.43186 10.9928 9.23172C10.9711 9.23706 10.9493 9.24241 10.9275 9.24775C10.9275 9.34333 10.9275 9.43891 10.9016 9.53023C10.7123 9.17858 10.5491 8.83119 10.3702 8.45061C10.31 8.61744 10.2539 8.77297 10.1702 9.00486C9.88126 8.43637 9.94142 7.94201 10.0731 7.40984C10.2135 7.46078 10.3188 7.49896 10.424 7.53713C10.4412 7.50349 10.4584 7.46986 10.4756 7.43622C10.3331 7.35249 10.1906 7.26875 10.0479 7.15894C10.0435 7.07496 10.0394 7.01707 10.0418 7.051C9.67229 7.00913 9.33852 6.9713 9.00476 6.93348C8.84966 6.95984 8.68538 7.08061 8.53756 7.21898C8.51402 7.24102 8.56447 7.3421 8.56071 7.42271C8.53053 7.50609 8.52035 7.5734 8.5089 7.66065C8.48602 7.71216 8.46442 7.74372 8.41617 7.77776C8.30719 7.9089 8.20488 8.02915 8.14653 8.16789C8.00745 8.4986 7.88913 8.83803 7.76243 9.17394C7.73 9.16222 7.69758 9.15049 7.66516 9.13877C7.89685 8.3659 8.12855 7.59304 8.37536 6.81114C8.38928 6.7763 8.38809 6.75049 8.38689 6.72467C8.37784 6.75636 8.36879 6.78805 8.33386 6.82399C8.28074 6.85054 8.24025 6.86726 8.22817 6.89593C7.67554 8.20845 7.39387 9.57128 7.48527 10.9997C7.49004 11.0741 7.57043 11.1437 7.61938 11.244C7.69878 11.4992 7.7744 11.726 7.84095 11.9691C7.8122 12.0001 7.79252 12.0148 7.75285 12.0156C7.57811 11.8173 7.42336 11.6328 7.26555 11.4195C7.23799 11.261 7.21349 11.1315 7.20742 10.985C6.95774 9.93426 6.85876 8.89372 7.11695 7.84247C7.20216 7.49553 7.30486 7.15289 7.39956 6.80828C7.3683 6.80361 7.33704 6.79893 7.30578 6.79426C6.74106 8.12856 6.84976 9.52766 6.97184 10.9569C7.06553 11.4092 7.15629 11.8323 7.24706 12.2554C7.22856 12.2615 7.21007 12.2676 7.19158 12.2736C7.1035 12.1451 7.01543 12.0165 6.92735 11.8879C6.89517 11.8974 6.86298 11.9069 6.83079 11.9164C6.83079 12.103 6.83079 12.2896 6.83343 12.5048C6.94209 13.0584 7.0481 13.5835 7.15595 14.1178C7.09232 14.1048 7.03406 14.0929 6.97579 14.0811ZM10.0595 6.77157C10.0795 6.76319 10.0995 6.75481 10.1247 6.69587C10.1438 6.61082 10.1629 6.52577 10.1819 6.44072C10.1525 6.43545 10.1231 6.43017 10.0936 6.4249C10.0781 6.53211 10.0625 6.63932 10.0595 6.77157ZM10.56 3.95996C10.56 3.95996 10.56 3.96063 10.6143 3.95458C10.7806 3.89148 10.9469 3.82839 11.2274 3.72198C11.0485 3.63033 10.9278 3.51339 10.8422 3.53506C10.5931 3.5981 10.3581 3.71663 10.0711 3.81698C10.0142 3.86401 9.95726 3.91104 9.85629 3.96236C9.82132 3.98605 9.78634 4.00975 9.71304 4.05078C9.67759 4.09292 9.64213 4.13505 9.56277 4.20024C9.37392 4.43119 9.18507 4.66213 8.99622 4.89308C9.03587 4.92736 9.07552 4.96164 9.11517 4.99592C9.25482 4.84628 9.39447 4.69664 9.58559 4.54141C9.83713 4.37189 10.0887 4.20236 10.3898 4.03291C10.4467 4.00859 10.5037 3.98427 10.56 3.95996ZM13.6955 3.78256C13.6694 3.78385 13.6434 3.78515 13.6173 3.78644C13.6492 3.79555 13.681 3.80466 13.7175 3.86399C13.7491 4.00693 13.7807 4.14986 13.8231 4.34164C13.9723 4.42359 14.1731 4.53393 14.374 4.64426C14.3961 4.61195 14.4182 4.57963 14.4403 4.54731C14.2769 4.23074 14.0603 3.96267 13.6955 3.78256ZM13.4236 3.68813C13.2051 3.6439 13.0163 3.65824 12.9121 3.83865C12.9288 3.87199 12.9455 3.90533 12.9622 3.93866C13.1095 3.86902 13.2567 3.79938 13.4236 3.68813Z" fill="#FEC7D8"/>
<path d="M6.9779 14.1097C7.03404 14.0929 7.0923 14.1048 7.15594 14.1178C7.04808 13.5835 6.94207 13.0584 6.86087 12.5016C7.10351 12.4359 7.21792 12.8297 7.49946 12.6344C7.5432 13.3639 7.86146 13.9453 8.43109 14.3205C9.1893 14.82 10.0005 15.24 10.7973 15.6789C10.9163 15.7445 11.0937 15.7742 11.2228 15.7401C12.1952 15.4833 13.174 15.2413 14.1258 14.9209C14.6016 14.7607 14.9671 14.3913 15.1491 13.8715C15.5153 13.9804 15.7639 13.8179 15.9376 13.5602C16.0092 13.4541 15.9708 13.2738 15.9878 13.103C16.0727 13.0072 16.1523 12.9357 16.2672 12.8324C16.2708 13.5327 15.648 15.1816 15.086 15.9856C15.0526 15.9862 15.0392 15.9869 15.0258 15.9876C15.0258 15.9036 15.0258 15.8197 15.0258 15.7212C14.7725 15.8625 14.54 16.0066 14.2933 16.1198C14.2293 16.1491 14.1208 16.0816 14.046 16.0232C14.0545 15.9675 14.0496 15.9473 14.0448 15.9271C14.0267 15.9412 14.0086 15.9554 13.9904 15.9696C13.735 16.3345 13.2915 16.1302 12.9593 16.2627C12.9472 16.3051 12.9352 16.3474 12.9231 16.3897C13.3117 16.6086 13.7127 16.8085 14.0853 17.0518C14.4658 17.3002 14.8184 17.5913 15.2642 17.9241C14.4907 18.4533 13.7193 19.0097 12.9177 19.5188C12.4253 19.8315 11.8855 20.0692 11.3696 20.3453C11.0569 20.5126 10.7359 20.6743 10.6464 21.0693C10.6375 21.1087 10.5877 21.142 10.5509 21.1705C10.5353 21.1827 10.5046 21.1753 10.5615 21.1717C10.2049 20.6783 9.85683 20.2336 9.55028 19.7619C9.25926 19.3141 9.0089 18.8396 8.74603 18.3738C8.57862 18.0772 8.40604 17.7819 8.26445 17.4728C8.17546 17.2786 8.13955 17.06 8.09524 16.8102C8.12076 16.7431 8.13086 16.718 8.16856 16.6974C8.44574 16.6031 8.69534 16.5044 8.97049 16.4046C9.11518 16.2984 9.23431 16.1932 9.35344 16.088C9.24856 15.9709 9.14367 15.8538 9.04158 15.7398C8.90907 15.8602 8.82202 15.9392 8.71643 15.9997C8.5563 15.8167 8.41471 15.6523 8.21363 15.4187C8.22067 15.5713 8.22322 15.6266 8.21725 15.6902C8.20874 15.6985 8.19205 15.7154 8.16563 15.7126C7.99366 15.6541 7.84812 15.5983 7.70112 15.5441C7.69966 15.5457 7.70399 15.5451 7.71208 15.5207C7.6401 15.4167 7.56002 15.337 7.47731 15.2307C7.36132 15.1414 7.24795 15.0788 7.13458 15.0161C7.08306 14.7236 7.03154 14.431 6.9779 14.1097ZM11.1516 19.6899C11.1667 19.6875 11.1818 19.6852 11.1969 19.6828C11.1858 19.6678 11.1747 19.6527 11.1586 19.5847C11.0595 19.2571 10.7792 19.1857 10.5003 19.1666C10.2013 19.1462 10.0344 19.268 9.93056 19.5548C10.4259 19.0745 10.7848 19.3457 11.1516 19.6899ZM9.58225 18.1002C9.58081 18.1781 9.57936 18.256 9.55008 18.3761C9.57617 18.5896 9.4924 18.8621 9.88965 18.9006C10.3608 18.6885 10.8032 18.7085 11.2259 19.0344C11.4423 19.2012 11.6376 19.2037 11.7834 18.9115C11.9352 18.6076 12.1466 18.3324 12.2877 18.0245C12.435 17.7032 12.7296 17.3795 12.3997 16.9509C12.3729 16.8984 12.3462 16.8459 12.3175 16.7302C12.3126 16.5833 12.3077 16.4364 12.3223 16.233C12.3453 16.0884 12.3684 15.9439 12.4025 15.7295C12.1268 15.8218 11.9336 15.8848 11.7414 15.9511C11.1581 16.1522 10.5894 16.5498 9.99309 16.0464C9.88873 16.2921 9.84036 16.5252 9.70826 16.692C9.44673 17.0221 9.36066 17.6554 9.58225 18.1002Z" fill="#FE78A1"/>
<path d="M5.72007 12.3926C5.96643 12.4805 6.18202 12.5994 6.20619 12.9379C6.17928 13.0555 6.16888 13.1288 6.15918 13.201C6.15988 13.1999 6.16106 13.1975 6.13687 13.2112C6.10371 13.3153 6.09474 13.4055 6.08631 13.4946C6.08684 13.4936 6.08835 13.4917 6.08835 13.4917C6.02407 13.586 5.94389 13.6732 5.8979 13.7757C5.3067 15.0937 4.45214 16.1682 3.14276 16.847C2.89163 16.9772 2.76963 16.9247 2.64106 16.7095C2.44237 16.3769 2.34624 16.0568 2.5681 15.6831C2.85399 15.2016 3.1066 14.7002 3.36956 14.2053C3.43124 14.0892 3.47697 13.9647 3.54561 13.8167C3.56118 13.7893 3.59268 13.7874 3.59268 13.7874C3.77763 14.1256 3.96259 14.4639 4.16902 14.8414C4.27365 14.757 4.38349 14.6993 4.45015 14.6095C4.80298 14.1343 5.16113 13.6615 5.48062 13.1641C5.57375 13.0192 5.54583 12.7964 5.58135 12.5603C5.6329 12.4717 5.67648 12.4322 5.72007 12.3926ZM3.52835 14.8592C3.29228 15.3352 3.05621 15.8112 2.82014 16.2872C2.85643 16.3043 2.89272 16.3213 2.92901 16.3384C3.24989 15.7487 3.57077 15.159 3.89165 14.5693C3.86348 14.5486 3.83531 14.5279 3.80714 14.5072C3.7234 14.6091 3.63966 14.7109 3.52835 14.8592Z" fill="#FE79A2"/>
<path d="M4.76322 6.79297C4.76926 6.77569 4.78018 6.76241 4.83716 6.75C4.96255 6.67195 5.04675 6.59703 5.13096 6.52212C5.13096 6.52212 5.1338 6.52571 5.16057 6.52614C5.41413 6.47796 5.64093 6.42935 5.86718 6.38035C5.86663 6.37995 5.86567 6.37901 5.87331 6.39589C5.90097 6.42664 5.921 6.44051 5.9405 6.45388C5.93998 6.45338 5.93878 6.4526 5.95378 6.47332C6.00854 6.58265 6.0483 6.67127 6.08799 6.78767C6.06035 6.8919 6.0287 6.96715 6.00594 7.04501C5.93407 7.29079 5.86553 7.53753 5.79532 7.8148C5.69674 8.30369 5.63308 8.77266 5.49178 9.21695C5.30747 9.79651 5.06164 10.3565 4.84172 10.8937C5.06381 9.89947 5.28645 8.93637 5.5091 7.97328C5.39742 8.19812 5.31363 8.44173 5.20695 8.67487C5.09605 8.91725 4.96303 9.14952 4.83958 9.35457C4.86589 9.01641 4.8923 8.70989 4.9187 8.40337C4.88375 8.39757 4.8488 8.39176 4.81384 8.38596C4.63222 8.66299 4.4506 8.94002 4.26999 9.21552C4.164 9.17444 4.06645 9.13664 3.9689 9.09883C3.82048 8.82264 3.67206 8.54645 3.54532 8.24041C3.70567 8.11776 3.87371 8.04981 3.97729 7.92734C4.24653 7.60898 4.48899 7.26781 4.73736 6.9322C4.7626 6.89809 4.75538 6.83996 4.76322 6.79297Z" fill="#FEC7D8"/>
<path d="M5.35977 4.40561C5.48363 4.23449 5.60748 4.06337 5.77509 3.88238C5.8346 3.85137 5.85035 3.83023 5.8661 3.8091C5.8661 3.8091 5.86616 3.81348 5.89309 3.81304C6.32101 3.73965 6.72048 3.62334 7.12354 3.60918C7.38766 3.5999 7.65698 3.73839 7.92397 3.8107C7.92397 3.8107 7.92083 3.8136 7.9279 3.82913C7.95566 3.85817 7.97635 3.87169 7.99704 3.88521C7.99704 3.88521 7.99335 3.88668 8.00094 3.9024C8.02915 3.9316 8.04977 3.94507 8.07038 3.95854C8.07038 3.95854 8.06628 3.95859 8.06626 3.98609C8.042 4.14234 8.01775 4.27109 7.9935 4.39984C7.9935 4.39984 7.99339 4.39995 7.97665 4.40695C7.94646 4.4339 7.933 4.45385 7.91954 4.47381C7.91954 4.47381 7.92001 4.47334 7.89808 4.47385C7.84179 4.49852 7.80743 4.52268 7.77307 4.54684C7.77307 4.54684 7.77335 4.54666 7.74609 4.54637C7.66415 4.54739 7.60946 4.5487 7.52453 4.54887C7.26967 4.64525 7.04503 4.74276 6.7992 4.82037C6.75574 4.63132 6.73347 4.46217 6.71121 4.29302C6.59057 4.51046 6.52289 4.72784 6.51113 4.94821C6.49487 5.25316 6.5207 5.56036 6.52775 5.89456C6.52755 5.97848 6.52809 6.03444 6.52757 6.08864C6.52653 6.08689 6.53059 6.08731 6.51297 6.09424C6.48176 6.12186 6.46816 6.14254 6.45417 6.16138C6.45377 6.15952 6.45718 6.16117 6.43408 6.17092C6.25358 6.27132 6.09619 6.36196 5.9388 6.45259C5.9388 6.45259 5.94001 6.45338 5.93297 6.43692C5.90586 6.40664 5.88578 6.39282 5.86569 6.379C5.86569 6.379 5.86666 6.37994 5.8568 6.35849C5.75693 6.27679 5.66691 6.21655 5.57569 6.12807C5.50142 5.6808 5.42185 5.26273 5.35887 4.84216C5.33757 4.69988 5.35827 4.55131 5.35977 4.40561ZM6.67596 3.9424C6.68492 3.9742 6.69388 4.00601 6.70284 4.03781C6.71897 4.0303 6.7351 4.02279 6.75123 4.01527C6.72812 3.97823 6.70501 3.94119 6.67596 3.9424Z" fill="#FEC7D8"/>
<path d="M6.25117 13.0669C6.57197 13.1263 6.68272 13.3173 6.65849 13.8071C6.22585 14.6383 5.83552 15.4636 5.3591 16.2358C5.00379 16.8117 4.45851 17.219 3.82344 17.4881C3.70643 17.5377 3.60866 17.6327 3.47278 17.727C3.31847 17.5445 3.15779 17.3545 2.96619 17.1279C4.5498 16.3762 5.63201 15.2266 6.09281 13.5204C6.08835 13.4917 6.08684 13.4936 6.11027 13.4809C6.14282 13.378 6.15194 13.2877 6.16105 13.1975C6.16105 13.1975 6.15987 13.1999 6.18175 13.1971C6.21948 13.1519 6.23533 13.1094 6.25117 13.0669Z" fill="#FE79A2"/>
<path d="M18.2636 7.26007C18.5247 7.51388 18.7858 7.7677 19.0442 8.05078C19.0514 8.09963 19.0613 8.1192 19.0712 8.13877C19.0712 8.13877 19.0673 8.14049 19.0749 8.15583C19.103 8.18496 19.1235 8.19876 19.1441 8.21256C19.1441 8.21256 19.1398 8.21277 19.1398 8.24052C19.2814 8.80568 19.5383 9.32222 19.4356 9.9038C19.4356 9.9038 19.4345 9.89945 19.4105 9.90195C19.3296 9.97783 19.2726 10.0512 19.2156 10.1246C19.2156 10.1246 19.2128 10.121 19.1874 10.1207C19.0511 10.1591 18.9403 10.1977 18.8478 10.2299C18.7326 9.93027 18.6202 9.63769 18.4943 9.31021C18.3754 9.67904 18.2806 9.97297 18.186 10.24C18.1623 10.1328 18.1383 10.0524 18.1144 9.93857C18.1196 9.129 17.9374 8.39649 17.5985 7.67824C17.5737 7.62204 17.5503 7.58782 17.5267 7.55347C17.5266 7.55334 17.5264 7.55314 17.5278 7.52575C17.6876 7.15256 17.9521 7.13397 18.2636 7.26007Z" fill="#FEC9DA"/>
<path d="M15.2493 19.4265C13.9279 20.1405 12.5991 20.8368 11.113 21.1566C11.0433 21.1717 10.9713 21.1761 10.8519 21.1063C10.9988 21.0053 11.1363 20.8852 11.2943 20.8065C12.0363 20.437 12.8066 20.1184 13.5234 19.7062C14.301 19.2592 15.0307 18.729 15.8548 18.1866C15.9676 18.28 16.1704 18.4479 16.408 18.6446C16.1043 18.8528 15.8742 19.0105 15.6054 19.1959C15.4609 19.2912 15.3551 19.3589 15.2493 19.4265Z" fill="#FE79A2"/>
<path d="M8.0193 4.39796C8.01773 4.2711 8.04198 4.14235 8.06791 3.9849C8.22238 3.93997 8.39724 3.96621 8.52422 3.90028C9.14024 3.58042 9.73789 3.22522 10.3533 2.90417C10.696 2.7254 11.0691 2.65743 11.4479 2.80361C11.7332 2.91374 11.83 2.77138 11.7796 2.52953C11.668 1.99391 11.8164 1.51894 12.097 1.05568C11.9546 1.65712 11.7902 2.25998 12.0027 2.88402C12.2076 2.27876 12.41 1.68079 12.6124 1.08282C12.6315 1.17018 12.6855 1.26759 12.6638 1.34317C12.5577 1.71146 12.3882 2.06642 12.3234 2.44036C12.2462 2.8861 12.3933 2.99008 12.8356 2.87338C13.1588 2.78809 13.4731 2.72292 13.7773 2.98097C13.3228 2.87054 12.8829 2.9504 12.4435 3.1433C12.1807 3.25867 11.9183 3.27803 11.6431 3.08151C11.1056 2.69765 10.5688 2.90215 10.0681 3.18786C9.38605 3.57705 8.71875 3.99211 8.0193 4.39796Z" fill="#FEA9C3"/>
<path d="M18.4177 4.90187C18.4855 5.03638 18.5532 5.17089 18.6007 5.35162C18.5233 5.79983 18.4664 6.20182 18.4094 6.6038C18.4094 6.6038 18.4064 6.60077 18.3911 6.60808C18.3623 6.63583 18.3487 6.65628 18.3352 6.67673C18.3352 6.67673 18.3337 6.67298 18.3161 6.68522C18.2862 6.73963 18.274 6.7818 18.2618 6.82398C18.2618 6.82398 18.2608 6.81963 18.2364 6.82205C18.1614 6.85342 18.1062 6.87658 18.0607 6.91221C17.569 7.29796 17.506 7.28589 17.2333 6.71901C17.4039 6.34324 17.5739 5.99522 17.7642 5.63863C17.8209 5.58654 17.8575 5.54303 17.8937 5.49975C17.8934 5.49999 17.8928 5.50057 17.9191 5.49793C18.1541 5.3486 18.5 5.30995 18.4037 4.91507C18.4085 4.91081 18.4177 4.90187 18.4177 4.90187Z" fill="#FEC9DA"/>
<path d="M9.51751 20.2529C9.77564 20.5281 10.0166 20.7837 10.2901 21.0739C10.0025 21.1618 9.79324 21.1577 9.61306 20.9366C9.19778 20.427 8.75189 19.9405 8.36262 19.4121C8.04325 18.9785 7.95071 18.4678 8.04705 17.9173C8.54206 18.7062 9.02118 19.4697 9.51751 20.2529Z" fill="#FE79A2"/>
<path d="M17.744 5.64719C17.5739 5.99522 17.4039 6.34325 17.2113 6.71981C17.1741 6.74908 17.1594 6.74983 17.1269 6.73387C16.7779 6.14081 16.4467 5.56446 16.1458 4.9874C16.5364 5.10418 16.8967 5.22168 17.3046 5.35469C17.3046 5.01341 17.3128 4.71312 17.2981 4.41395C17.2949 4.348 17.2027 4.22652 17.1647 4.23149C16.8156 4.27712 16.4603 4.31752 16.1298 4.42818C16.0587 4.452 16.0803 4.75276 16.039 4.91258C15.9105 4.80533 15.8021 4.71145 15.6937 4.61758C15.6937 4.61758 15.6928 4.6203 15.6872 4.60268C15.6609 4.5714 15.6401 4.55775 15.6193 4.5441C15.6193 4.5441 15.6192 4.54747 15.617 4.52753C15.608 4.49593 15.6012 4.48427 15.5944 4.4726C15.8491 4.36493 16.1 4.2472 16.3591 4.15165C16.9418 3.93676 17.4807 4.02067 17.9412 4.44134C17.7857 4.41891 17.6545 4.37186 17.4875 4.31196C17.4491 4.78918 17.4144 5.22102 17.3812 5.63336C17.5193 5.58326 17.6338 5.54172 17.747 5.52465C17.7451 5.58182 17.7446 5.61451 17.744 5.64719ZM16.7343 5.67744C16.8557 5.87201 16.9771 6.06657 17.0985 6.26113C17.1974 6.07362 17.2508 5.9379 17.2189 5.82662C17.185 5.70833 17.0871 5.58705 16.9831 5.51988C16.9366 5.48989 16.8068 5.58896 16.7343 5.67744Z" fill="#FEB1C9"/>
<path d="M4.84229 10.9249C5.06166 10.3565 5.30748 9.79652 5.4918 9.21695C5.6331 8.77267 5.69676 8.3037 5.81477 7.80209C5.89104 7.68809 5.94749 7.61769 6.00395 7.54729C6.00722 7.63357 6.0366 7.72907 6.00988 7.80477C5.56022 9.07887 5.34929 10.3872 5.40212 11.771C5.32147 11.7545 5.26485 11.7059 5.22881 11.6388C5.22024 11.3593 5.19109 11.0983 5.16195 10.8374C5.12434 10.8404 5.08673 10.8435 5.04913 10.8466C5.02793 10.9469 5.00673 11.0472 4.9584 11.1474C4.89499 11.1488 4.8587 11.1503 4.82242 11.1519C4.80199 11.1172 4.78155 11.0824 4.7771 11.0179C4.80949 10.9671 4.82589 10.946 4.84229 10.9249Z" fill="#FEB6CC"/>
<path d="M17.7483 5.50017C17.6338 5.54171 17.5193 5.58325 17.3812 5.63335C17.4144 5.22102 17.4491 4.78917 17.4875 4.31195C17.6545 4.37185 17.7857 4.41891 17.9452 4.46685C17.9734 4.46773 17.9715 4.47084 17.983 4.49032C18.041 4.5208 18.0873 4.5318 18.1337 4.5428C18.2033 4.62186 18.2729 4.70093 18.3398 4.80829C18.3372 4.83658 18.3302 4.843 18.3089 4.83139C18.2161 4.76791 18.1445 4.71605 18.0979 4.68227C18.0259 4.96935 17.9594 5.23496 17.8928 5.50056C17.8928 5.50056 17.8934 5.49999 17.8694 5.49882C17.8131 5.49849 17.7807 5.49933 17.7483 5.50017Z" fill="#FEC9DA"/>
<path d="M12.5954 1.0644C12.41 1.68078 12.2076 2.27875 12.0028 2.88401C11.7902 2.25997 11.9546 1.65711 12.1172 1.03956C12.2583 1.03127 12.4183 1.03863 12.5954 1.0644Z" fill="#FEC7D8"/>
<path d="M18.1785 11.146C18.1547 11.6418 18.1468 12.1394 18.0946 12.6322C18.0832 12.7392 17.9127 12.8294 17.7831 12.96C17.6786 13.4023 17.5591 13.9081 17.3987 14.432C17.3414 14.4491 17.3249 14.4481 17.3113 14.4185C17.4378 13.7255 17.5614 13.061 17.6668 12.4948C17.7965 12.3443 17.9359 12.254 17.9627 12.1378C18.0376 11.8131 18.0658 11.4778 18.129 11.1466C18.1455 11.1465 18.1785 11.146 18.1785 11.146Z" fill="#FEAFC7"/>
<path d="M3.59342 13.7591C3.59268 13.7874 3.56118 13.7893 3.54545 13.789C3.41504 13.4882 3.31181 13.1828 3.18313 12.8885C2.96757 12.3955 2.72791 11.913 2.51334 11.4196C2.34659 11.0362 2.20261 10.6428 2.05093 10.2233C2.05336 10.1927 2.05566 10.1886 2.05566 10.1886C2.10382 10.2552 2.16103 10.317 2.19871 10.3891C2.47997 10.927 2.76586 11.4627 3.03191 12.0081C3.14218 12.2342 3.21443 12.4799 3.29145 12.7207C3.39852 13.0554 3.49382 13.3939 3.59342 13.7591Z" fill="#FEC0D3"/>
<path d="M18.1815 11.1146C18.1785 11.146 18.1455 11.1465 18.1289 11.1135C18.0891 10.8095 18.0659 10.5384 18.0665 10.2671C18.1222 10.2669 18.154 10.2669 18.1859 10.2669C18.2806 9.97295 18.3754 9.67902 18.4943 9.3102C18.6202 9.63768 18.7326 9.93026 18.8478 10.2299C18.9403 10.1977 19.0511 10.1591 19.1896 10.1214C19.0358 10.2671 18.9029 10.6144 18.5977 10.2646C18.5814 10.246 18.3763 10.3254 18.3525 10.3924C18.2735 10.6145 18.2372 10.8518 18.1815 11.1146Z" fill="#FEA9C3"/>
<path d="M4.84173 10.8937C4.82588 10.946 4.80948 10.9671 4.77483 10.9972C4.71287 10.8758 4.66915 10.7452 4.64661 10.5862C4.69916 10.5321 4.73054 10.5063 4.76767 10.4524C4.79601 10.078 4.81859 9.7318 4.84088 9.38604C4.8406 9.38649 4.83969 9.38621 4.83969 9.38621C4.96304 9.14952 5.09606 8.91726 5.20696 8.67487C5.31364 8.44173 5.39744 8.19812 5.50911 7.97328C5.28647 8.93637 5.06382 9.89947 4.84173 10.8937Z" fill="#FEA9C3"/>
<path d="M5.36063 20.0565C5.28621 19.4195 5.21595 18.8114 5.14569 18.2032C5.17867 18.1957 5.21164 18.1881 5.24462 18.1805C5.27367 18.223 5.32063 18.2622 5.32905 18.3084C5.43033 18.8644 5.52957 19.4208 5.61822 19.9789C5.62905 20.0471 5.57506 20.1256 5.55111 20.1993C5.489 20.1613 5.42689 20.1233 5.36063 20.0565Z" fill="#FED0DE"/>
<path d="M3.97461 9.12156C4.06646 9.13663 4.164 9.17443 4.26999 9.21551C4.45061 8.94002 4.63223 8.66299 4.81385 8.38596C4.8488 8.39176 4.88375 8.39756 4.91871 8.40336C4.8923 8.70988 4.8659 9.0164 4.83959 9.35456C4.83969 9.38621 4.84059 9.38648 4.82178 9.3751C4.70734 9.31128 4.61172 9.25884 4.52992 9.21397C4.4567 9.30874 4.39487 9.38876 4.3069 9.46689C4.24581 9.46485 4.21084 9.4647 4.17588 9.46455C4.11069 9.3578 4.0455 9.25105 3.97461 9.12156Z" fill="#FEA3C0"/>
<path d="M19.4601 9.88956C19.5384 9.32221 19.2814 8.80568 19.1411 8.23875C19.3881 8.60741 19.634 9.00558 19.8766 9.43188C19.7856 9.38475 19.6978 9.30951 19.6255 9.24752C19.5795 9.4525 19.532 9.66391 19.4601 9.88956Z" fill="#FEA9C3"/>
<path d="M4.74014 6.80463C4.7554 6.83995 4.76263 6.89809 4.73738 6.9322C4.48902 7.26781 4.24656 7.60898 3.97731 7.92734C3.87374 8.04981 3.70569 8.11776 3.54056 8.21454C3.49019 8.15985 3.46627 8.10116 3.44455 8.01794C3.44674 7.9934 3.44592 7.98808 3.44592 7.98808C3.73271 7.71611 4.01782 7.44234 4.30704 7.17299C4.43953 7.04961 4.58012 6.93492 4.74014 6.80463Z" fill="#FEA3C0"/>
<path d="M5.20822 11.6573C5.26484 11.7059 5.32145 11.7545 5.40154 11.8054C5.45278 11.9341 5.48056 12.0606 5.51887 12.235C5.57096 12.1007 5.60305 12.0179 5.63514 11.9352C5.66367 11.9355 5.69221 11.9358 5.72075 11.9361C5.72075 12.0682 5.72075 12.2003 5.7204 12.3624C5.67647 12.4322 5.63288 12.4717 5.57565 12.5294C5.31918 12.0999 5.07636 11.6522 4.82797 11.1782C4.85869 11.1503 4.89497 11.1488 4.96135 11.1729C5.0637 11.3514 5.13596 11.5043 5.20822 11.6573Z" fill="#FEA9C3"/>
<path d="M7.91219 3.78794C7.65698 3.7384 7.38766 3.5999 7.12354 3.60918C6.72048 3.62335 6.32101 3.73966 5.8912 3.81192C6.23997 3.35031 7.37518 3.29532 7.91219 3.78794Z" fill="#FEA9C3"/>
<path d="M2.05113 10.1933C1.84531 9.60713 1.64173 9.02035 1.43814 8.43356C1.49884 8.41515 1.55954 8.39674 1.62024 8.37833C1.76566 8.96159 1.91108 9.54486 2.05608 10.1584C2.05566 10.1886 2.05336 10.1927 2.05113 10.1933Z" fill="#FED0DE"/>
<path d="M17.1447 6.75056C17.1594 6.74982 17.174 6.74908 17.2107 6.74754C17.506 7.28589 17.5689 7.29796 18.0607 6.91221C18.1062 6.87658 18.1614 6.85342 18.2384 6.82317C18.2634 6.94703 18.2621 7.07219 18.2622 7.2287C17.9522 7.13396 17.6876 7.15255 17.5078 7.52564C17.4729 7.5524 17.4595 7.55186 17.441 7.53432C17.4241 7.49437 17.4053 7.48112 17.3798 7.47909C17.3799 7.48063 17.3828 7.47953 17.3828 7.45174C17.3035 7.19948 17.2241 6.97502 17.1447 6.75056Z" fill="#FEAFC7"/>
<path d="M15.2722 19.4471C15.3551 19.3589 15.4609 19.2912 15.5887 19.2142C15.5798 19.5262 15.7307 19.8834 15.4996 20.1656C15.4569 20.1632 15.4143 20.1608 15.3716 20.1585C15.3461 19.9282 15.3206 19.698 15.2722 19.4471Z" fill="#FEC9DA"/>
<path d="M2.69613 6.41867C2.92938 6.88981 3.15097 7.33867 3.37257 7.78754C3.33322 7.80614 3.29388 7.82475 3.25453 7.84336C3.00765 7.34066 2.76077 6.83796 2.51389 6.33527C2.54472 6.31921 2.57556 6.30316 2.6064 6.28711C2.63242 6.32354 2.65844 6.35997 2.69613 6.41867Z" fill="#FED0DE"/>
<path d="M5.34765 4.43112C5.35826 4.55132 5.33757 4.69989 5.35887 4.84217C5.42184 5.26274 5.50141 5.68081 5.55824 6.12967C5.54199 6.15949 5.50709 6.16137 5.50709 6.16137C5.16867 5.62142 5.10566 5.05376 5.34765 4.43112Z" fill="#FEB1C9"/>
<path d="M17.3085 14.4471C17.3249 14.4481 17.3414 14.4491 17.3827 14.4531C17.2894 14.9023 17.1713 15.3485 17.0532 15.7947C17.0215 15.788 16.9898 15.7813 16.9581 15.7746C16.9912 15.4424 17.0244 15.1101 17.0958 14.7581C17.1913 14.6896 17.2486 14.6408 17.3062 14.5679C17.3071 14.5115 17.3078 14.4793 17.3085 14.4471Z" fill="#FEA9C3"/>
<path d="M15.0057 16.0019C15.0392 15.9869 15.0525 15.9862 15.0896 16.0095C15.2116 16.0256 15.3177 16.0387 15.4063 16.0053C15.5806 15.9396 15.7452 15.848 15.915 15.7683C15.9162 15.7695 15.9186 15.772 15.9186 15.772C15.5837 16.0085 15.2487 16.2451 14.9137 16.4816C14.8807 16.4495 14.8476 16.4174 14.8146 16.3853C14.8716 16.2623 14.9286 16.1393 15.0057 16.0019Z" fill="#FEB1C9"/>
<path d="M16.7266 14.9652C16.4734 15.2308 16.2203 15.4963 15.9429 15.7669C15.9186 15.772 15.9162 15.7695 15.9166 15.7429C16.1848 15.4643 16.4526 15.2123 16.7219 14.9616C16.7235 14.9628 16.7266 14.9652 16.7266 14.9652Z" fill="#FEB1C9"/>
<path d="M4.17996 9.49097C4.21087 9.4647 4.24583 9.46485 4.30818 9.49315C4.47769 9.84107 4.61981 10.1608 4.76193 10.4806C4.73055 10.5063 4.69918 10.5321 4.6462 10.5593C4.47775 10.213 4.33088 9.86518 4.17996 9.49097Z" fill="#FED0DE"/>
<path d="M18.4327 6.59066C18.4663 6.20181 18.5233 5.79982 18.6015 5.37776C18.7363 5.78739 18.6635 6.19165 18.4327 6.59066Z" fill="#FEAFC7"/>
<path d="M14.7331 3.64171C14.427 3.46021 14.1101 3.25645 13.7911 3.02725C14.1001 3.20769 14.4112 3.41358 14.7331 3.64171Z" fill="#FEA9C3"/>
<path d="M8.14096 16.693C8.13086 16.718 8.12077 16.7431 8.09483 16.7809C7.95017 16.4491 7.82134 16.1046 7.69482 15.7283C7.69713 15.6965 7.70719 15.6879 7.72862 15.7009C7.88035 16.0403 8.01066 16.3666 8.14096 16.693Z" fill="#FEC0D3"/>
<path d="M7.40643 18.902C7.43893 18.7047 7.47137 18.5366 7.50381 18.3686C7.54924 18.3776 7.59468 18.3866 7.64012 18.3956C7.59454 18.6485 7.54897 18.9015 7.50339 19.1544C7.47427 19.1505 7.44516 19.1466 7.41604 19.1427C7.41282 19.0722 7.4096 19.0017 7.40643 18.902Z" fill="#FEF4F7"/>
<path d="M5.49591 6.18308C5.50707 6.16136 5.54197 6.15947 5.55942 6.15788C5.66689 6.21654 5.75691 6.27679 5.85733 6.35889C5.64093 6.42935 5.41414 6.47795 5.15842 6.52537C5.24791 6.41772 5.36633 6.31126 5.49591 6.18308Z" fill="#FEA3C0"/>
<path d="M15.3301 4.15141C15.1353 4.02257 14.9397 3.86823 14.7434 3.68794C14.9382 3.81663 15.1338 3.97127 15.3301 4.15141Z" fill="#FEA9C3"/>
<path d="M7.12952 15.0437C7.24794 15.0788 7.36131 15.1414 7.479 15.2537C7.48418 15.334 7.48504 15.3647 7.48193 15.3989C7.47796 15.4025 7.47035 15.41 7.47035 15.41C7.35505 15.2971 7.23976 15.1842 7.12952 15.0437Z" fill="#FEC0D3"/>
<path d="M17.0689 14.6017C17.042 14.6038 17.0152 14.606 16.9652 14.5869C16.9409 14.55 16.9397 14.5342 16.9393 14.4913C16.9984 14.3938 17.0569 14.3233 17.1153 14.2528C17.1538 14.3664 17.1924 14.48 17.2039 14.5939C17.1409 14.5966 17.1049 14.5992 17.0689 14.6017Z" fill="#FEA9C3"/>
<path d="M16.9386 14.5183C16.9397 14.5341 16.9409 14.55 16.9452 14.5896C16.8883 14.7223 16.8283 14.8313 16.7475 14.9528C16.7266 14.9652 16.7235 14.9628 16.7216 14.9352C16.7926 14.7779 16.8656 14.6481 16.9386 14.5183Z" fill="#FEB1C9"/>
<path d="M5.10698 6.5256C5.04677 6.59703 4.96256 6.67195 4.84949 6.74552C4.90807 6.67248 4.99553 6.60079 5.10698 6.5256Z" fill="#FEA3C0"/>
<path d="M19.2399 10.1209C19.2727 10.0512 19.3297 9.97783 19.4123 9.90338C19.38 9.97393 19.3221 10.0455 19.2399 10.1209Z" fill="#FEA9C3"/>
<path d="M17.0722 14.6242C17.1049 14.5992 17.1409 14.5966 17.2227 14.5937C17.2809 14.5928 17.2934 14.5924 17.3059 14.592C17.2486 14.6408 17.1913 14.6896 17.1073 14.738C17.0789 14.7072 17.0772 14.677 17.0722 14.6242Z" fill="#FEAFC7"/>
<path d="M7.69231 15.7011C7.63971 15.6485 7.59193 15.5914 7.54688 15.5055C7.5496 15.4767 7.55841 15.4683 7.57701 15.4774C7.63174 15.5061 7.66787 15.5256 7.70401 15.5451C7.70401 15.5451 7.69967 15.5457 7.70054 15.5684C7.70334 15.6234 7.70527 15.6556 7.7072 15.6879C7.7072 15.6879 7.69714 15.6965 7.69231 15.7011Z" fill="#FEC0D3"/>
<path d="M18.1178 4.5247C18.0873 4.5318 18.041 4.5208 17.9814 4.48955C18.0127 4.48174 18.0573 4.49416 18.1178 4.5247Z" fill="#FEB1C9"/>
<path d="M18.2803 6.81141C18.274 6.78181 18.2862 6.73964 18.3179 6.6861C18.3245 6.7161 18.3116 6.75747 18.2803 6.81141Z" fill="#FEAFC7"/>
<path d="M19.1374 8.19451C19.1236 8.19875 19.103 8.18496 19.0751 8.15369C19.0887 8.14964 19.1096 8.16306 19.1374 8.19451Z" fill="#FEA9C3"/>
<path d="M7.54517 15.4808C7.51875 15.4751 7.5009 15.4604 7.47878 15.4254C7.47039 15.41 7.478 15.4025 7.49763 15.4071C7.53662 15.4265 7.55035 15.4453 7.55843 15.4683C7.55843 15.4683 7.54962 15.4767 7.54517 15.4808Z" fill="#FEC0D3"/>
<path d="M5.84761 3.8166C5.85032 3.83024 5.83457 3.85138 5.79957 3.87934C5.7966 3.86548 5.81287 3.84479 5.84761 3.8166Z" fill="#FEA9C3"/>
<path d="M18.3535 6.6712C18.3487 6.65629 18.3623 6.63584 18.3932 6.60834C18.3977 6.62274 18.3848 6.6442 18.3535 6.6712Z" fill="#FEAFC7"/>
<path d="M19.0691 8.12059C19.0602 8.11919 19.0518 8.09962 19.0541 8.07326C19.0648 8.06647 19.0697 8.10241 19.0691 8.12059Z" fill="#FEA9C3"/>
<path d="M18.3407 4.83342C18.3669 4.83856 18.3852 4.85254 18.4084 4.88703C18.4177 4.90187 18.4085 4.91081 18.3885 4.90611C18.3501 4.88568 18.3373 4.86621 18.3301 4.84299C18.3301 4.84299 18.3371 4.83658 18.3407 4.83342Z" fill="#FEC9DA"/>
<path d="M19.8771 9.47187C19.8835 9.47159 19.8937 9.48317 19.9039 9.49475C19.8962 9.49108 19.8886 9.4874 19.8771 9.47187Z" fill="#FEA9C3"/>
<path d="M15.5871 4.47264C15.6012 4.48426 15.608 4.49593 15.6187 4.52746C15.5972 4.54368 15.5786 4.53048 15.566 4.4901C15.5652 4.47249 15.5798 4.47269 15.5871 4.47264Z" fill="#FEFCFD"/>
<path d="M3.44406 7.993C3.43262 7.9802 3.42384 7.96781 3.41507 7.95541C3.42303 7.95863 3.43098 7.96185 3.44242 7.97657C3.4459 7.98808 3.44672 7.99341 3.44406 7.993Z" fill="#FED0DE"/>
<path d="M15.3839 4.17413C15.3815 4.18515 15.3606 4.19289 15.3342 4.18806C15.3409 4.17395 15.3532 4.17239 15.3839 4.17413Z" fill="#FEA9C3"/>
<path d="M8.06416 3.94048C8.04977 3.94508 8.02915 3.93161 8.00165 3.90056C8.01582 3.89612 8.03688 3.90926 8.06416 3.94048Z" fill="#FEA9C3"/>
<path d="M7.9907 3.86717C7.97631 3.8717 7.95562 3.85818 7.92804 3.82701C7.94223 3.82261 7.96331 3.83587 7.9907 3.86717Z" fill="#FEA9C3"/>
<path d="M15.1233 13.8741C14.9672 14.3913 14.6016 14.7607 14.1259 14.9209C13.174 15.2414 12.1952 15.4833 11.2229 15.7401C11.0937 15.7742 10.9163 15.7445 10.7973 15.6789C10.0005 15.24 9.18932 14.82 8.43112 14.3205C7.86148 13.9453 7.54322 13.3639 7.49838 12.6057C7.40796 12.1868 7.33829 11.8176 7.26862 11.4484C7.42337 11.6328 7.57812 11.8173 7.75338 12.0404C7.80022 12.1262 7.81579 12.1986 7.85499 12.2152C7.95666 12.2582 8.06873 12.2767 8.21148 12.3141C8.28652 12.3084 8.41315 12.2988 8.56801 12.287C8.57031 12.2394 8.57544 12.1332 8.59074 12.023C8.59381 12.0213 8.5867 12.0237 8.55228 12.0256C8.42944 11.9561 8.33392 11.887 8.25442 11.8296C8.1118 11.873 7.98091 11.9129 7.85002 11.9528C7.7744 11.726 7.69879 11.4992 7.62184 11.211C7.66667 10.8837 7.71282 10.6177 7.76323 10.3766C7.79893 10.4674 7.83037 10.5333 7.86066 10.5969C7.95528 10.3461 8.0414 10.1179 8.1523 9.88399C8.33793 9.78879 8.4988 9.6992 8.6614 9.63624C8.59461 9.77647 8.5142 9.88468 8.45968 10.0046C8.26211 10.4394 8.14966 10.8749 8.5197 11.3123C8.66562 11.4216 8.8026 11.5077 8.95427 11.6102C9.01085 11.6366 9.05274 11.6466 9.12472 11.6583C9.36121 11.5886 9.56762 11.517 9.78531 11.4404C9.81151 11.4265 9.82054 11.4136 9.84785 11.3857C10.3492 10.9489 10.3364 10.4351 10.1716 9.88895C10.2496 9.79317 10.3248 9.69922 10.3338 9.59933C10.3536 9.37895 10.3399 9.15557 10.3399 8.84415C10.5688 9.26075 10.7458 9.58306 10.9275 9.92906C10.9842 10.0241 11.0363 10.0955 11.0938 10.1744C11.1458 10.0585 11.1831 9.97541 11.2204 9.89235C11.2769 10.0344 11.3335 10.1765 11.4135 10.3772C11.6312 10.2178 11.8179 10.0811 12.0188 9.90475C12.033 9.86506 12.0313 9.82941 12.0313 9.82941C12.0313 9.82941 12.0263 9.82803 12.0536 9.82702C12.3421 9.54951 12.6034 9.27302 12.897 8.96235C12.8811 9.12085 12.8708 9.22277 12.8606 9.32469C12.8972 9.33163 12.9337 9.33857 12.9703 9.34551C13.0705 8.96844 13.1708 8.59137 13.271 8.2143C13.2726 8.1823 13.2742 8.1503 13.2941 8.08181C13.3277 8.00601 13.3431 7.9667 13.3792 7.91645C13.4997 7.8676 13.5994 7.8297 13.7037 7.81906C13.8754 8.33686 14.0427 8.82739 14.2123 9.34124C14.256 9.37105 14.3315 9.38886 14.3336 9.38239C14.4483 9.03608 14.5568 8.68772 14.6896 8.35073C14.771 8.45984 14.8287 8.55781 14.8857 8.6885C14.9112 9.07499 14.9374 9.42876 14.9341 9.77767C14.3641 9.57609 13.8311 9.47223 13.3175 9.90285C13.2004 9.95036 13.1077 9.99601 13.0111 10.0436C13.089 10.1401 13.1471 10.212 13.1914 10.3055C12.8501 10.9559 12.8814 11.4408 13.2768 11.8388C13.5394 12.2387 13.893 12.0735 14.2544 12.0298C14.6521 12.0355 14.8112 11.7874 14.8609 11.4846C14.9285 11.073 14.9243 10.6562 14.6875 10.292C15.2956 10.4927 15.1386 11.0165 15.2826 11.4529C15.346 11.2285 15.4095 11.0042 15.5006 10.7851C15.5489 10.8824 15.5938 10.9766 15.5859 11.0661C15.5556 11.4094 15.5085 11.7511 15.448 12.1109C15.393 12.2645 15.3576 12.4007 15.3245 12.5384C15.3267 12.54 15.3221 12.5371 15.2995 12.5483C15.2176 12.6825 15.1583 12.8055 15.0991 12.9285C15.1518 12.9676 15.2045 13.0068 15.2573 13.0459C15.3077 12.9522 15.3581 12.8586 15.4308 12.7642C15.4829 12.7638 15.5127 12.7641 15.5408 12.7914C15.4908 12.9976 15.4425 13.1768 15.3902 13.3666C15.3863 13.3773 15.3846 13.4 15.3606 13.4061C15.2583 13.5112 15.1799 13.6103 15.1027 13.7114C15.104 13.7135 15.1027 13.7092 15.0889 13.7155C15.0857 13.7429 15.0963 13.7638 15.111 13.8072C15.1178 13.8444 15.1205 13.8592 15.1233 13.8741ZM10.2639 14.2868C10.3293 14.6816 10.6111 14.8702 10.961 14.929C11.4511 15.0113 11.963 15.0529 12.2173 14.4926C12.2779 14.2234 12.3662 13.956 12.3851 13.6838C12.3922 13.5817 12.258 13.4037 12.154 13.372C11.8073 13.2661 11.4469 13.1651 11.0882 13.1509C10.8116 13.1399 10.4171 13.0473 10.2853 13.3886C10.1896 13.6362 10.263 13.9491 10.2639 14.2868ZM8.83409 12.3333C9.15557 12.3452 8.97866 12.1758 8.99557 12.0769C8.956 12.0627 8.91643 12.0485 8.87686 12.0342C8.84776 12.1257 8.81867 12.2173 8.83409 12.3333Z" fill="#FEFCFD"/>
<path d="M15.5425 12.7643C15.5127 12.764 15.4829 12.7638 15.41 12.7489C15.3519 12.6686 15.337 12.6029 15.3221 12.5371C15.3221 12.5371 15.3267 12.54 15.3488 12.5276C15.4052 12.4008 15.4394 12.2863 15.4943 12.1542C15.7685 11.464 15.6992 10.7759 15.6696 10.0234C15.5494 10.1985 15.4766 10.3043 15.3991 10.3853C15.3439 10.2374 15.2935 10.1144 15.2464 9.96019C15.2509 9.84602 15.2521 9.76312 15.2783 9.66664C15.36 9.31794 15.4364 8.98449 15.4651 8.64699C15.479 8.4834 15.6757 8.27276 15.3973 8.11387C15.2042 7.98255 15.0139 7.87723 14.8166 7.74984C14.7625 7.69707 14.7154 7.66638 14.6571 7.60842C14.6033 7.35231 14.5607 7.12345 14.5181 6.89459C14.5549 6.87499 14.5918 6.8554 14.6816 6.82802C14.9293 6.81865 15.1342 6.85598 15.3168 6.80827C15.9007 6.6558 16.3869 6.88232 16.8665 7.15675C17.0425 7.25748 17.2109 7.37155 17.3828 7.47953C17.3828 7.47953 17.3799 7.48063 17.3859 7.49533C17.4052 7.53009 17.4233 7.54385 17.4461 7.55133C17.4595 7.55186 17.4729 7.5524 17.5064 7.55303C17.5265 7.55313 17.5267 7.55333 17.5265 7.57775C17.5266 7.63455 17.5269 7.66693 17.5239 7.72735C17.5149 7.87168 17.4974 7.9888 17.5055 8.10414C17.5584 8.85814 17.6399 9.61099 17.665 10.3658C17.6804 10.8283 17.6122 11.2935 17.5816 11.7575C17.8365 10.8833 17.8848 9.99977 17.7674 9.10441C17.7483 8.95914 17.8 8.80459 17.8229 8.68329C17.8984 9.18112 17.97 9.64999 18.0412 10.1436C18.0413 10.2013 18.042 10.2343 18.0427 10.2673C18.0659 10.5384 18.0891 10.8095 18.1124 11.1136C18.0658 11.4778 18.0376 11.8131 17.9627 12.1377C17.9359 12.254 17.7965 12.3443 17.6668 12.4948C17.5614 13.061 17.4378 13.7255 17.3113 14.4185C17.3078 14.4793 17.3071 14.5115 17.3061 14.5679C17.2934 14.5924 17.2809 14.5928 17.2497 14.5935C17.1924 14.48 17.1539 14.3664 17.1153 14.2528C17.0569 14.3233 16.9984 14.3938 16.9393 14.4913C16.8656 14.6481 16.7926 14.7779 16.72 14.934C16.4526 15.2123 16.1848 15.4643 15.9154 15.7417C15.7452 15.848 15.5806 15.9396 15.4063 16.0053C15.3177 16.0387 15.2116 16.0256 15.1097 16.0096C15.6481 15.1816 16.2708 13.5327 16.2672 12.8324C16.1523 12.9357 16.0727 13.0072 15.9642 13.1048C15.8546 13.2011 15.7738 13.2715 15.6668 13.3462C15.5553 13.367 15.4699 13.3835 15.3846 13.4C15.3846 13.4 15.3863 13.3773 15.4127 13.3526C15.6446 12.8818 15.8502 12.4357 16.0557 11.9896C16.0052 11.9675 15.9546 11.9454 15.9041 11.9232C15.7836 12.2036 15.663 12.484 15.5425 12.7643Z" fill="#FEC9DA"/>
<path d="M17.3828 7.45174C17.2109 7.37155 17.0425 7.25748 16.8664 7.15675C16.3869 6.88232 15.9006 6.65581 15.3168 6.80828C15.1341 6.85598 14.9292 6.81865 14.7009 6.82005C14.9264 6.64804 15.2111 6.50442 15.4396 6.29845C15.8965 5.88657 15.9727 5.42915 15.7393 4.84976C15.7171 4.79453 15.7074 4.73425 15.6928 4.64694C15.8021 4.71145 15.9105 4.80533 16.0448 4.92582C16.0816 4.96931 16.0966 4.98121 16.1155 4.98812C16.4467 5.56447 16.7779 6.14081 17.1269 6.73387C17.2241 6.97503 17.3035 7.19949 17.3828 7.45174Z" fill="#FEFCFD"/>
<path d="M6.00719 7.52671C5.9475 7.61768 5.89104 7.68808 5.81516 7.77119C5.86555 7.53753 5.93409 7.29078 6.00596 7.04501C6.02873 6.96715 6.06037 6.89189 6.11322 6.78114C6.24472 6.55161 6.35095 6.35639 6.45718 6.16117C6.45718 6.16117 6.45377 6.15953 6.47295 6.15634C6.50495 6.13121 6.51776 6.10926 6.53058 6.08732C6.53058 6.08732 6.52652 6.0869 6.54715 6.07652C6.6053 5.99867 6.64282 5.93119 6.69055 5.84914C6.71815 5.80361 6.73554 5.77266 6.77299 5.72674C6.85227 5.61757 6.91148 5.52335 6.96955 5.42765C6.9684 5.42617 6.96765 5.42984 6.98719 5.42325C7.02479 5.39593 7.04285 5.3752 7.07324 5.34813C7.10048 5.32976 7.10987 5.31435 7.13162 5.28472C7.18583 5.25397 7.22214 5.2341 7.25845 5.21422C7.27133 5.7661 7.65695 6.0068 8.08932 6.20716C8.21333 6.26462 8.34006 6.31622 8.45991 6.41717C7.67871 6.28385 7.00167 6.56168 6.36256 7.01478C6.34932 6.966 6.33607 6.91721 6.32283 6.86843C6.25065 7.00825 6.17847 7.14807 6.09458 7.32906C6.08288 7.37022 6.07539 7.40506 6.07539 7.40506C6.05373 7.43876 6.03208 7.47245 6.00719 7.52671Z" fill="#FEF9FB"/>
<path d="M10.9228 9.90538C10.7458 9.58306 10.5688 9.26075 10.3399 8.84415C10.3399 9.15557 10.3536 9.37895 10.3338 9.59933C10.3248 9.69922 10.2496 9.79317 10.1582 9.87798C10.1147 9.75824 10.1174 9.65034 10.1199 9.51264C9.98133 8.98457 9.84303 8.4863 9.70474 7.98802C9.6557 7.98755 9.60666 7.98707 9.55762 7.9866C9.42895 8.21021 9.30028 8.43382 9.151 8.64059C9.24028 8.31581 9.35017 8.00788 9.46405 7.71009C9.47429 7.72384 9.48055 7.72746 9.4868 7.73108C9.47786 7.72073 9.46891 7.71038 9.45999 7.67053C9.48394 7.4901 9.50786 7.33917 9.55985 7.18787C9.68717 7.21756 9.78509 7.26236 9.88623 7.27148C9.93716 7.27607 9.99393 7.2159 10.0481 7.18501C10.1906 7.26875 10.3331 7.35248 10.4756 7.43621C10.4584 7.46985 10.4412 7.50349 10.424 7.53712C10.3188 7.49895 10.2135 7.46078 10.0731 7.40983C9.94142 7.942 9.88126 8.43637 10.1702 9.00486C10.2539 8.77297 10.31 8.61743 10.3702 8.4506C10.5491 8.83118 10.7124 9.17857 10.9038 9.55466C10.929 9.6907 10.9259 9.79804 10.9228 9.90538Z" fill="#FEB6CC"/>
<path d="M8.44282 7.77528C8.46442 7.74371 8.48602 7.71215 8.52851 7.64671C8.58609 7.54504 8.62279 7.47726 8.6779 7.40045C8.73002 7.36831 8.76373 7.34518 8.82475 7.33066C8.88126 7.3871 8.93718 7.43585 8.93557 7.48263C8.91803 7.99255 8.89149 8.50216 8.83888 9.01387C8.51365 9.16405 8.21694 9.31222 7.90186 9.44366C8.06993 8.87639 8.25638 8.32583 8.44282 7.77528Z" fill="#FEFCFD"/>
<path d="M8.41614 7.77775C8.25635 8.32582 8.06991 8.87638 7.88998 9.46896C7.85064 9.79122 7.80479 10.0714 7.75894 10.3517C7.71279 10.6177 7.66664 10.8836 7.61804 11.1826C7.5704 11.1437 7.49001 11.0741 7.48525 10.9997C7.39385 9.57127 7.67551 8.20844 8.22815 6.89592C8.24022 6.86724 8.28072 6.85053 8.33397 6.82412C8.35998 6.81999 8.36023 6.82016 8.36023 6.82016C8.12853 7.59303 7.89683 8.36589 7.66513 9.13875C7.69756 9.15048 7.72998 9.1622 7.7624 9.17393C7.88911 8.83802 8.00743 8.49858 8.14651 8.16788C8.20486 8.02914 8.30717 7.90888 8.41614 7.77775Z" fill="#FEB6CC"/>
<path d="M13.2441 8.21699C13.1708 8.59137 13.0705 8.96844 12.9703 9.34551C12.9337 9.33857 12.8972 9.33163 12.8606 9.32469C12.8709 9.22277 12.8811 9.12085 12.897 8.96235C12.6034 9.27302 12.3422 9.54951 12.0557 9.82855C12.3611 9.1419 12.6916 8.45269 13.0221 7.76349C13.0333 7.7651 13.0445 7.7667 13.0557 7.76831C12.9637 8.06519 12.8717 8.36208 12.7499 8.75556C12.9515 8.5243 13.0843 8.37199 13.2441 8.21699Z" fill="#FEB6CC"/>
<path d="M14.4973 6.91502C14.5607 7.12345 14.6033 7.35231 14.6571 7.63745C14.6676 7.90902 14.6668 8.1243 14.6659 8.33958C14.5568 8.68772 14.4483 9.03608 14.3336 9.38239C14.3314 9.38886 14.256 9.37105 14.2368 9.32337C14.3052 9.01035 14.3438 8.73698 14.3991 8.46703C14.5281 7.83793 14.455 7.74272 13.7809 7.68333C13.7531 7.62667 13.7336 7.58944 13.714 7.5522C13.726 7.55242 13.738 7.55276 13.75 7.55283C14.3948 7.55691 14.3948 7.5569 14.4973 6.91502Z" fill="#FEB1C9"/>
<path d="M6.96892 10.9278C6.84976 9.52765 6.74107 8.12856 7.30579 6.79425C7.33705 6.79892 7.36831 6.8036 7.39956 6.80827C7.30486 7.15288 7.20216 7.49552 7.11696 7.84246C6.85877 8.89371 6.95775 9.93425 7.19231 10.9655C7.09548 10.9512 7.0322 10.9395 6.96892 10.9278Z" fill="#FEAFC7"/>
<path d="M6.97183 10.9569C7.03218 10.9395 7.09547 10.9512 7.17387 10.9825C7.21348 11.1315 7.23798 11.261 7.26554 11.4195C7.33827 11.8176 7.40795 12.1868 7.47872 12.5847C7.21793 12.8297 7.10351 12.4359 6.85823 12.473C6.83078 12.2896 6.83078 12.103 6.83078 11.9164C6.86297 11.9069 6.89516 11.8974 6.92735 11.8879C7.01542 12.0165 7.1035 12.1451 7.19157 12.2736C7.21006 12.2675 7.22856 12.2615 7.24705 12.2554C7.15629 11.8323 7.06552 11.4091 6.97183 10.9569Z" fill="#FEA3C0"/>
<path d="M8.7974 7.32206C8.76369 7.34518 8.72999 7.36831 8.65815 7.39942C8.60691 7.40715 8.59379 7.40689 8.58067 7.40663C8.56443 7.34209 8.51398 7.24101 8.53753 7.21898C8.68534 7.08061 8.84962 6.95984 9.00472 6.93347C9.33849 6.9713 9.67225 7.00912 10.0418 7.051C10.0393 7.01707 10.0435 7.07496 10.0478 7.15893C9.99389 7.2159 9.93712 7.27607 9.88618 7.27148C9.78504 7.26236 9.68712 7.21756 9.53561 7.1768C9.25471 7.21808 9.02605 7.27007 8.7974 7.32206Z" fill="#FEAFC7"/>
<path d="M10.3402 4.03282C10.0887 4.20235 9.83714 4.37187 9.56239 4.51722C9.56169 4.38776 9.58419 4.28247 9.6067 4.17718C9.64215 4.13504 9.6776 4.0929 9.75455 4.04064C9.83081 4.00637 9.86558 3.98221 9.90034 3.95806C9.95728 3.91103 10.0142 3.864 10.1248 3.8152C10.3056 3.86249 10.4328 3.91155 10.56 3.96061C10.56 3.96061 10.56 3.95995 10.5355 3.95997C10.454 3.98428 10.3971 4.00855 10.3402 4.03282Z" fill="#FEC0D3"/>
<path d="M8.58057 12.0271C8.57545 12.1332 8.57032 12.2394 8.56802 12.287C8.41316 12.2988 8.28653 12.3084 8.21149 12.3141C8.06874 12.2767 7.95667 12.2582 7.855 12.2152C7.8158 12.1986 7.80023 12.1262 7.77338 12.0544C7.79254 12.0148 7.81222 12.0001 7.84096 11.9691C7.98092 11.9129 8.11181 11.873 8.25443 11.8296C8.33393 11.887 8.42945 11.9561 8.5525 12.0259C8.58002 12.0267 8.58057 12.0271 8.58057 12.0271Z" fill="#FEF4F7"/>
<path d="M13.7136 3.81294C14.0602 3.96266 14.2769 4.23073 14.4403 4.5473C14.4182 4.57962 14.3961 4.61193 14.3739 4.64425C14.1731 4.53391 13.9722 4.42358 13.8231 4.34163C13.7807 4.14985 13.7491 4.00691 13.7154 3.83866C13.7133 3.81334 13.7136 3.81294 13.7136 3.81294Z" fill="#FEAFC7"/>
<path d="M13.7035 7.52798C13.7336 7.58943 13.7531 7.62666 13.7699 7.70166C13.7445 7.75688 13.7218 7.77433 13.6991 7.79178C13.5994 7.82969 13.4997 7.8676 13.3579 7.91388C13.3017 7.9215 13.2876 7.92075 13.2734 7.92C13.3141 7.64185 13.3548 7.36369 13.3955 7.08554C13.4306 7.07689 13.4656 7.06824 13.5006 7.05959C13.5647 7.20765 13.6289 7.35571 13.7035 7.52798Z" fill="#FEA3C0"/>
<path d="M10.5871 3.95759C10.4328 3.91156 10.3056 3.8625 10.148 3.81341C10.3581 3.71662 10.5931 3.59809 10.8422 3.53505C10.9278 3.51338 11.0485 3.63032 11.2274 3.72197C10.9469 3.82838 10.7806 3.89147 10.5871 3.95759Z" fill="#FEAFC7"/>
<path d="M10.9275 9.92906C10.9259 9.79804 10.929 9.6907 10.9298 9.55893C10.9276 9.43891 10.9276 9.34333 10.9276 9.24775C10.9493 9.2424 10.9711 9.23706 10.9929 9.23172C11.0682 9.43186 11.1436 9.63199 11.2197 9.86224C11.1831 9.97541 11.1459 10.0585 11.0938 10.1744C11.0363 10.0955 10.9843 10.0241 10.9275 9.92906Z" fill="#FEA9C3"/>
<path d="M9.58472 4.18871C9.58417 4.28247 9.56167 4.38776 9.53664 4.52003C9.39447 4.69663 9.25482 4.84627 9.11517 4.9959C9.07552 4.96163 9.03587 4.92735 8.99622 4.89307C9.18507 4.66212 9.37392 4.43118 9.58472 4.18871Z" fill="#FEAFC7"/>
<path d="M7.26818 5.19105C7.22213 5.23409 7.18582 5.25397 7.13104 5.25734C7.16174 5.13166 7.2109 5.02249 7.28199 4.90282C7.38753 4.77822 7.47114 4.66411 7.55475 4.55001C7.60944 4.5487 7.66414 4.54739 7.74619 4.54626C7.60834 4.7536 7.44313 4.96074 7.26818 5.19105Z" fill="#FEA3C0"/>
<path d="M13.4138 3.70894C13.2567 3.79938 13.1095 3.86902 12.9622 3.93866C12.9455 3.90533 12.9288 3.87199 12.9121 3.83865C13.0163 3.65823 13.2051 3.64389 13.4138 3.70894Z" fill="#FEAFC7"/>
<path d="M10.0469 6.74653C10.0625 6.63932 10.0781 6.53211 10.0936 6.4249C10.1231 6.43017 10.1525 6.43544 10.182 6.44071C10.1629 6.52576 10.1438 6.61081 10.104 6.72123C10.0832 6.74661 10.0469 6.74653 10.0469 6.74653Z" fill="#FEAFC7"/>
<path d="M8.56069 7.4227C8.59381 7.40689 8.60693 7.40715 8.63976 7.40844C8.62277 7.47726 8.58607 7.54504 8.52976 7.62676C8.52033 7.57339 8.53051 7.50608 8.56069 7.4227Z" fill="#FEB6CC"/>
<path d="M13.2566 7.93104C13.2876 7.92075 13.3017 7.9215 13.3371 7.92482C13.343 7.9667 13.3277 8.00601 13.2951 8.0578C13.2651 8.02754 13.2524 7.98481 13.2566 7.93104Z" fill="#FEB6CC"/>
<path d="M10.365 4.03287C10.3971 4.00856 10.454 3.98429 10.5358 3.95998C10.5037 3.98426 10.4467 4.00859 10.365 4.03287Z" fill="#FEAFC7"/>
<path d="M6.2442 13.0361C6.23532 13.1094 6.21947 13.1519 6.18105 13.1982C6.16887 13.1288 6.17927 13.0555 6.21048 12.9622C6.23327 12.9632 6.23525 12.9842 6.2442 13.0361Z" fill="#FFFEFF"/>
<path d="M9.87829 3.96021C9.86554 3.98222 9.83078 4.00637 9.77368 4.03197C9.78633 4.00973 9.8213 3.98604 9.87829 3.96021Z" fill="#FEAFC7"/>
<path d="M8.35986 6.81987C8.36878 6.78804 8.37783 6.75636 8.38688 6.72467C8.38808 6.75048 8.38928 6.7763 8.37536 6.81114C8.36024 6.82017 8.36 6.82 8.35986 6.81987Z" fill="#FEB6CC"/>
<path d="M13.7131 3.81355C13.681 3.80465 13.6492 3.79554 13.6173 3.78643C13.6434 3.78514 13.6694 3.78384 13.7045 3.79774C13.7136 3.81294 13.7133 3.81334 13.7131 3.81355Z" fill="#FEAFC7"/>
<path d="M7.79529 4.54649C7.8074 4.5227 7.84176 4.49853 7.89832 4.47368C7.88619 4.49736 7.85187 4.52174 7.79529 4.54649Z" fill="#FEA3C0"/>
<path d="M7.44682 6.63431C7.44889 6.63758 7.44476 6.63103 7.44682 6.63431Z" fill="#FEAFC7"/>
<path d="M6.08938 7.40098C6.07536 7.40506 6.08285 7.37023 6.08613 7.35273C6.10074 7.34904 6.11289 7.36233 6.12233 7.37732C6.12348 7.37914 6.11006 7.39015 6.08938 7.40098Z" fill="#FEB6CC"/>
<path d="M10.0532 6.75831C10.0469 6.74652 10.0832 6.74659 10.1014 6.74651C10.0995 6.75431 10.0795 6.7622 10.0532 6.75831Z" fill="#FEB6CC"/>
<path d="M15.626 4.56208C15.6401 4.55774 15.6609 4.57139 15.6887 4.60273C15.6747 4.60697 15.6537 4.59352 15.626 4.56208Z" fill="#FEFCFD"/>
<path d="M12.018 9.83447C12.0313 9.82942 12.0329 9.86507 12.03 9.88267C12.0141 9.88763 12.0004 9.87571 11.9894 9.86161C11.9878 9.85949 11.9993 9.84714 12.018 9.83447Z" fill="#FEB6CC"/>
<path d="M7.93636 4.46646C7.93298 4.45386 7.94644 4.43391 7.97686 4.40674C7.98027 4.41938 7.96673 4.43924 7.93636 4.46646Z" fill="#FEA3C0"/>
<path d="M9.57794 18.3339C9.57938 18.256 9.58082 18.1781 9.60513 18.0596C9.84569 17.7788 10.0264 17.482 10.2888 17.3098C10.8433 16.9458 11.4385 16.6432 12.0225 16.3255C12.0996 16.2835 12.2086 16.3 12.3028 16.2894C12.3077 16.4363 12.3126 16.5833 12.2994 16.7771C12.2687 16.9125 12.2561 17.001 12.2377 17.1298C12.3182 17.0662 12.3621 17.0316 12.406 16.9969C12.7296 17.3795 12.435 17.7032 12.2878 18.0245C12.1466 18.3324 11.9352 18.6076 11.7835 18.9115C11.6376 19.2037 11.4423 19.2012 11.226 19.0344C10.8032 18.7085 10.3608 18.6885 9.85673 18.8774C9.74183 18.6808 9.65989 18.5073 9.57794 18.3339Z" fill="#FEFCFD"/>
<path d="M12.3126 16.2612C12.2086 16.3 12.0996 16.2835 12.0225 16.3255C11.4385 16.6432 10.8433 16.9458 10.2888 17.3098C10.0264 17.482 9.84569 17.7788 9.60278 18.0305C9.36068 17.6554 9.44675 17.0221 9.70828 16.692C9.84038 16.5252 9.88875 16.2921 9.9931 16.0464C10.5894 16.5498 11.1581 16.1522 11.7414 15.9511C11.9336 15.8848 12.1268 15.8217 12.4025 15.7295C12.3684 15.9438 12.3454 16.0884 12.3126 16.2612Z" fill="#FEC7D8"/>
<path d="M7.72865 15.7009C7.70529 15.6556 7.70337 15.6234 7.70203 15.5668C7.84816 15.5983 7.9937 15.6541 8.17541 15.7231C8.22753 15.7323 8.24348 15.7281 8.25944 15.724C8.24823 15.7099 8.23702 15.6959 8.22581 15.6819C8.22326 15.6266 8.2207 15.5713 8.21367 15.4187C8.41475 15.6523 8.55634 15.8167 8.72853 16.0171C8.82108 16.1705 8.88302 16.2881 8.94497 16.4056C8.69537 16.5044 8.44578 16.6031 8.16859 16.6974C8.01069 16.3666 7.88039 16.0403 7.72865 15.7009Z" fill="#FEF9FB"/>
<path d="M15.693 13.3419C15.7738 13.2715 15.8546 13.2011 15.959 13.129C15.9709 13.2738 16.0092 13.4541 15.9376 13.5603C15.7639 13.8179 15.5153 13.9804 15.1491 13.8715C15.1206 13.8592 15.1178 13.8444 15.1104 13.7882C15.1048 13.7344 15.1037 13.7218 15.1027 13.7092C15.1027 13.7092 15.104 13.7135 15.1308 13.7127C15.336 13.5885 15.5145 13.4652 15.693 13.3419Z" fill="#FEC0D3"/>
<path d="M8.97053 16.4046C8.88302 16.2881 8.82108 16.1705 8.74707 16.0356C8.82205 15.9392 8.90911 15.8601 9.04162 15.7398C9.14371 15.8538 9.24859 15.9709 9.35348 16.088C9.23435 16.1932 9.11522 16.2984 8.97053 16.4046Z" fill="#FEF4F7"/>
<path d="M11.1359 19.6652C10.7848 19.3457 10.4259 19.0745 9.93054 19.5549C10.0344 19.268 10.2013 19.1462 10.5003 19.1666C10.7791 19.1857 11.0595 19.2571 11.154 19.6179C11.1495 19.6512 11.1359 19.6652 11.1359 19.6652Z" fill="#FED0DE"/>
<path d="M9.56401 18.355C9.65987 18.5073 9.74182 18.6808 9.82935 18.8797C9.49241 18.8621 9.57617 18.5895 9.56401 18.355Z" fill="#FEC7D8"/>
<path d="M12.4028 16.9739C12.3621 17.0316 12.3182 17.0662 12.2377 17.1298C12.256 17.001 12.2687 16.9125 12.3003 16.8087C12.3461 16.8459 12.3729 16.8984 12.4028 16.9739Z" fill="#FEC7D8"/>
<path d="M7.57699 15.4774C7.55032 15.4453 7.53659 15.4265 7.50157 15.4035C7.48505 15.3647 7.48419 15.334 7.48163 15.2803C7.56001 15.337 7.64009 15.4167 7.71208 15.5207C7.66786 15.5256 7.63172 15.506 7.57699 15.4774Z" fill="#FEF9FB"/>
<path d="M11.1565 19.6444C11.1747 19.6527 11.1858 19.6678 11.1969 19.6828C11.1818 19.6852 11.1667 19.6876 11.1438 19.6776C11.1359 19.6652 11.1495 19.6512 11.1565 19.6444Z" fill="#FED0DE"/>
<path d="M14.0007 15.98C14.0086 15.9554 14.0267 15.9412 14.0449 15.927C14.0497 15.9473 14.0545 15.9675 14.0454 15.9995C14.0316 16.0112 14.0109 15.9905 14.0007 15.98Z" fill="#FFFEFF"/>
<path d="M3.54212 14.836C3.63965 14.7109 3.72339 14.6091 3.80713 14.5072C3.8353 14.5279 3.86346 14.5486 3.89163 14.5694C3.57076 15.159 3.24988 15.7487 2.929 16.3384C2.89271 16.3213 2.85642 16.3043 2.82013 16.2872C3.0562 15.8112 3.29227 15.3352 3.54212 14.836Z" fill="#FED0DE"/>
<path d="M6.13688 13.2112C6.15195 13.2877 6.14284 13.378 6.10976 13.482C6.09476 13.4055 6.10372 13.3153 6.13688 13.2112Z" fill="#FFFEFF"/>
<path d="M6.43407 6.17093C6.35095 6.3564 6.24472 6.55162 6.11328 6.75336C6.04832 6.67127 6.00856 6.58265 5.9538 6.47332C6.09619 6.36196 6.25357 6.27132 6.43407 6.17093Z" fill="#FEA3C0"/>
<path d="M5.87332 6.39589C5.88576 6.39283 5.90585 6.40665 5.93348 6.43743C5.92101 6.44052 5.90099 6.42665 5.87332 6.39589Z" fill="#FEA3C0"/>
<path d="M6.75293 5.74171C6.73554 5.77267 6.71815 5.80362 6.66517 5.85001C6.59588 5.86583 6.56219 5.86622 6.5285 5.86661C6.5207 5.56037 6.49487 5.25317 6.51113 4.94822C6.52289 4.72786 6.59056 4.51047 6.71121 4.29303C6.73347 4.46218 6.75574 4.63133 6.79898 4.82021C6.81995 4.83994 6.81974 4.8394 6.81611 4.86882C6.79056 5.09855 6.76866 5.29885 6.74676 5.5293C6.74883 5.6202 6.75088 5.68096 6.75293 5.74171Z" fill="#FEB1C9"/>
<path d="M7.52452 4.54887C7.47114 4.66411 7.38753 4.77821 7.25326 4.90275C7.07498 4.88859 6.94735 4.86399 6.81973 4.83938C6.81973 4.83938 6.81995 4.83993 6.82016 4.8401C7.04502 4.74276 7.26966 4.64525 7.52452 4.54887Z" fill="#FEAFC7"/>
<path d="M6.67892 3.92328C6.70501 3.94119 6.72812 3.97824 6.75123 4.01528C6.7351 4.02279 6.71897 4.0303 6.70284 4.03782C6.69388 4.00601 6.68492 3.97421 6.67892 3.92328Z" fill="#FEB1C9"/>
<path d="M6.52774 5.89456C6.56217 5.86621 6.59586 5.86582 6.65494 5.86458C6.64281 5.93119 6.60529 5.99867 6.54819 6.07827C6.52807 6.03444 6.52753 5.97849 6.52774 5.89456Z" fill="#FEA3C0"/>
<path d="M6.51296 6.09425C6.51776 6.10927 6.50494 6.13121 6.47334 6.1582C6.46815 6.14255 6.48175 6.12187 6.51296 6.09425Z" fill="#FEA3C0"/>
<path d="M18.0417 10.1188C17.9701 9.64999 17.8984 9.18112 17.8219 8.66143C17.7945 8.57594 17.7718 8.54127 17.7483 8.4817C17.7229 8.39952 17.6983 8.34226 17.6732 8.25554C17.6486 8.05069 17.6246 7.87529 17.6003 7.69992C17.6001 7.69995 17.5999 7.70023 17.5999 7.70023C17.9374 8.39648 18.1196 9.12899 18.1126 9.96038C18.0877 10.05 18.0647 10.0844 18.0417 10.1188Z" fill="#FEA9C3"/>
<path d="M18.0412 10.1436C18.0647 10.0844 18.0877 10.05 18.1125 9.99374C18.1383 10.0524 18.1623 10.1328 18.1861 10.24C18.154 10.2669 18.1222 10.2669 18.0665 10.2671C18.042 10.2343 18.0414 10.2014 18.0412 10.1436Z" fill="#FEAFC7"/>
<path d="M17.5272 7.69932C17.5269 7.66693 17.5266 7.63455 17.5266 7.57788C17.5503 7.58782 17.5737 7.62203 17.5985 7.67824C17.5999 7.70023 17.6001 7.69996 17.582 7.6999C17.5639 7.69985 17.5272 7.69932 17.5272 7.69932Z" fill="#FEAFC7"/>
<path d="M18.3089 4.83139C18.3373 4.86621 18.3501 4.88569 18.3838 4.91038C18.5 5.30996 18.1541 5.3486 17.9191 5.49793C17.9593 5.23496 18.0259 4.96936 18.0979 4.68228C18.1445 4.71606 18.216 4.76792 18.3089 4.83139Z" fill="#FEF4F7"/>
<path d="M17.747 5.52465C17.7807 5.49934 17.8131 5.4985 17.8698 5.49859C17.8575 5.54303 17.8209 5.58655 17.7642 5.63863C17.7446 5.61451 17.7451 5.58182 17.747 5.52465Z" fill="#FEF4F7"/>
<path d="M16.1458 4.98739C16.0966 4.9812 16.0816 4.9693 16.0649 4.93918C16.0802 4.75275 16.0586 4.45199 16.1298 4.42817C16.4603 4.31752 16.8156 4.27711 17.1646 4.23149C17.2027 4.22651 17.2949 4.34799 17.2981 4.41394C17.3128 4.71311 17.3045 5.01341 17.3045 5.35469C16.8967 5.22168 16.5364 5.10417 16.1458 4.98739Z" fill="#FEC9DA"/>
<path d="M16.7246 5.65344C16.8068 5.58895 16.9366 5.48988 16.9831 5.51988C17.0871 5.58704 17.185 5.70832 17.2189 5.82662C17.2508 5.93789 17.1974 6.07362 17.0985 6.26112C16.9771 6.06656 16.8557 5.872 16.7246 5.65344Z" fill="#FEC7D8"/>
<path d="M5.22881 11.6388C5.13597 11.5044 5.06371 11.3514 4.98849 11.173C5.00673 11.0472 5.02793 10.9469 5.04912 10.8466C5.08673 10.8435 5.12434 10.8404 5.16194 10.8374C5.19109 11.0983 5.22024 11.3593 5.22881 11.6388Z" fill="#FEC7D8"/>
<path d="M4.76766 10.4524C4.61978 10.1608 4.47766 9.84108 4.33429 9.49504C4.39486 9.38876 4.45669 9.30874 4.52991 9.21397C4.61171 9.25884 4.70734 9.31128 4.82206 9.37466C4.81858 9.7318 4.796 10.078 4.76766 10.4524Z" fill="#FEF4F7"/>
<path d="M17.441 7.53433C17.4233 7.54386 17.4052 7.5301 17.3859 7.4938C17.4054 7.48113 17.4241 7.49439 17.441 7.53433Z" fill="#FEFCFD"/>
<path d="M12.1743 14.5259C11.963 15.0529 11.4511 15.0113 10.9609 14.929C10.6111 14.8702 10.3293 14.6816 10.2843 14.2394C10.354 13.8704 10.2899 13.471 10.7803 13.4348C11.022 13.4169 11.2714 13.3982 11.5079 13.4371C12.0654 13.5287 12.2617 13.826 12.1765 14.38C12.1692 14.4276 12.1747 14.4772 12.1743 14.5259Z" fill="#FEC7D8"/>
<path d="M10.1201 9.54245C10.1174 9.65035 10.1147 9.75825 10.1253 9.87712C10.3363 10.4351 10.3491 10.9489 9.84828 11.3511C9.82867 11.1934 9.8328 11.0595 9.85554 10.9072C9.90856 10.4573 9.54847 10.1646 9.09738 10.2571C8.63084 10.3528 8.46925 10.5594 8.57441 10.9566C8.57382 11.0884 8.57274 11.1897 8.55647 11.2895C8.54127 11.288 8.51075 11.2893 8.51075 11.2893C8.14965 10.8749 8.2621 10.4394 8.45967 10.0047C8.51419 9.88468 8.5946 9.77648 8.65967 9.63501C8.65621 9.60714 8.65404 9.6108 8.67806 9.61769C8.73508 9.62035 8.76808 9.61611 8.80019 9.60933C8.7993 9.60679 8.79427 9.60869 8.79622 9.63864C8.87311 9.81405 8.93945 10.0744 9.02478 10.0808C9.19527 10.0935 9.39369 9.99353 9.5483 9.89131C9.73781 9.76601 9.64002 9.60173 9.56158 9.46006C9.6449 9.46059 9.70045 9.4611 9.75501 9.461C9.754 9.46039 9.75204 9.45911 9.75987 9.47836C9.80359 9.51707 9.83947 9.53652 9.87536 9.55598C9.88367 9.52389 9.89198 9.49181 9.90944 9.45033C9.91858 9.44095 9.93687 9.42218 9.95493 9.43418C10.022 9.47827 10.0711 9.51036 10.1201 9.54245Z" fill="#FE7FA6"/>
<path d="M15.2431 9.99147C15.2935 10.1145 15.3439 10.2374 15.3978 10.414C15.4251 10.5717 15.449 10.6758 15.4729 10.7799C15.4095 11.0042 15.346 11.2285 15.2826 11.4529C15.1386 11.0165 15.2956 10.4927 14.6762 10.2813C14.4456 10.2019 14.26 10.1301 14.0515 10.043C13.7996 9.98547 13.5708 9.94323 13.3419 9.90099C13.8311 9.47223 14.3641 9.57609 14.9449 9.79607C15.0712 9.87671 15.1571 9.93409 15.2431 9.99147Z" fill="#FE7FA6"/>
<path d="M14.0744 10.0583C14.26 10.1301 14.4456 10.2019 14.6426 10.2844C14.9243 10.6562 14.9284 11.073 14.8609 11.4846C14.8112 11.7874 14.6521 12.0355 14.2645 12.006C14.48 11.7815 14.5594 11.5266 14.5117 11.2004C14.4005 10.9312 14.2397 10.7564 13.9422 10.7414C13.9366 10.6368 13.9338 10.5604 13.9422 10.4611C13.9937 10.3116 14.034 10.1849 14.0744 10.0583Z" fill="#FE79A2"/>
<path d="M15.2464 9.96019C15.1571 9.93409 15.0712 9.87671 14.9744 9.80093C14.9374 9.42876 14.9112 9.07499 14.8933 8.66378C14.8756 8.32819 14.8496 8.05005 14.8235 7.77191C15.0139 7.87723 15.2042 7.98255 15.3973 8.14611C15.3511 8.6963 15.3022 9.18826 15.2533 9.68023C15.2522 9.76312 15.251 9.84602 15.2464 9.96019Z" fill="#FEC0D3"/>
<path d="M12.1957 14.5093C12.1747 14.4772 12.1692 14.4276 12.1765 14.38C12.2617 13.826 12.0654 13.5287 11.5079 13.4371C11.2714 13.3982 11.022 13.4169 10.7803 13.4348C10.2899 13.471 10.354 13.8704 10.2829 14.2125C10.263 13.9491 10.1895 13.6362 10.2852 13.3886C10.4171 13.0473 10.8115 13.1399 11.0881 13.1509C11.4468 13.1651 11.8072 13.2661 12.154 13.372C12.2579 13.4037 12.3922 13.5817 12.3851 13.6838C12.3661 13.956 12.2779 14.2234 12.1957 14.5093Z" fill="#FEB1C9"/>
<path d="M7.76318 10.3766C7.80478 10.0715 7.85063 9.79123 7.90833 9.4857C8.2169 9.31223 8.51362 9.16406 8.85721 9.02107C8.91703 9.02827 8.92998 9.03029 8.95597 9.04807C9.03271 9.0516 9.09641 9.03937 9.187 9.03142C9.45488 9.16453 9.69586 9.29336 9.93684 9.42218C9.93684 9.42218 9.91855 9.44095 9.88469 9.44971C9.81789 9.45868 9.78495 9.45889 9.752 9.45911C9.752 9.45911 9.75397 9.46039 9.7382 9.4377C9.34702 9.39218 8.96035 9.30723 8.60088 9.37239C8.41784 9.40557 8.28372 9.70858 8.12748 9.88961C8.04136 10.1179 7.95523 10.3461 7.86062 10.5969C7.83033 10.5333 7.79889 10.4674 7.76318 10.3766Z" fill="#FE7FA6"/>
<path d="M13.7036 7.81907C13.7218 7.77434 13.7444 7.75689 13.7781 7.7211C14.455 7.74272 14.5281 7.83794 14.3991 8.46703C14.3438 8.73699 14.3051 9.01035 14.2344 9.30004C14.0426 8.82739 13.8754 8.33687 13.7036 7.81907Z" fill="#FEC7D8"/>
<path d="M14.5108 11.2266C14.5594 11.5266 14.48 11.7815 14.2356 12.006C13.893 12.0735 13.5393 12.2387 13.2761 11.8059C13.2704 11.5949 13.2686 11.4423 13.2857 11.2849C13.3629 11.2862 13.4213 11.2924 13.4863 11.3242C13.6133 11.4483 13.7851 11.6538 13.8445 11.6253C14.0214 11.5403 14.1542 11.3635 14.3301 11.2217C14.4076 11.2229 14.4592 11.2248 14.5108 11.2266Z" fill="#FEC7D8"/>
<path d="M8.57166 11.291C8.57273 11.1897 8.5738 11.0883 8.59747 10.9475C8.70573 10.8653 8.79139 10.8228 8.87926 10.8063C9.03861 10.9523 9.19573 11.0723 9.35286 11.1922C9.43721 11.0792 9.52156 10.9663 9.63013 10.8556C9.71521 10.8805 9.77606 10.9031 9.83691 10.9257C9.83278 11.0595 9.82866 11.1933 9.82409 11.3618C9.82052 11.4136 9.81149 11.4265 9.7552 11.4385C9.575 11.444 9.42969 11.4223 9.29971 11.4574C9.21928 11.4791 9.16218 11.5872 9.09461 11.6565C9.05272 11.6466 9.01083 11.6366 8.96966 11.596C8.83747 11.4739 8.70456 11.3824 8.57166 11.291Z" fill="#FEC7D8"/>
<path d="M14.0514 10.043C14.034 10.1849 13.9937 10.3116 13.922 10.4721C13.83 10.5532 13.7693 10.6003 13.6812 10.644C13.5042 10.5216 13.3546 10.4028 13.2051 10.2839C13.147 10.212 13.089 10.1401 13.011 10.0436C13.1077 9.99601 13.2003 9.95036 13.3174 9.90285C13.5708 9.94323 13.7996 9.98547 14.0514 10.043Z" fill="#FEF4F7"/>
<path d="M13.1914 10.3055C13.3546 10.4028 13.5042 10.5216 13.6827 10.659C13.7117 10.6775 13.7147 10.7076 13.7001 10.7279C13.4652 10.8663 13.2203 10.9654 13.2669 11.2898C13.2686 11.4423 13.2704 11.5949 13.2728 11.7804C12.8814 11.4408 12.8501 10.9559 13.1914 10.3055Z" fill="#FE7FA6"/>
<path d="M15.5006 10.7851C15.4491 10.6758 15.4251 10.5717 15.4026 10.4389C15.4767 10.3043 15.5494 10.1985 15.6696 10.0234C15.6992 10.7759 15.7685 11.4641 15.4937 12.1346C15.4708 12.1195 15.4692 12.1065 15.4676 12.0935C15.5085 11.7511 15.5557 11.4094 15.5859 11.0661C15.5938 10.9766 15.5489 10.8824 15.5006 10.7851Z" fill="#FEA9C3"/>
<path d="M8.15228 9.88399C8.28374 9.70857 8.41787 9.40556 8.60091 9.37238C8.96037 9.30722 9.34705 9.39217 9.73924 9.4383C9.70045 9.46109 9.6449 9.46058 9.53092 9.46064C9.24643 9.51037 9.02035 9.55953 8.79426 9.60869C8.79426 9.60869 8.7993 9.60678 8.78996 9.59155C8.73843 9.58782 8.69623 9.5993 8.65404 9.61079C8.65404 9.61079 8.6562 9.60713 8.65793 9.60837C8.49878 9.6992 8.33792 9.78879 8.15228 9.88399Z" fill="#FEC7D8"/>
<path d="M15.5408 12.7914C15.663 12.484 15.7835 12.2036 15.9041 11.9232C15.9546 11.9454 16.0051 11.9675 16.0557 11.9896C15.8501 12.4357 15.6446 12.8818 15.4166 13.3419C15.4424 13.1768 15.4908 12.9976 15.5408 12.7914Z" fill="#FEA3C0"/>
<path d="M14.8166 7.74984C14.8496 8.05005 14.8756 8.32819 14.894 8.63105C14.8287 8.55781 14.771 8.45984 14.6896 8.35072C14.6668 8.12429 14.6676 7.90901 14.6684 7.6647C14.7154 7.66637 14.7625 7.69707 14.8166 7.74984Z" fill="#FE7FA6"/>
<path d="M15.6668 13.3462C15.5145 13.4652 15.336 13.5885 15.1295 13.7106C15.1799 13.6103 15.2583 13.5112 15.3606 13.4061C15.4699 13.3835 15.5553 13.367 15.6668 13.3462Z" fill="#FEAFC7"/>
<path d="M9.12469 11.6583C9.16218 11.5872 9.21928 11.4791 9.29971 11.4574C9.42968 11.4223 9.575 11.444 9.74392 11.4436C9.5676 11.517 9.36119 11.5885 9.12469 11.6583Z" fill="#FEB6CC"/>
<path d="M8.81183 12.321C8.81867 12.2173 8.84776 12.1257 8.87686 12.0342C8.91643 12.0485 8.95599 12.0627 8.99556 12.0769C8.97865 12.1758 9.15557 12.3452 8.81183 12.321Z" fill="#FEF4F7"/>
<path d="M15.2995 12.5483C15.337 12.6028 15.3519 12.6686 15.3876 12.7496C15.3581 12.8586 15.3077 12.9522 15.2573 13.0459C15.2045 13.0068 15.1518 12.9676 15.0991 12.9285C15.1583 12.8055 15.2176 12.6825 15.2995 12.5483Z" fill="#FEC0D3"/>
<path d="M8.55645 11.2895C8.70456 11.3824 8.83747 11.4739 8.95497 11.5796C8.80258 11.5077 8.6656 11.4216 8.51968 11.3123C8.51073 11.2892 8.54125 11.288 8.55645 11.2895Z" fill="#FEB6CC"/>
<path d="M15.448 12.1109C15.4692 12.1065 15.4708 12.1195 15.473 12.1522C15.4394 12.2863 15.4052 12.4008 15.3466 12.526C15.3576 12.4007 15.393 12.2645 15.448 12.1109Z" fill="#FEC0D3"/>
<path d="M8.57977 12.0256C8.58563 12.0235 8.59167 12.0216 8.58906 12.0229C8.58042 12.0261 8.57995 12.0258 8.57977 12.0256Z" fill="#FEF4F7"/>
<path d="M15.0669 13.0832C15.071 13.0808 15.0629 13.0857 15.0669 13.0832Z" fill="#FEC0D3"/>
<path d="M15.0887 13.7155C15.1013 13.7218 15.1022 13.7344 15.1036 13.7659C15.0951 13.7638 15.086 13.7428 15.0887 13.7155Z" fill="#FEAFC7"/>
<path d="M17.5238 7.72734C17.5272 7.69931 17.5638 7.69984 17.5821 7.69986C17.6245 7.87528 17.6486 8.05068 17.6732 8.28067C17.6989 8.39238 17.724 8.44949 17.7491 8.5066C17.7717 8.54127 17.7944 8.57594 17.818 8.63246C17.8 8.80458 17.7483 8.95914 17.7674 9.1044C17.8848 9.99976 17.8364 10.8833 17.5815 11.7575C17.6122 11.2935 17.6804 10.8282 17.665 10.3658C17.6399 9.61099 17.5584 8.85814 17.5055 8.10413C17.4974 7.9888 17.5149 7.87167 17.5238 7.72734Z" fill="#FEC0D3"/>
<path d="M15.2783 9.66664C15.3023 9.18826 15.3512 8.6963 15.4 8.1721C15.6757 8.27277 15.479 8.48341 15.4651 8.647C15.4365 8.9845 15.3601 9.31794 15.2783 9.66664Z" fill="#FEB1C9"/>
<path d="M6.81609 4.86882C6.94734 4.864 7.07497 4.8886 7.23132 4.91327C7.2109 5.0225 7.16173 5.13167 7.11314 5.26821C7.10985 5.31436 7.10046 5.32977 7.05234 5.35347C7.00196 5.38671 6.9848 5.40828 6.96764 5.42985C6.96764 5.42985 6.96839 5.42618 6.94567 5.42776C6.86421 5.45261 6.80547 5.47588 6.74673 5.49916C6.76864 5.29885 6.79055 5.09855 6.81609 4.86882Z" fill="#FEC7D8"/>
<path d="M6.74677 5.52929C6.80549 5.47587 6.86423 5.4526 6.94683 5.42923C6.91148 5.52335 6.85227 5.61757 6.773 5.72674C6.75088 5.68095 6.74883 5.62019 6.74677 5.52929Z" fill="#FEA3C0"/>
<path d="M6.98718 5.42326C6.98481 5.40827 7.00198 5.3867 7.04003 5.3598C7.04285 5.3752 7.02478 5.39594 6.98718 5.42326Z" fill="#FEA3C0"/>
<path d="M9.95493 9.43418C9.69589 9.29335 9.45491 9.16453 9.18712 9.00313C9.16024 8.91429 9.16015 8.85801 9.1629 8.77773C9.16769 8.72164 9.16964 8.68954 9.1716 8.65743C9.30027 8.43382 9.42894 8.21021 9.5576 7.9866C9.60665 7.98708 9.65569 7.98755 9.70473 7.98802C9.84302 8.4863 9.98131 8.98457 10.1199 9.51264C10.0711 9.51035 10.022 9.47826 9.95493 9.43418Z" fill="#FEF9FB"/>
<path d="M9.15101 8.64059C9.16967 8.68954 9.16771 8.72164 9.13952 8.78071C9.05652 8.88255 8.99975 8.95743 8.94298 9.0323C8.93003 9.03028 8.91709 9.02827 8.88578 9.01905C8.89151 8.50216 8.91805 7.99255 8.93559 7.48263C8.9372 7.43585 8.88128 7.3871 8.82477 7.33066C9.02611 7.27007 9.25476 7.21809 9.50761 7.17717C9.50787 7.33917 9.48395 7.49011 9.46002 7.67052C9.46003 7.7 9.46007 7.69996 9.46007 7.69996C9.35018 8.00789 9.24029 8.31582 9.15101 8.64059Z" fill="#FEC0D3"/>
<path d="M9.5741 8.89707C9.58302 8.90743 9.59196 8.91778 9.6009 8.92813C9.59465 8.92451 9.5884 8.92089 9.57815 8.90714C9.57416 8.89701 9.5741 8.89707 9.5741 8.89707Z" fill="#FEC0D3"/>
<path d="M8.21727 15.6902C8.237 15.6959 8.24821 15.71 8.25942 15.724C8.24347 15.7281 8.22751 15.7323 8.20182 15.7259C8.19207 15.7154 8.20876 15.6985 8.21727 15.6902Z" fill="#FE78A1"/>
<path d="M17.7483 8.4817C17.724 8.4495 17.6989 8.39238 17.6737 8.31013C17.6982 8.34226 17.7228 8.39952 17.7483 8.4817Z" fill="#FEC9DA"/>
<path d="M9.85555 10.9071C9.77608 10.9031 9.71523 10.8805 9.60272 10.8593C9.32639 10.8339 9.10173 10.8071 8.87707 10.7802C8.79141 10.8228 8.70574 10.8653 8.59701 10.917C8.46926 10.5594 8.63085 10.3528 9.09738 10.2571C9.54847 10.1646 9.90856 10.4573 9.85555 10.9071Z" fill="#FEA3C0"/>
<path d="M8.7962 9.63863C9.02033 9.55952 9.24641 9.51037 9.50315 9.46062C9.64 9.60171 9.73779 9.766 9.54828 9.8913C9.39367 9.99352 9.19525 10.0935 9.02476 10.0807C8.93943 10.0744 8.87309 9.81404 8.7962 9.63863Z" fill="#FEF4F7"/>
<path d="M9.75989 9.47836C9.78499 9.45889 9.81794 9.45868 9.87559 9.45909C9.89199 9.4918 9.88368 9.52389 9.87537 9.55597C9.83949 9.53652 9.80361 9.51706 9.75989 9.47836Z" fill="#FEB6CC"/>
<path d="M8.67804 9.61768C8.69622 9.5993 8.73841 9.58781 8.79084 9.59409C8.76806 9.6161 8.73506 9.62033 8.67804 9.61768Z" fill="#FEFCFD"/>
<path d="M14.5117 11.2004C14.4592 11.2248 14.4076 11.2229 14.3158 11.2038C14.229 11.2094 14.1657 11.2199 14.1385 11.257C13.9497 11.5139 13.7886 11.4779 13.6503 11.1993C13.7516 11.0448 13.8425 10.9124 13.9363 10.7773C13.9391 10.7747 13.945 10.7696 13.945 10.7696C14.2397 10.7564 14.4005 10.9312 14.5117 11.2004Z" fill="#FEA3C0"/>
<path d="M13.7147 10.7076C13.7147 10.7076 13.7117 10.6775 13.7101 10.6625C13.7693 10.6003 13.83 10.5532 13.9109 10.495C13.9338 10.5604 13.9366 10.6368 13.9422 10.7414C13.945 10.7696 13.9391 10.7746 13.913 10.7755C13.8295 10.7534 13.7721 10.7305 13.7147 10.7076Z" fill="#FEA3C0"/>
<path d="M8.95599 9.04807C8.99972 8.95743 9.05649 8.88255 9.13666 8.8047C9.16014 8.85801 9.16023 8.91429 9.16022 8.99885C9.09643 9.03937 9.03273 9.0516 8.95599 9.04807Z" fill="#FEB6CC"/>
<path d="M13.7001 10.7279C13.7721 10.7305 13.8295 10.7534 13.9101 10.7781C13.8425 10.9124 13.7516 11.0448 13.6314 11.1921C13.5612 11.2375 13.5204 11.268 13.4796 11.2986C13.4212 11.2924 13.3629 11.2862 13.2857 11.2849C13.2203 10.9654 13.4652 10.8663 13.7001 10.7279Z" fill="#FEAFC7"/>
<path d="M13.4863 11.3242C13.5204 11.268 13.5612 11.2375 13.6209 11.2142C13.7886 11.4779 13.9497 11.5139 14.1385 11.257C14.1657 11.2199 14.2289 11.2094 14.2898 11.2045C14.1541 11.3635 14.0214 11.5403 13.8445 11.6253C13.7851 11.6538 13.6133 11.4483 13.4863 11.3242Z" fill="#FE7FA6"/>
<path d="M8.87927 10.8063C9.10172 10.8071 9.32638 10.8339 9.57848 10.8571C9.52157 10.9663 9.43722 11.0792 9.35287 11.1922C9.19574 11.0723 9.03862 10.9523 8.87927 10.8063Z" fill="#FE7FA6"/>
</g>
<path d="M22.1449 17V7.54545H23.2898V15.9844H27.6847V17H22.1449ZM37.0665 12.2727C37.0665 13.2699 36.8865 14.1316 36.5264 14.858C36.1663 15.5843 35.6723 16.1444 35.0445 16.5384C34.4166 16.9323 33.6995 17.1293 32.8932 17.1293C32.0869 17.1293 31.3698 16.9323 30.7419 16.5384C30.1141 16.1444 29.6201 15.5843 29.26 14.858C28.8999 14.1316 28.7199 13.2699 28.7199 12.2727C28.7199 11.2756 28.8999 10.4138 29.26 9.6875C29.6201 8.96117 30.1141 8.40104 30.7419 8.0071C31.3698 7.61316 32.0869 7.41619 32.8932 7.41619C33.6995 7.41619 34.4166 7.61316 35.0445 8.0071C35.6723 8.40104 36.1663 8.96117 36.5264 9.6875C36.8865 10.4138 37.0665 11.2756 37.0665 12.2727ZM35.9585 12.2727C35.9585 11.4541 35.8216 10.7631 35.5477 10.1999C35.2768 9.63672 34.9091 9.21046 34.4443 8.92116C33.9827 8.63187 33.4656 8.48722 32.8932 8.48722C32.3208 8.48722 31.8022 8.63187 31.3374 8.92116C30.8758 9.21046 30.508 9.63672 30.2341 10.1999C29.9633 10.7631 29.8279 11.4541 29.8279 12.2727C29.8279 13.0914 29.9633 13.7823 30.2341 14.3455C30.508 14.9087 30.8758 15.335 31.3374 15.6243C31.8022 15.9136 32.3208 16.0582 32.8932 16.0582C33.4656 16.0582 33.9827 15.9136 34.4443 15.6243C34.9091 15.335 35.2768 14.9087 35.5477 14.3455C35.8216 13.7823 35.9585 13.0914 35.9585 12.2727ZM38.9916 17V7.54545H40.1365V15.9844H44.5313V17H38.9916ZM47.449 7.54545V17H46.3041V7.54545H47.449Z" fill="#FE7FA6"/>
<path d="M61.0087 10.5H59.8638C59.7961 10.1707 59.6776 9.88139 59.5083 9.6321C59.3422 9.38281 59.139 9.17353 58.899 9.00426C58.662 8.83191 58.3989 8.70265 58.1096 8.61648C57.8203 8.5303 57.5186 8.48722 57.2047 8.48722C56.6323 8.48722 56.1137 8.63187 55.649 8.92116C55.1873 9.21046 54.8195 9.63672 54.5456 10.1999C54.2748 10.7631 54.1394 11.4541 54.1394 12.2727C54.1394 13.0914 54.2748 13.7823 54.5456 14.3455C54.8195 14.9087 55.1873 15.335 55.649 15.6243C56.1137 15.9136 56.6323 16.0582 57.2047 16.0582C57.5186 16.0582 57.8203 16.0152 58.1096 15.929C58.3989 15.8428 58.662 15.7151 58.899 15.5458C59.139 15.3735 59.3422 15.1626 59.5083 14.9134C59.6776 14.661 59.7961 14.3717 59.8638 14.0455H61.0087C60.9225 14.5286 60.7656 14.9611 60.5378 15.3427C60.3101 15.7243 60.0269 16.049 59.6884 16.3168C59.3498 16.5814 58.9698 16.783 58.5481 16.9215C58.1296 17.06 57.6818 17.1293 57.2047 17.1293C56.3984 17.1293 55.6813 16.9323 55.0534 16.5384C54.4256 16.1444 53.9316 15.5843 53.5716 14.858C53.2115 14.1316 53.0314 13.2699 53.0314 12.2727C53.0314 11.2756 53.2115 10.4138 53.5716 9.6875C53.9316 8.96117 54.4256 8.40104 55.0534 8.0071C55.6813 7.61316 56.3984 7.41619 57.2047 7.41619C57.6818 7.41619 58.1296 7.48544 58.5481 7.62393C58.9698 7.76243 59.3498 7.96555 59.6884 8.23331C60.0269 8.49799 60.3101 8.82114 60.5378 9.20277C60.7656 9.58132 60.9225 10.0137 61.0087 10.5ZM65.684 17.1477C65.0008 17.1477 64.4114 16.9969 63.9159 16.6953C63.4235 16.3906 63.0434 15.9659 62.7757 15.4212C62.511 14.8733 62.3786 14.2363 62.3786 13.5099C62.3786 12.7836 62.511 12.1435 62.7757 11.5895C63.0434 11.0324 63.4158 10.5985 63.8928 10.2876C64.373 9.97372 64.9331 9.81676 65.5732 9.81676C65.9426 9.81676 66.3073 9.87831 66.6673 10.0014C67.0274 10.1245 67.3552 10.3246 67.6507 10.6016C67.9461 10.8755 68.1816 11.2386 68.357 11.6911C68.5324 12.1435 68.6201 12.7005 68.6201 13.3622V13.8239H63.1542V12.8821H67.5122C67.5122 12.482 67.4321 12.125 67.2721 11.8111C67.1151 11.4972 66.8905 11.2494 66.5981 11.0678C66.3088 10.8862 65.9672 10.7955 65.5732 10.7955C65.1393 10.7955 64.7638 10.9032 64.4468 11.1186C64.1329 11.331 63.8913 11.608 63.722 11.9496C63.5528 12.2912 63.4681 12.6574 63.4681 13.0483V13.6761C63.4681 14.2116 63.5605 14.6656 63.7451 15.038C63.9329 15.4073 64.1929 15.6889 64.5253 15.8828C64.8577 16.0736 65.2439 16.169 65.684 16.169C65.9703 16.169 66.2288 16.129 66.4596 16.049C66.6935 15.9659 66.8951 15.8428 67.0644 15.6797C67.2336 15.5135 67.3644 15.3073 67.4568 15.0611L68.5093 15.3565C68.3985 15.7135 68.2123 16.0275 67.9507 16.2983C67.6891 16.5661 67.366 16.7753 66.9813 16.9261C66.5966 17.0739 66.1642 17.1477 65.684 17.1477ZM71.3669 12.7344V17H70.2774V9.90909H71.33V11.017H71.4223C71.5885 10.657 71.8409 10.3677 72.1794 10.1491C72.518 9.92756 72.955 9.81676 73.4905 9.81676C73.9706 9.81676 74.3907 9.91525 74.7508 10.1122C75.1109 10.3061 75.391 10.6016 75.591 10.9986C75.791 11.3925 75.8911 11.8911 75.8911 12.4943V17H74.8016V12.5682C74.8016 12.0111 74.6569 11.5772 74.3676 11.2663C74.0783 10.9524 73.6813 10.7955 73.1766 10.7955C72.8288 10.7955 72.518 10.8709 72.2441 11.0217C71.9732 11.1725 71.7593 11.3925 71.6024 11.6818C71.4454 11.9711 71.3669 12.322 71.3669 12.7344ZM80.9657 9.90909V10.8324H77.291V9.90909H80.9657ZM78.362 8.21023H79.4515V14.9688C79.4515 15.2765 79.4962 15.5073 79.5854 15.6612C79.6777 15.812 79.7947 15.9136 79.9363 15.9659C80.0809 16.0152 80.2333 16.0398 80.3933 16.0398C80.5133 16.0398 80.6118 16.0336 80.6887 16.0213C80.7657 16.0059 80.8272 15.9936 80.8734 15.9844L81.095 16.9631C81.0211 16.9908 80.918 17.0185 80.7857 17.0462C80.6534 17.0769 80.4856 17.0923 80.2825 17.0923C79.9747 17.0923 79.6731 17.0262 79.3777 16.8938C79.0853 16.7615 78.8422 16.5599 78.6483 16.2891C78.4574 16.0182 78.362 15.6766 78.362 15.2642V8.21023ZM85.5014 17.1477C84.8182 17.1477 84.2288 16.9969 83.7333 16.6953C83.2409 16.3906 82.8608 15.9659 82.593 15.4212C82.3284 14.8733 82.196 14.2363 82.196 13.5099C82.196 12.7836 82.3284 12.1435 82.593 11.5895C82.8608 11.0324 83.2332 10.5985 83.7102 10.2876C84.1903 9.97372 84.7505 9.81676 85.3906 9.81676C85.7599 9.81676 86.1246 9.87831 86.4847 10.0014C86.8448 10.1245 87.1726 10.3246 87.468 10.6016C87.7635 10.8755 87.9989 11.2386 88.1744 11.6911C88.3498 12.1435 88.4375 12.7005 88.4375 13.3622V13.8239H82.9716V12.8821H87.3295C87.3295 12.482 87.2495 12.125 87.0895 11.8111C86.9325 11.4972 86.7079 11.2494 86.4155 11.0678C86.1262 10.8862 85.7846 10.7955 85.3906 10.7955C84.9567 10.7955 84.5812 10.9032 84.2642 11.1186C83.9503 11.331 83.7087 11.608 83.5394 11.9496C83.3701 12.2912 83.2855 12.6574 83.2855 13.0483V13.6761C83.2855 14.2116 83.3778 14.6656 83.5625 15.038C83.7502 15.4073 84.0103 15.6889 84.3427 15.8828C84.6751 16.0736 85.0613 16.169 85.5014 16.169C85.7876 16.169 86.0462 16.129 86.277 16.049C86.5109 15.9659 86.7125 15.8428 86.8817 15.6797C87.051 15.5135 87.1818 15.3073 87.2741 15.0611L88.3267 15.3565C88.2159 15.7135 88.0297 16.0275 87.7681 16.2983C87.5065 16.5661 87.1834 16.7753 86.7987 16.9261C86.4139 17.0739 85.9815 17.1477 85.5014 17.1477ZM90.0948 17V9.90909H91.1474V10.9801H91.2212C91.3505 10.6293 91.5844 10.3446 91.9229 10.1261C92.2615 9.90755 92.6431 9.79829 93.0678 9.79829C93.1478 9.79829 93.2479 9.79983 93.3679 9.80291C93.4879 9.80599 93.5787 9.81061 93.6403 9.81676V10.9247C93.6033 10.9155 93.5187 10.9016 93.3864 10.8832C93.2571 10.8616 93.1201 10.8509 92.9755 10.8509C92.6308 10.8509 92.323 10.9232 92.0522 11.0678C91.7844 11.2094 91.5721 11.4064 91.4151 11.6587C91.2612 11.908 91.1843 12.1927 91.1843 12.5128V17H90.0948Z" fill="#FF317B"/>
<defs>
<clipPath id="clip0_5_4">
<rect width="22" height="22" fill="white"/>
</clipPath>
</defs>
</svg>
